<svg width="322" height="94" viewBox="0 0 322 94" fill="none" xmlns="http://www.w3.org/2000/svg">
<rect width="322" height="94" fill="#FFE26F"/>
<path d="M44.2942 68V25.7004H63.8902C66.7229 25.7004 69.323 26.0387 71.6906 26.7151C74.0582 27.3916 75.9607 28.5965 77.3982 30.3299C78.8779 32.0211 79.6178 34.4309 79.6178 37.5595C79.6178 39.5043 79.0682 41.1532 77.969 42.5061C76.8697 43.8167 75.5591 44.8526 74.0371 45.6136C72.515 46.3746 71.0987 46.9242 69.7881 47.2624L68.3295 44.4086C71.1621 44.4086 73.5509 44.8526 75.4957 45.7404C77.4828 46.586 79.0048 47.7909 80.0617 49.3552C81.1187 50.9195 81.6472 52.7586 81.6472 54.8725C81.6472 57.8743 80.8862 60.3476 79.3642 62.2924C77.8844 64.2372 75.9396 65.6747 73.5297 66.6048C71.1199 67.5349 68.5409 68 65.7928 68H44.2942ZM57.0411 58.4874H64.5878C65.3066 58.4874 65.9619 58.3394 66.5538 58.0434C67.1457 57.7475 67.6107 57.3036 67.949 56.7117C68.3295 56.0775 68.5197 55.3165 68.5197 54.4286C68.5197 53.7522 68.414 53.1814 68.2026 52.7163C67.9913 52.209 67.6953 51.8074 67.3148 51.5114C66.9766 51.1732 66.5538 50.9195 66.0464 50.7504C65.5391 50.5813 64.9895 50.4967 64.3976 50.4967H57.0411V58.4874ZM56.9777 41.6183H64.2708C64.6935 41.6183 65.074 41.4914 65.4123 41.2378C65.7928 40.9418 66.0887 40.5824 66.3001 40.1597C66.5538 39.6946 66.6806 39.1872 66.6806 38.6376C66.6806 37.4116 66.3424 36.5448 65.6659 36.0375C65.0318 35.4879 64.3553 35.2131 63.6366 35.2131H56.9777V41.6183ZM107.487 68.9513C103.301 68.9513 99.602 68.1691 96.3888 66.6048C93.1757 65.0405 90.6601 62.6306 88.8421 59.3752C87.0241 56.1198 86.1152 51.9553 86.1152 46.8819C86.1152 39.61 88.0177 34.1138 91.8227 30.3933C95.6278 26.6306 100.849 24.7492 107.487 24.7492C111.672 24.7492 115.372 25.5313 118.585 27.0956C121.798 28.6599 124.314 31.0698 126.132 34.3252C127.95 37.5384 128.859 41.7028 128.859 46.8185C128.859 54.0904 126.956 59.6077 123.151 63.3705C119.388 67.091 114.167 68.9513 107.487 68.9513ZM107.487 58.8044C109.136 58.8044 110.573 58.4451 111.799 57.7263C113.025 56.9653 113.977 55.7181 114.653 53.9847C115.372 52.209 115.731 49.7991 115.731 46.7551C115.731 43.711 115.372 41.3223 114.653 39.5889C113.977 37.8555 113.025 36.6505 111.799 35.9741C110.573 35.2554 109.136 34.896 107.487 34.896C105.838 34.896 104.401 35.2765 103.175 36.0375C101.948 36.7562 100.976 37.9823 100.257 39.7157C99.5808 41.4491 99.2426 43.859 99.2426 46.9453C99.2426 49.9894 99.5808 52.3781 100.257 54.1115C100.976 55.8027 101.948 57.0076 103.175 57.7263C104.401 58.4451 105.838 58.8044 107.487 58.8044ZM135.209 68V25.7004H148.02L162.035 44.2818H155.44L169.835 25.7004H182.265V68H169.582V34.8326L171.548 39.4621L158.42 56.458L144.849 38.8279L147.259 37.6229V68H135.209ZM190.514 68V25.7004H203.261V68H190.514ZM226.666 68.9513C224.509 68.9513 222.501 68.8667 220.641 68.6976C218.781 68.5708 217.047 68.3171 215.441 67.9366C213.834 67.5561 212.333 67.0276 210.938 66.3511V54.5555C213.179 56.2889 215.546 57.5361 218.041 58.2971C220.577 59.0581 222.776 59.4386 224.636 59.4386C225.989 59.4386 227.088 59.2272 227.934 58.8044C228.822 58.3394 229.266 57.4515 229.266 56.1409C229.266 55.2953 228.801 54.6189 227.87 54.1115C226.94 53.5619 225.672 53.0546 224.065 52.5895C222.459 52.1244 220.641 51.5537 218.611 50.8772C217.47 50.4967 216.35 50.0105 215.25 49.4186C214.193 48.8267 213.242 48.0869 212.397 47.199C211.551 46.2689 210.875 45.1696 210.367 43.9013C209.86 42.5907 209.606 41.0264 209.606 39.2084C209.606 37.2213 209.966 35.3399 210.684 33.5642C211.445 31.7885 212.545 30.2454 213.982 28.9347C215.462 27.5818 217.322 26.5249 219.563 25.7638C221.803 25.0028 224.404 24.6223 227.363 24.6223C229.139 24.6223 230.724 24.728 232.119 24.9394C233.557 25.1085 234.91 25.4045 236.178 25.8273C237.489 26.2078 238.778 26.7151 240.047 27.3493V39.3986C239.117 38.5531 237.996 37.7498 236.686 36.9888C235.417 36.2278 234.085 35.5936 232.69 35.0862C231.337 34.5366 230.027 34.2195 228.758 34.135C227.786 34.0504 226.813 34.0927 225.841 34.2618C224.911 34.4309 224.129 34.7903 223.495 35.3399C222.903 35.8473 222.607 36.6083 222.607 37.6229C222.607 38.5531 222.945 39.2929 223.621 39.8426C224.298 40.3499 225.228 40.7938 226.412 41.1743C227.638 41.5126 228.991 41.8931 230.471 42.3159C232.289 42.8232 233.916 43.394 235.354 44.0281C236.833 44.6623 238.081 45.4445 239.095 46.3746C240.152 47.3047 240.956 48.4462 241.505 49.7991C242.055 51.1098 242.33 52.6952 242.33 54.5555C242.33 57.3881 241.653 59.9037 240.3 62.1022C238.99 64.2584 237.151 65.9495 234.783 67.1756C232.458 68.3594 229.752 68.9513 226.666 68.9513ZM256.722 68V35.2131H246.131V25.7004H280.249V35.2131H269.405V68H256.722Z" fill="black"/>
</svg>
