<svg width="243" height="70" fill="none" xmlns="http://www.w3.org/2000/svg"><g clip-path="url(#a)"><path d="M85.163 53.144h-3.846v6.004h3.846c1.89 0 3.189-.96 3.189-3.006s-1.298-2.998-3.19-2.998Zm.113 6.922h-3.959v5.771h-1.03V52.22h4.989c2.35 0 4.113 1.412 4.113 3.916 0 2.505-1.757 3.916-4.113 3.916v.014Zm10.322-2.696c-1.587 0-2.47 1.32-2.47 2.823v5.644h-.973v-9.215h.974v1.221a3.16 3.16 0 0 1 2.695-1.34 2.822 2.822 0 0 1 2.216.881l-.706.706a2.117 2.117 0 0 0-1.743-.706l.007-.014Zm9.575.776a2.725 2.725 0 0 0-3.824 0c-.762.762-.826 2.011-.826 3.084 0 1.072.057 2.314.826 3.076a2.73 2.73 0 0 0 3.824 0c.762-.762.818-2.01.818-3.076 0-1.066-.056-2.315-.818-3.084Zm.649 6.788a3.746 3.746 0 0 1-5.122 0c-.974-.974-1.15-2.392-1.15-3.711 0-1.32.176-2.73 1.15-3.712a3.738 3.738 0 0 1 5.122 0c.974.974 1.15 2.392 1.15 3.712 0 1.32-.169 2.737-1.15 3.711ZM111.918 65.837l-3.365-9.215h1.065l2.773 8.065 2.773-8.065h1.072l-3.365 9.215h-.953ZM123.878 58.944a2.619 2.619 0 0 0-4.777 0 5.023 5.023 0 0 0-.325 1.735h5.426a4.233 4.233 0 0 0-.324-1.735Zm-2.117 6.152a3.205 3.205 0 0 0 2.54-1.108l.706.58a4.19 4.19 0 0 1-3.324 1.41c-2.54 0-3.916-1.644-3.916-4.72 0-3.076 1.411-4.727 3.69-4.727s3.691 1.665 3.691 4.494v.438h-6.379c0 2.35 1.03 3.633 2.999 3.633h-.007Zm12.531-4.981c0-1.778-.882-2.752-2.54-2.752s-2.597.995-2.597 2.752v5.715h-.973v-9.208h.973v1.094a3.74 3.74 0 0 1 5.158-.325 3.413 3.413 0 0 1 .96 2.562v5.891h-.981v-5.729Zm14.556-6.971h-3.846v6.004h3.846c1.891 0 3.189-.96 3.189-3.006s-1.298-2.998-3.189-2.998Zm.113 6.922h-3.959v5.771h-1.037V52.22h4.996c2.349 0 4.106 1.412 4.106 3.916 0 2.505-1.757 3.916-4.106 3.916v.014Zm10.315-2.696c-1.587 0-2.469 1.32-2.469 2.823v5.644h-.974v-9.215h.974v1.221a3.164 3.164 0 0 1 2.695-1.34 2.825 2.825 0 0 1 2.216.881l-.706.706a2.116 2.116 0 0 0-1.743-.706l.007-.014Zm9.589.776a2.723 2.723 0 0 0-3.824 0c-.762.762-.826 2.011-.826 3.084 0 1.072.057 2.314.826 3.076a2.722 2.722 0 0 0 3.824 0c.762-.762.826-2.01.826-3.076 0-1.066-.057-2.315-.826-3.084Zm.656 6.788a3.746 3.746 0 0 1-5.122 0c-.974-.974-1.15-2.392-1.15-3.711 0-1.32.169-2.73 1.15-3.712a3.746 3.746 0 0 1 5.122 0c.974.974 1.143 2.392 1.143 3.712 0 1.32-.169 2.737-1.143 3.711Zm7.338-7.564c-2.258 0-2.596 1.948-2.596 3.86s.345 3.866 2.596 3.866c2.251 0 2.597-1.947 2.597-3.866 0-1.92-.346-3.86-2.597-3.86Zm2.59 7.282a3.047 3.047 0 0 1-2.731 1.298 3.19 3.19 0 0 1-2.258-.804c-.931-.939-1.185-2.47-1.185-3.923 0-1.454.254-2.978 1.185-3.916a3.19 3.19 0 0 1 2.258-.805 3.05 3.05 0 0 1 2.731 1.299v-5.582h.973V65.83h-.973v-1.185.007Zm10.541.091a3.4 3.4 0 0 1-6.117-2.236v-5.892h.98v5.715c0 1.778.875 2.752 2.54 2.752 1.666 0 2.597-.995 2.597-2.752v-5.715h.974v9.215h-.974v-1.087Zm8.079 1.207c-2.526 0-4.05-1.8-4.05-4.727 0-2.928 1.524-4.72 4.05-4.72a3.578 3.578 0 0 1 3.041 1.41l-.671.607a2.82 2.82 0 0 0-2.37-1.164 2.776 2.776 0 0 0-2.442 1.22 5.83 5.83 0 0 0 0 5.278 2.781 2.781 0 0 0 2.442 1.228 2.876 2.876 0 0 0 2.37-1.164l.671.614a3.578 3.578 0 0 1-3.041 1.411v.007Zm6.399-2.526V57.35h-1.263v-.705h1.263V53.7h.974v2.943h2.117v.705h-2.117v6.096c0 .974.437 1.531 1.411 1.531h.67v.861h-.839c-1.454 0-2.216-1.016-2.216-2.413Zm5.828 2.413h.974v-9.215h-.974v9.215Zm-.113-12.41h1.207v-1.2h-1.207v1.2ZM216.971 65.837l-3.373-9.215h1.073l2.78 8.065 2.766-8.065h1.072l-3.365 9.215h-.953ZM223.632 65.837h.973v-9.215h-.973v9.215Zm-.113-12.41h1.206v-1.2h-1.206v1.2Zm4.988 9.997V57.35h-1.263v-.705h1.263V53.7h.974v2.943h2.117v.705h-2.117v6.096c0 .974.437 1.531 1.411 1.531h.67v.861h-.839c-1.454 0-2.216-1.016-2.216-2.413Zm7.776 5.983a2.492 2.492 0 0 1-1.736.593h-.459v-.86h.36c1.051 0 1.355-.347 1.679-1.264l.748-2.046-3.365-9.215h1.065l2.773 8.065 2.78-8.058h1.072l-4.282 11.72a2.432 2.432 0 0 1-.635 1.072" fill="#000"/><path d="M13.822 21.174H6.766v8.467h7.056c3.07 0 4.53-1.94 4.53-4.233 0-2.293-1.46-4.234-4.53-4.234Zm-.437-13.998H6.759v7.944h6.626c2.871 0 4.48-1.601 4.48-3.972 0-2.37-1.609-3.972-4.48-3.972Zm1.122 28.484H0V1.157h13.921c6.774 0 10.718 3.782 10.718 9.695a7.973 7.973 0 0 1-4.283 7.126c2.116.967 4.77 3.147 4.77 7.761 0 6.442-4.431 9.935-10.584 9.935l-.035-.014Zm76.632.296c-5.257 0-9.257-1.115-12.665-4.55l4.382-4.361c2.194 2.18 5.157 2.907 8.375 2.907 3.993 0 6.138-1.503 6.138-4.234a3.825 3.825 0 0 0-1.08-2.907c-.705-.628-1.46-.974-3.069-1.206l-4.19-.586c-2.971-.437-5.165-1.355-6.718-2.857-1.658-1.645-2.483-3.881-2.483-6.781 0-6.153 4.579-10.47 12.08-10.47 4.776 0 8.226 1.163 11.204 4.028l-4.29 4.233c-2.188-2.116-4.82-2.377-7.112-2.377-3.606 0-5.356 1.982-5.356 4.36a3.324 3.324 0 0 0 1.023 2.47 5.969 5.969 0 0 0 3.218 1.354l4.092.586c3.168.437 5.158 1.305 6.618 2.667 1.849 1.743 2.681 4.233 2.681 7.317 0 6.682-5.602 10.464-12.855 10.464l.007-.057Zm32.894 0c-5.264 0-9.25-1.115-12.665-4.55l4.388-4.361c2.188 2.18 5.158 2.907 8.376 2.907 3.993 0 6.131-1.503 6.131-4.234a3.82 3.82 0 0 0-1.072-2.907c-.706-.628-1.461-.974-3.063-1.206l-4.191-.586c-2.97-.437-5.157-1.355-6.717-2.857-1.658-1.645-2.483-3.881-2.483-6.781 0-6.153 4.579-10.47 12.079-10.47 4.77 0 8.234 1.163 11.205 4.028l-4.29 4.233c-2.195-2.116-4.819-2.377-7.113-2.377-3.605 0-5.355 1.982-5.355 4.36a3.321 3.321 0 0 0 1.023 2.47 5.964 5.964 0 0 0 3.218 1.354l4.092.586c3.168.437 5.165 1.305 6.625 2.667 1.856 1.743 2.674 4.233 2.674 7.317 0 6.682-5.602 10.464-12.855 10.464l-.007-.057Zm34.248-24.617-4.388 12.545h8.622l-4.234-12.545Zm8.115 24.32-2.047-6.102h-12.326l-2.117 6.103h-7.055l12.608-34.496h5.313l12.679 34.496h-7.055Zm28.575-28.483h-6.35v9.116h6.35c2.971 0 4.939-1.891 4.939-4.558s-1.947-4.558-4.939-4.558Zm5.278 28.484L193.475 21.9h-4.854V35.66h-6.766V1.157h13.582c7.056 0 11.247 4.805 11.247 10.584a9.286 9.286 0 0 1-6.35 9.06l7.761 14.88h-7.846v-.021ZM234.66 9.307c-1.164-1.412-2.731-2.117-5.066-2.117h-5.116v22.486h5.116c2.335 0 3.895-.705 5.066-2.116 1.263-1.545 1.46-4.022 1.46-9.25 0-5.229-.197-7.416-1.46-8.968v-.035Zm4.727 23.1c-2.286 2.279-5.553 3.295-9.172 3.295h-12.503V1.199h12.538c3.605 0 6.865 1.024 9.172 3.296 3.895 3.873 3.528 8.622 3.528 13.815s.388 10.216-3.528 14.111" fill="#007AC3"/><path d="m58.958 8.298 4.381-4.89a18.606 18.606 0 0 0-23.538 1.7l4.89 4.333a12.058 12.058 0 0 1 14.267-1.15" fill="#A1C8EA"/><path d="m62.436 25.189 4.89 4.34a18.345 18.345 0 0 0-.98-23.461l-4.383 4.897a11.896 11.896 0 0 1 .48 14.231" fill="#46A8DE"/><path d="M44.627 27.292a11.882 11.882 0 0 1-2.476-14.726l-4.939-4.381a18.345 18.345 0 0 0 3.076 23.99 18.598 18.598 0 0 0 24.265.303l-4.94-4.382a12.044 12.044 0 0 1-14.986-.77" fill="#007AC3"/></g><defs><clipPath id="a"><path fill="#fff" d="M0 0h242.908v70H0z"/></clipPath></defs></svg>
