<?xml version="1.0" encoding="UTF-8"?>
<svg width="491.34" height="226.77" version="1.1" viewBox="0 0 491.34 226.77" xmlns="http://www.w3.org/2000/svg" xmlns:xlink="http://www.w3.org/1999/xlink">
 <defs>
  <clipPath id="clipPath8">
   <path transform="translate(-35.126 -55.425)" d="m0 170.08h368.5v-170.08h-368.5z"/>
  </clipPath>
  <clipPath id="clipPath10">
   <path transform="translate(-64.763 -50.991)" d="m0 170.08h368.5v-170.08h-368.5z"/>
  </clipPath>
  <clipPath id="clipPath12">
   <path transform="translate(-75.722 -46.26)" d="m0 170.08h368.5v-170.08h-368.5z"/>
  </clipPath>
  <clipPath id="clipPath14">
   <path transform="translate(-96.518 -65.935)" d="m0 170.08h368.5v-170.08h-368.5z"/>
  </clipPath>
  <clipPath id="clipPath16">
   <path transform="translate(-132.53 -48.451)" d="m0 170.08h368.5v-170.08h-368.5z"/>
  </clipPath>
  <clipPath id="clipPath18">
   <path transform="translate(-151.78 -51.515)" d="m0 170.08h368.5v-170.08h-368.5z"/>
  </clipPath>
  <clipPath id="clipPath20">
   <path transform="translate(-168.72 -37.12)" d="m0 170.08h368.5v-170.08h-368.5z"/>
  </clipPath>
  <clipPath id="clipPath22">
   <path transform="translate(-215.69 -43.147)" d="m0 170.08h368.5v-170.08h-368.5z"/>
  </clipPath>
  <clipPath id="clipPath24">
   <path transform="translate(-237.53 -51.515)" d="m0 170.08h368.5v-170.08h-368.5z"/>
  </clipPath>
  <clipPath id="clipPath26">
   <path transform="translate(-252.72 -46.26)" d="m0 170.08h368.5v-170.08h-368.5z"/>
  </clipPath>
  <clipPath id="clipPath28">
   <path d="m0 170.08h368.5v-170.08h-368.5z"/>
  </clipPath>
  <clipPath id="clipPath30">
   <path transform="translate(-301.24 -37.22)" d="m0 170.08h368.5v-170.08h-368.5z"/>
  </clipPath>
  <clipPath id="clipPath32">
   <path transform="translate(-311.75 -55.425)" d="m0 170.08h368.5v-170.08h-368.5z"/>
  </clipPath>
  <clipPath id="clipPath34">
   <path transform="translate(-326.74 -46.26)" d="m0 170.08h368.5v-170.08h-368.5z"/>
  </clipPath>
 </defs>
 <g>
  <g fill="#444445">
   <path transform="matrix(1.3333 0 0 -1.3333 239.85 119.72)" d="m0 0-5.936-5.945-21.66 21.625 5.938 5.946z"/>
   <path transform="matrix(1.3333 0 0 -1.3333 250.46 109.09)" d="m0 0-5.937-5.945-21.658 21.622 5.937 5.946z"/>
   <path transform="matrix(1.3333 0 0 -1.3333 260.83 98.713)" d="m0 0-5.937-5.943-21.658 21.624 5.936 5.946z"/>
  </g>
  <g fill="#d02427">
   <path transform="matrix(1.3333 0 0 -1.3333 284.88 58.821)" d="m0 0 5.945-5.937-21.624-21.659-5.947 5.937z"/>
   <path transform="matrix(1.3333 0 0 -1.3333 274.26 48.219)" d="m0 0 5.946-5.935-21.623-21.657-5.948 5.938z"/>
   <path transform="matrix(1.3333 0 0 -1.3333 263.88 37.846)" d="m0 0 5.941-5.937-21.625-21.659-5.943 5.935z"/>
  </g>
  <g fill="#444445">
   <path transform="matrix(1.3333 0 0 -1.3333 46.835 152.87)" d="m0 0h5.404v0.149c0.067 0.731 0.1 1.246 0.1 1.544 0 1.411-0.229 2.453-0.685 3.125-0.457 0.673-1.167 1.009-2.129 1.009-0.98 0-1.681-0.328-2.105-0.983-0.423-0.656-0.635-1.74-0.635-3.25 0-0.415 4e-3 -0.74 0.013-0.972 8e-3 -0.232 0.02-0.439 0.037-0.622m5.205-8.193h7.546v-0.723c0-3.37-0.88-5.906-2.64-7.608-1.76-1.703-4.383-2.553-7.869-2.553-1.761 0-3.354 0.249-4.782 0.747-1.428 0.499-2.54 1.187-3.337 2.067-0.896 1.013-1.536 2.358-1.918 4.034-0.382 1.677-0.573 4.359-0.573 8.045 0 4.068 0.196 6.907 0.586 8.517 0.389 1.61 1.058 2.938 2.005 3.984 0.912 0.98 2.07 1.719 3.474 2.217 1.403 0.498 3.033 0.747 4.893 0.747 1.893 0 3.528-0.269 4.907-0.809 1.377-0.539 2.498-1.341 3.361-2.404 0.731-0.896 1.254-1.966 1.569-3.212 0.316-1.245 0.473-3.371 0.473-6.376v-3.461h-13.099c-0.017-0.083-0.025-0.191-0.025-0.324-0.067-1.212-0.1-2.058-0.1-2.54 0-2.026 0.216-3.433 0.648-4.221 0.431-0.788 1.171-1.183 2.217-1.183 0.912 0 1.602 0.303 2.066 0.909 0.465 0.606 0.698 1.523 0.698 2.752 0 0.249-0.025 0.631-0.075 1.146-0.017 0.099-0.025 0.182-0.025 0.249" clip-path="url(#clipPath8)"/>
   <path transform="matrix(1.3333 0 0 -1.3333 86.351 158.78)" d="m0 0c-2.076-0.581-3.59-1.303-4.545-2.166s-1.432-1.942-1.432-3.237c0-0.914 0.237-1.645 0.71-2.193s1.108-0.821 1.905-0.821c1.179 0 2.034 0.398 2.565 1.195s0.797 2.133 0.797 4.01zm1.021-13.871-0.473 2.64c-1.013-1.063-2.121-1.864-3.325-2.404-1.203-0.539-2.511-0.809-3.922-0.809-2.258 0-4.047 0.73-5.367 2.192-1.32 1.46-1.98 3.437-1.98 5.927 0 2.175 0.561 3.968 1.681 5.379 1.121 1.411 2.96 2.632 5.516 3.661 0.615 0.232 1.445 0.539 2.491 0.922 3.005 1.095 4.507 2.332 4.507 3.711 0 0.846-0.215 1.489-0.647 1.929s-1.055 0.661-1.868 0.661c-0.98 0-1.706-0.295-2.179-0.885-0.473-0.589-0.71-1.498-0.71-2.727v-0.199h-8.069c0 3.254 0.905 5.674 2.715 7.26 1.809 1.585 4.557 2.378 8.243 2.378 1.66 0 3.142-0.154 4.446-0.461 1.303-0.307 2.394-0.751 3.274-1.332 1.129-0.764 1.922-1.686 2.379-2.765 0.456-1.079 0.684-3.047 0.684-5.902v-11.107c0-2.259 0.079-3.981 0.237-5.168s0.419-2.154 0.785-2.901z" clip-path="url(#clipPath10)"/>
   <path transform="matrix(1.3333 0 0 -1.3333 100.96 165.09)" d="m0 0 7.197-0.024c0.083-1.495 0.374-2.587 0.872-3.276s1.245-1.033 2.242-1.033c0.796 0 1.452 0.236 1.967 0.71 0.514 0.473 0.772 1.083 0.772 1.83 0 0.647-0.179 1.183-0.536 1.606s-1.149 0.925-2.378 1.507c-0.266 0.133-0.681 0.332-1.245 0.598-2.906 1.345-4.931 2.606-6.077 3.785-0.814 0.797-1.436 1.727-1.868 2.789-0.431 1.063-0.647 2.175-0.647 3.338 0 2.623 0.892 4.715 2.677 6.275 1.785 1.561 4.196 2.341 7.235 2.341 3.154 0 5.582-0.751 7.284-2.254s2.553-3.657 2.553-6.463v-0.522l-7.048 0.024c-0.034 1.446-0.253 2.475-0.66 3.089s-1.067 0.921-1.98 0.921c-0.814 0-1.461-0.22-1.943-0.66-0.481-0.439-0.722-1.017-0.722-1.73 0-1.262 1.204-2.424 3.612-3.487 0.332-0.149 0.589-0.265 0.772-0.348 3.287-1.479 5.486-2.914 6.599-4.309 1.112-1.394 1.669-3.222 1.669-5.478 0-2.907-0.897-5.156-2.69-6.75-1.793-1.593-4.35-2.391-7.67-2.391-3.155 0-5.608 0.806-7.36 2.416s-2.627 3.868-2.627 6.774z" clip-path="url(#clipPath12)"/>
   <path transform="matrix(1.3333 0 0 -1.3333 128.69 138.86)" d="m0 0h7.969l2.815-18.554 2.839 18.554h7.969l-5.728-26.474c-1.096-5.08-2.325-8.355-3.686-9.824-1.362-1.47-3.528-2.204-6.5-2.204-0.432 0-0.917 0.024-1.457 0.074-0.539 0.05-1.158 0.125-1.855 0.225v6.026c0.033 0 0.083-8e-3 0.149-0.024 0.565-0.05 0.972-0.075 1.221-0.075 0.912 0 1.589 0.171 2.029 0.51 0.44 0.341 0.66 0.869 0.66 1.581 0 0.449-0.166 1.437-0.498 2.964-0.116 0.532-0.199 0.938-0.249 1.221z" clip-path="url(#clipPath14)"/>
  </g>
  <g fill="#d02427">
   <path transform="matrix(1.3333 0 0 -1.3333 176.71 162.17)" d="m0 0h7.919c0-0.149 9e-3 -0.345 0.025-0.585 0.017-0.241 0.025-0.42 0.025-0.535 0-3.687-0.855-6.438-2.565-8.256s-4.308-2.728-7.795-2.728c-3.935 0-6.703 1.118-8.305 3.35-1.603 2.233-2.404 6.172-2.404 11.817s0.806 9.588 2.416 11.83 4.375 3.362 8.293 3.362c3.52 0 6.11-0.901 7.77-2.702 1.661-1.802 2.491-4.612 2.491-8.43v-0.498h-7.77v0.821c0 1.727-0.187 2.955-0.56 3.687-0.374 0.73-1.001 1.096-1.881 1.096-1.013 0-1.698-0.491-2.055-1.47-0.357-0.98-0.535-3.545-0.535-7.696 0-3.984 0.178-6.52 0.535-7.608 0.357-1.087 1.025-1.631 2.005-1.631 0.847 0 1.465 0.386 1.856 1.158 0.389 0.772 0.585 1.997 0.585 3.673 0 0.133-8e-3 0.349-0.025 0.648s-0.025 0.531-0.025 0.697" clip-path="url(#clipPath16)"/>
   <path transform="matrix(1.3333 0 0 -1.3333 202.38 158.09)" d="m0 0c0-4.051 0.178-6.587 0.536-7.608 0.357-1.021 1.025-1.532 2.005-1.532 0.979 0 1.647 0.49 2.004 1.469 0.357 0.98 0.536 3.537 0.536 7.671s-0.179 6.695-0.536 7.683-1.025 1.482-2.004 1.482c-0.98 0-1.648-0.515-2.005-1.544-0.358-1.03-0.536-3.57-0.536-7.621m-8.168 0c0 5.611 0.805 9.547 2.416 11.805 1.609 2.258 4.374 3.386 8.293 3.386 3.917 0 6.682-1.12 8.292-3.362 1.611-2.241 2.416-6.184 2.416-11.829 0-5.612-0.805-9.543-2.416-11.792-1.61-2.25-4.375-3.375-8.292-3.375-3.936 0-6.704 1.117-8.306 3.35-1.603 2.233-2.403 6.171-2.403 11.817" clip-path="url(#clipPath18)"/>
   <path transform="matrix(1.3333 0 0 -1.3333 224.96 177.28)" d="m0 0v28.814h7.123v-3.412c0.863 1.378 1.826 2.387 2.889 3.026 1.062 0.639 2.316 0.959 3.76 0.959 1.311 0 2.445-0.341 3.399-1.021 0.955-0.681 1.689-1.669 2.205-2.964 0.863 1.362 1.838 2.366 2.926 3.014 1.088 0.647 2.337 0.971 3.748 0.971 2.141 0 3.706-0.74 4.694-2.217 0.987-1.478 1.483-3.835 1.483-7.072v-20.098h-7.697v18.255c0 2.058-0.144 3.357-0.435 3.897-0.291 0.539-0.793 0.81-1.506 0.81-0.864 0-1.541-0.441-2.03-1.32-0.49-0.88-0.736-2.092-0.736-3.636v-18.006h-7.545v18.255c0 2.058-0.141 3.357-0.424 3.897-0.282 0.539-0.788 0.81-1.519 0.81-0.846 0-1.515-0.441-2.004-1.32-0.49-0.88-0.735-2.092-0.735-3.636v-18.006z" clip-path="url(#clipPath20)"/>
   <path transform="matrix(1.3333 0 0 -1.3333 287.58 169.24)" d="m0 0c1.047 0 1.765 0.598 2.154 1.794 0.391 1.195 0.586 3.959 0.586 8.293 0 2.606-0.191 4.391-0.573 5.354-0.382 0.962-1.038 1.445-1.968 1.445-1.062 0-1.797-0.557-2.203-1.669-0.407-1.113-0.61-4.043-0.61-8.791 0-2.441 0.194-4.122 0.585-5.043 0.389-0.922 1.066-1.383 2.029-1.383m-10.459-15.714v38.502h7.396v-3.263c0.748 1.295 1.672 2.275 2.777 2.939 1.104 0.664 2.337 0.996 3.698 0.996 1.129 0 2.158-0.199 3.088-0.598 0.93-0.398 1.702-0.963 2.316-1.693 0.714-0.897 1.216-2.097 1.507-3.599 0.29-1.503 0.436-4.321 0.436-8.455 0-6.558-0.544-10.858-1.631-12.9-1.088-2.042-3.043-3.064-5.865-3.064-1.212 0-2.284 0.279-3.213 0.835-0.93 0.556-1.768 1.399-2.515 2.528v-12.228z" clip-path="url(#clipPath22)"/>
   <path transform="matrix(1.3333 0 0 -1.3333 316.71 158.09)" d="m0 0c0-4.051 0.178-6.587 0.535-7.608s1.026-1.532 2.005-1.532c0.98 0 1.648 0.49 2.005 1.469 0.356 0.98 0.535 3.537 0.535 7.671s-0.179 6.695-0.535 7.683c-0.357 0.988-1.025 1.482-2.005 1.482-0.979 0-1.648-0.515-2.005-1.544-0.357-1.03-0.535-3.57-0.535-7.621m-8.169 0c0 5.611 0.806 9.547 2.416 11.805s4.374 3.386 8.293 3.386c3.918 0 6.683-1.12 8.293-3.362 1.61-2.241 2.416-6.184 2.416-11.829 0-5.612-0.806-9.543-2.416-11.792-1.61-2.25-4.375-3.375-8.293-3.375-3.935 0-6.703 1.117-8.306 3.35-1.602 2.233-2.403 6.171-2.403 11.817" clip-path="url(#clipPath24)"/>
   <path transform="matrix(1.3333 0 0 -1.3333 336.96 165.09)" d="m0 0 7.197-0.024c0.082-1.495 0.373-2.587 0.871-3.276s1.245-1.033 2.242-1.033c0.796 0 1.453 0.236 1.967 0.71 0.515 0.473 0.773 1.083 0.773 1.83 0 0.647-0.179 1.183-0.536 1.606-0.358 0.423-1.15 0.925-2.378 1.507-0.266 0.133-0.682 0.332-1.245 0.598-2.907 1.345-4.932 2.606-6.078 3.785-0.813 0.797-1.435 1.727-1.867 2.789-0.432 1.063-0.647 2.175-0.647 3.338 0 2.623 0.891 4.715 2.677 6.275 1.784 1.561 4.196 2.341 7.234 2.341 3.154 0 5.583-0.751 7.285-2.254 1.701-1.503 2.553-3.657 2.553-6.463v-0.522l-7.048 0.024c-0.034 1.446-0.254 2.475-0.66 3.089-0.407 0.614-1.068 0.921-1.981 0.921-0.813 0-1.461-0.22-1.942-0.66-0.481-0.439-0.722-1.017-0.722-1.73 0-1.262 1.203-2.424 3.611-3.487 0.332-0.149 0.59-0.265 0.772-0.348 3.287-1.479 5.487-2.914 6.6-4.309 1.112-1.394 1.669-3.222 1.669-5.478 0-2.907-0.898-5.156-2.691-6.75-1.793-1.593-4.349-2.391-7.67-2.391-3.155 0-5.607 0.806-7.359 2.416s-2.627 3.868-2.627 6.774z" clip-path="url(#clipPath26)"/>
   <path transform="matrix(1.3333 0 0 -1.3333 0 226.77)" d="m275.83 65.935h7.994v-28.814h-7.994zm0 9.836h7.994v-6.974h-7.994z" clip-path="url(#clipPath28)"/>
   <path transform="matrix(1.3333 0 0 -1.3333 401.65 177.15)" d="m0 0c-0.98-0.183-1.835-0.319-2.565-0.411-0.731-0.091-1.354-0.137-1.869-0.137-1.593 0-2.951 0.258-4.071 0.773-1.121 0.513-1.947 1.253-2.478 2.215-0.349 0.664-0.594 1.498-0.735 2.503s-0.212 2.536-0.212 4.595v13.225h-3.112v5.952h3.112v7.969h8.094v-7.969h3.836v-5.952h-3.836v-11.755c0-2.508 0.183-4.052 0.548-4.633s1.071-0.871 2.117-0.871c0.183 0 0.482 0.024 0.897 0.074 0.116 0.017 0.207 0.026 0.274 0.026z" clip-path="url(#clipPath30)"/>
   <path transform="matrix(1.3333 0 0 -1.3333 415.66 152.87)" d="m0 0h5.404v0.149c0.066 0.731 0.1 1.246 0.1 1.544 0 1.411-0.229 2.453-0.686 3.125-0.456 0.673-1.166 1.009-2.129 1.009-0.979 0-1.68-0.328-2.104-0.983-0.423-0.656-0.635-1.74-0.635-3.25 0-0.415 4e-3 -0.74 0.012-0.972 9e-3 -0.232 0.021-0.439 0.038-0.622m5.205-8.193h7.546v-0.723c0-3.37-0.881-5.906-2.641-7.608-1.759-1.703-4.382-2.553-7.869-2.553-1.76 0-3.353 0.249-4.781 0.747-1.429 0.499-2.541 1.187-3.338 2.067-0.896 1.013-1.535 2.358-1.917 4.034-0.383 1.677-0.573 4.359-0.573 8.045 0 4.068 0.195 6.907 0.585 8.517s1.058 2.938 2.005 3.984c0.913 0.98 2.071 1.719 3.474 2.217s3.034 0.747 4.894 0.747c1.892 0 3.527-0.269 4.906-0.809 1.378-0.539 2.498-1.341 3.362-2.404 0.73-0.896 1.253-1.966 1.569-3.212 0.315-1.245 0.473-3.371 0.473-6.376v-3.461h-13.099c-0.017-0.083-0.026-0.191-0.026-0.324-0.066-1.212-0.099-2.058-0.099-2.54 0-2.026 0.216-3.433 0.647-4.221 0.432-0.788 1.171-1.183 2.217-1.183 0.913 0 1.602 0.303 2.067 0.909 0.464 0.606 0.698 1.523 0.698 2.752 0 0.249-0.026 0.631-0.076 1.146-0.016 0.099-0.024 0.182-0.024 0.249" clip-path="url(#clipPath32)"/>
   <path transform="matrix(1.3333 0 0 -1.3333 435.65 165.09)" d="m0 0 7.197-0.024c0.082-1.495 0.373-2.587 0.871-3.276s1.245-1.033 2.242-1.033c0.796 0 1.453 0.236 1.967 0.71 0.515 0.473 0.773 1.083 0.773 1.83 0 0.647-0.179 1.183-0.536 1.606-0.358 0.423-1.15 0.925-2.378 1.507-0.266 0.133-0.682 0.332-1.245 0.598-2.907 1.345-4.932 2.606-6.078 3.785-0.813 0.797-1.435 1.727-1.867 2.789-0.432 1.063-0.647 2.175-0.647 3.338 0 2.623 0.891 4.715 2.677 6.275 1.784 1.561 4.196 2.341 7.234 2.341 3.154 0 5.583-0.751 7.285-2.254 1.701-1.503 2.553-3.657 2.553-6.463v-0.522l-7.048 0.024c-0.034 1.446-0.254 2.475-0.66 3.089-0.407 0.614-1.068 0.921-1.981 0.921-0.813 0-1.461-0.22-1.942-0.66-0.481-0.439-0.722-1.017-0.722-1.73 0-1.262 1.203-2.424 3.611-3.487 0.332-0.149 0.59-0.265 0.772-0.348 3.287-1.479 5.487-2.914 6.6-4.309 1.112-1.394 1.669-3.222 1.669-5.478 0-2.907-0.898-5.156-2.691-6.75-1.793-1.593-4.349-2.391-7.67-2.391-3.155 0-5.607 0.806-7.359 2.416s-2.627 3.868-2.627 6.774z" clip-path="url(#clipPath34)"/>
  </g>
 </g>
</svg>
