<?xml version="1.0" standalone="no"?>
<!DOCTYPE svg PUBLIC "-//W3C//DTD SVG 20010904//EN"
 "http://www.w3.org/TR/2001/REC-SVG-20010904/DTD/svg10.dtd">
<svg version="1.0" xmlns="http://www.w3.org/2000/svg"
 width="1280.000000pt" height="247.000000pt" viewBox="0 0 1280.000000 247.000000"
 preserveAspectRatio="xMidYMid meet">

<g transform="translate(0.000000,247.000000) scale(0.100000,-0.100000)"
fill="#000000" stroke="none">
<path d="M3740 1886 c0 -154 1 -156 54 -156 39 0 124 -50 169 -100 43 -47 77
-126 77 -176 l0 -24 -150 0 c-173 0 -161 11 -134 -118 53 -257 278 -459 529
-474 l50 -3 3 148 3 147 -28 0 c-124 0 -273 148 -273 272 l0 28 144 0 c80 0
147 4 150 9 9 14 -13 132 -36 196 -49 140 -163 268 -295 331 -70 34 -180 63
-235 64 l-28 0 0 -144z"/>
<path d="M4810 1800 l0 -80 95 0 95 0 0 80 0 80 -95 0 -95 0 0 -80z"/>
<path d="M6033 1865 c-43 -19 -56 -47 -63 -140 l-5 -80 -91 -3 -91 -3 23 -47
c13 -26 25 -55 28 -64 4 -15 17 -18 71 -18 l65 0 0 -265 0 -265 90 0 90 0 0
265 0 265 80 0 80 0 0 65 0 65 -80 0 -80 0 0 44 c0 57 16 69 96 74 l64 4 0 59
0 59 -122 0 c-82 -1 -134 -5 -155 -15z"/>
<path d="M6400 1800 l0 -80 95 0 95 0 0 80 0 80 -95 0 -95 0 0 -80z"/>
<path d="M7490 1800 l0 -80 95 0 95 0 0 80 0 80 -95 0 -95 0 0 -80z"/>
<path d="M7888 1763 l-3 -118 -63 -3 -63 -3 3 -62 3 -62 63 -3 62 -3 0 -190
c0 -239 13 -278 105 -320 33 -15 66 -19 194 -19 l154 0 -41 44 c-22 23 -43 53
-47 65 -5 18 -14 21 -54 21 -62 0 -108 16 -123 44 -8 13 -14 83 -16 189 l-4
167 96 0 96 0 0 65 0 64 -92 3 -93 3 -3 118 -3 117 -84 0 -84 0 -3 -117z"/>
<path d="M7494 1641 c-2 -2 -4 -152 -4 -333 l0 -328 95 0 95 0 0 329 0 330
-91 3 c-50 2 -93 1 -95 -1z"/>
<path d="M4810 1310 l0 -330 95 0 95 0 0 330 0 330 -95 0 -95 0 0 -330z"/>
<path d="M5150 1310 l0 -330 85 0 85 0 0 260 0 260 89 0 c104 0 149 -13 162
-47 5 -13 9 -125 9 -249 l0 -225 88 3 87 3 0 245 c0 268 -3 289 -59 348 -49
53 -99 62 -338 62 l-208 0 0 -330z"/>
<path d="M6400 1310 l0 -330 95 0 95 0 0 330 0 330 -95 0 -95 0 0 -330z"/>
<path d="M6740 1310 l0 -330 85 0 85 0 0 260 0 260 89 0 c110 0 146 -12 160
-52 7 -18 11 -120 11 -249 l0 -219 85 0 85 0 0 253 c0 224 -3 257 -19 292 -46
99 -97 115 -371 115 l-210 0 0 -330z"/>
<path d="M8507 1623 c-71 -24 -141 -91 -168 -161 -25 -66 -31 -209 -11 -278
16 -54 59 -117 102 -149 61 -45 117 -55 307 -55 l173 0 0 65 0 65 -117 1
c-180 1 -231 10 -260 44 -24 27 -24 32 -21 161 4 185 -5 177 221 184 l172 5 3
68 3 67 -178 -1 c-136 0 -189 -4 -226 -16z"/>
<path d="M8567 1373 c-4 -3 -7 -35 -7 -70 l0 -63 175 0 175 0 0 70 0 70 -168
0 c-93 0 -172 -3 -175 -7z"/>
<path d="M4860 597 c-41 -21 -33 -56 20 -87 53 -31 65 -65 28 -79 -13 -5 -33
-5 -47 1 -13 5 -26 6 -29 4 -3 -3 8 -10 23 -16 73 -28 121 51 54 88 -17 9 -41
24 -52 33 -19 15 -20 19 -7 34 11 13 24 16 53 12 22 -3 36 -2 31 3 -18 16 -50
19 -74 7z"/>
<path d="M5014 515 c0 -55 1 -76 3 -47 2 29 2 74 0 100 -2 26 -3 2 -3 -53z"/>
<path d="M6014 515 c0 -55 1 -76 3 -47 2 29 2 74 0 100 -2 26 -3 2 -3 -53z"/>
<path d="M6133 600 c-30 -12 -43 -41 -43 -93 0 -58 25 -90 69 -90 49 0 76 33
76 93 0 36 -5 55 -20 69 -26 24 -54 32 -82 21z m69 -27 c24 -28 30 -60 18 -97
-12 -38 -45 -57 -77 -45 -67 25 -53 159 16 159 15 0 35 -8 43 -17z"/>
<path d="M6592 594 c-34 -24 -25 -53 28 -84 53 -31 65 -65 28 -79 -13 -5 -33
-5 -47 1 -13 5 -26 6 -29 4 -3 -3 8 -10 24 -17 42 -16 79 6 79 46 0 24 -7 33
-34 47 -54 27 -67 44 -51 64 11 12 24 15 53 11 42 -6 39 7 -3 18 -16 3 -34 0
-48 -11z"/>
<path d="M6922 594 c-34 -24 -25 -53 28 -84 53 -31 65 -65 28 -79 -13 -5 -33
-5 -47 1 -13 5 -26 6 -29 4 -3 -3 8 -10 24 -17 42 -16 79 6 79 46 0 24 -7 33
-34 47 -54 27 -67 44 -51 64 11 12 24 15 53 11 42 -6 39 7 -3 18 -16 3 -34 0
-48 -11z"/>
<path d="M7654 600 c-50 -20 -37 -67 25 -95 31 -14 41 -24 41 -42 0 -29 -34
-44 -69 -31 -34 12 -37 3 -3 -11 36 -15 78 -1 87 29 8 26 -7 46 -57 71 -30 15
-39 25 -36 42 3 19 9 22 46 21 23 0 39 2 35 6 -15 14 -48 19 -69 10z"/>
<path d="M5092 508 l2 -93 5 75 6 75 32 -75 32 -75 15 38 c9 20 24 54 33 75
l17 37 6 -75 6 -75 2 93 c1 50 -2 92 -7 92 -5 0 -22 -32 -37 -71 -15 -38 -30
-72 -34 -74 -3 -2 -19 30 -35 71 -17 40 -33 74 -37 74 -5 0 -7 -42 -6 -92z"/>
<path d="M5312 524 c3 -66 7 -79 28 -96 16 -13 32 -17 49 -13 42 10 51 32 49
114 l-2 76 -3 -78 c-3 -69 -6 -79 -28 -93 -23 -15 -27 -15 -50 0 -23 15 -25
23 -25 91 0 48 -4 75 -11 75 -8 0 -10 -25 -7 -76z"/>
<path d="M5512 513 l-2 -93 53 2 52 2 -47 3 -47 4 -4 87 -3 87 -2 -92z"/>
<path d="M5692 510 c-17 -49 -27 -90 -23 -90 5 0 12 11 15 25 5 21 12 25 46
25 35 0 42 -4 51 -26 5 -15 12 -25 14 -22 3 3 -6 36 -19 74 -32 93 -37 104
-45 104 -4 0 -22 -40 -39 -90z m61 18 l16 -48 -36 0 c-32 0 -35 2 -29 25 9 36
26 78 30 74 2 -2 10 -25 19 -51z"/>
<path d="M5857 593 l32 -4 4 -87 3 -87 2 87 c2 86 2 87 30 91 15 2 -2 4 -38 4
-36 0 -51 -2 -33 -4z"/>
<path d="M6302 508 l2 -93 5 80 6 80 39 -63 c21 -34 41 -60 44 -58 6 6 -81
145 -90 146 -5 0 -7 -42 -6 -92z"/>
<path d="M6409 525 c-1 -41 -2 -80 -3 -87 -1 -6 5 -13 12 -15 9 -4 12 18 12
86 0 111 -19 125 -21 16z"/>
<path d="M6730 595 c0 -5 11 -28 25 -50 16 -26 24 -55 25 -82 0 -24 5 -43 10
-43 6 0 10 18 10 40 0 25 10 57 30 90 16 27 26 50 22 50 -4 0 -19 -21 -34 -47
l-26 -47 -19 33 c-25 45 -42 68 -43 56z"/>
<path d="M7083 593 c27 -4 27 -4 27 -89 0 -49 4 -84 10 -84 6 0 10 35 10 84 0
85 0 85 28 89 15 2 -2 4 -38 4 -36 0 -53 -2 -37 -4z"/>
<path d="M7240 510 l0 -90 58 2 57 2 -52 3 -53 4 0 39 c0 35 3 39 28 43 l27 4
-27 2 c-25 1 -28 5 -28 35 0 34 1 35 48 39 l47 3 -52 2 -53 2 0 -90z"/>
<path d="M7402 508 l2 -93 6 75 6 75 17 -37 c9 -21 24 -55 33 -75 l15 -38 32
75 32 75 6 -75 5 -75 2 93 c1 50 -1 92 -6 92 -4 0 -20 -34 -36 -75 -16 -41
-32 -73 -35 -70 -4 2 -20 36 -35 74 -15 39 -32 71 -37 71 -5 0 -8 -42 -7 -92z"/>
</g>
</svg>
