<?xml version="1.0" encoding="UTF-8" standalone="no"?>
<svg
   width="284"
   height="75"
   viewBox="0 0 284 75"
   fill="none"
   version="1.1"
   id="svg14"
   xmlns="http://www.w3.org/2000/svg"
   xmlns:svg="http://www.w3.org/2000/svg">
  <defs
     id="defs14" />
  <path
     d="M 16.4255,37.5041 H 0.0947266 C 0.105047,46.2091 3.56764,54.5546 9.72301,60.7098 15.8784,66.865 24.2238,70.3276 32.9287,70.3378 V 54.0069 C 28.5534,54.0023 24.3585,52.2621 21.2645,49.1683 18.1706,46.0745 16.4303,41.8796 16.4255,37.5041 Z"
     fill="#e51a38"
     id="path1" />
  <path
     d="M 16.5028,37.5031 H 32.8336 C 32.8233,28.7983 29.3608,20.4529 23.2054,14.2977 17.0502,8.14242 8.70485,4.67986 0,4.66953 V 21.0003 c 4.37536,0.0048 8.57015,1.7451 11.664,4.8389 3.0939,3.0938 4.834,7.2886 4.8388,11.6639 z"
     fill="#e51a38"
     id="path2" />
  <path
     d="M 68.7725,25.9139 H 58.6997 v 36.3503 h 10.0728 z"
     fill="white"
     id="path3"
     style="fill:#000000;fill-opacity:1" />
  <path
     d="M 68.7725,12.7414 H 58.6997 v 9.0291 h 10.0728 z"
     fill="white"
     id="path4"
     style="fill:#000000;fill-opacity:1" />
  <path
     d="M 95.116,25.9153 H 77.0601 v 36.3503 h 9.6002 V 33.8983 h 7.7147 c 1.7878,-0.2148 3.5934,0.2216 5.0857,1.2296 1.0373,1.5505 1.4803,3.4229 1.2483,5.2739 v 21.8638 h 9.6 v -23.043 c 0,-4.7851 -1.168,-8.1993 -3.503,-10.2426 -2.335,-2.0431 -6.232,-3.0647 -11.69,-3.0647 z"
     fill="white"
     id="path5"
     style="fill:#000000;fill-opacity:1" />
  <path
     d="m 123.818,14.6798 c -1.369,1.2915 -2.054,3.7896 -2.055,7.4944 v 3.7414 h -10.86 c 2.15,1.8415 3.52,4.4295 3.836,7.2422 l 0.119,-0.0184 v 0.0184 h 6.905 v 29.1059 h 9.938 V 33.1578 h 9.095 v -7.2422 h -9.095 v -2.8973 c -0.045,-0.4737 0.029,-0.9512 0.214,-1.3896 0.186,-0.4382 0.477,-0.8238 0.848,-1.1223 1.062,-0.5912 2.275,-0.8547 3.486,-0.7569 h 4.547 v -7.0081 h -9.095 c -3.884,0 -6.512,0.6461 -7.883,1.9384 z"
     fill="white"
     id="path6"
     style="fill:#000000;fill-opacity:1" />
  <path
     d="m 155.585,25.9139 h -10.072 v 36.3503 h 10.072 z"
     fill="white"
     id="path7"
     style="fill:#000000;fill-opacity:1" />
  <path
     d="m 155.585,12.7414 h -10.072 v 9.0291 h 10.072 z"
     fill="white"
     id="path8"
     style="fill:#000000;fill-opacity:1" />
  <path
     d="m 181.93,25.9153 h -18.055 v 36.3503 h 9.6 V 33.8983 h 7.714 c 1.788,-0.2144 3.595,0.222 5.088,1.2296 1.036,1.5509 1.479,3.4232 1.246,5.2739 v 21.8638 h 9.6 v -23.043 c 0,-4.7851 -1.168,-8.1993 -3.503,-10.2426 -2.335,-2.0431 -6.232,-3.0647 -11.69,-3.0647 z"
     fill="white"
     id="path9"
     style="fill:#000000;fill-opacity:1" />
  <path
     d="m 215.349,12.7414 h -10.074 v 9.0291 h 10.074 z"
     fill="white"
     id="path10"
     style="fill:#000000;fill-opacity:1" />
  <path
     d="m 215.349,25.9139 h -10.074 v 36.3503 h 10.074 z"
     fill="white"
     id="path11"
     style="fill:#000000;fill-opacity:1" />
  <path
     d="m 246.546,55.0237 0.005,0.266 -0.007,0.0139 v -0.2822 h -3.941 c -0.868,0.0937 -1.747,0.0024 -2.576,-0.2676 -0.831,-0.27 -1.595,-0.7128 -2.241,-1.2992 -1.093,-1.6549 -1.581,-3.6359 -1.382,-5.6087 V 33.1575 h 10.14 v -7.242 h -10.14 V 12.7434 h -9.6 v 13.1721 h -6.771 v 7.242 h 6.771 v 17.7209 c -0.104,1.5286 0.095,3.0627 0.586,4.514 0.491,1.4512 1.265,2.7909 2.277,3.9417 1.08,1.019 2.358,1.805 3.754,2.3094 1.397,0.5043 2.883,0.7162 4.365,0.6222 h 14.252 c -2.596,-1.7237 -4.532,-4.2766 -5.492,-7.242 z"
     fill="white"
     id="path12"
     style="fill:#000000;fill-opacity:1" />
  <path
     d="m 262.478,53.3884 c -0.67,-0.7128 -1.178,-1.5624 -1.488,-2.4904 -0.31,-0.9279 -0.414,-1.9121 -0.307,-2.8844 v -7.6069 c -0.03,-1.1129 0.137,-2.2225 0.491,-3.278 0.283,-0.8151 0.78,-1.5392 1.439,-2.0968 2.143,-1.2201 4.612,-1.7405 7.066,-1.4886 h 12.744 V 25.9387 H 268.36 c -2.475,-0.1759 -4.958,0.1446 -7.307,0.9427 -2.348,0.7981 -4.513,2.0578 -6.368,3.7049 -1.656,1.8359 -2.925,3.9876 -3.731,6.326 -0.803,2.3383 -1.127,4.8152 -0.95,7.2818 0,5.9942 1.553,10.5293 4.662,13.6056 1.863,1.6396 4.032,2.8923 6.382,3.6847 2.352,0.7925 4.837,1.1088 7.312,0.9307 h 14.063 V 54.8083 H 269.61 c -2.467,0.2727 -4.957,-0.2233 -7.132,-1.4199 z"
     fill="white"
     id="path13"
     style="fill:#000000;fill-opacity:1" />
  <path
     d="m 282.424,40.4062 h -18.607 v 7.6068 h 18.607 z"
     fill="white"
     id="path14"
     style="fill:#000000;fill-opacity:1" />
</svg>
