<?xml version="1.0" encoding="UTF-8"?>
<svg width="2560" height="1440" version="1.1" viewBox="0 0 2560 1440" xmlns="http://www.w3.org/2000/svg" xmlns:xlink="http://www.w3.org/1999/xlink">
 <defs>
  <clipPath id="clipPath2">
   <path transform="translate(-1749.3 -256.92)" d="m0 1080h1920v-1080h-1920z"/>
  </clipPath>
  <clipPath id="clipPath4">
   <path transform="translate(-1787.4 -177.48)" d="m0 1080h1920v-1080h-1920z"/>
  </clipPath>
  <clipPath id="clipPath6">
   <path transform="translate(-1506.4 -174.45)" d="m0 1080h1920v-1080h-1920z"/>
  </clipPath>
  <clipPath id="clipPath8">
   <path transform="translate(-1665.9 -175.4)" d="m0 1080h1920v-1080h-1920z"/>
  </clipPath>
  <clipPath id="clipPath10">
   <path transform="translate(-1665.9 -269.81)" d="m0 1080h1920v-1080h-1920z"/>
  </clipPath>
  <clipPath id="clipPath12">
   <path transform="translate(-1680.2 -192.49)" d="m0 1080h1920v-1080h-1920z"/>
  </clipPath>
  <clipPath id="clipPath14">
   <path transform="translate(-1591.7 -256.92)" d="m0 1080h1920v-1080h-1920z"/>
  </clipPath>
  <clipPath id="clipPath16">
   <path transform="translate(-1405.8 -177.48)" d="m0 1080h1920v-1080h-1920z"/>
  </clipPath>
  <clipPath id="clipPath18">
   <path transform="translate(-1099.4 -177.48)" d="m0 1080h1920v-1080h-1920z"/>
  </clipPath>
  <clipPath id="clipPath20">
   <path d="m0 1080h1920v-1080h-1920z"/>
  </clipPath>
  <clipPath id="clipPath22">
   <path transform="translate(-933.57 -177.48)" d="m0 1080h1920v-1080h-1920z"/>
  </clipPath>
  <clipPath id="clipPath24">
   <path transform="translate(-966.17 -177.48)" d="m0 1080h1920v-1080h-1920z"/>
  </clipPath>
  <clipPath id="clipPath26">
   <path transform="translate(-1314.9 -177.48)" d="m0 1080h1920v-1080h-1920z"/>
  </clipPath>
  <clipPath id="clipPath28">
   <path transform="translate(-1253 -206.89)" d="m0 1080h1920v-1080h-1920z"/>
  </clipPath>
  <clipPath id="clipPath30">
   <path transform="translate(-1194.3 -175.4)" d="m0 1080h1920v-1080h-1920z"/>
  </clipPath>
  <clipPath id="clipPath32">
   <path transform="translate(-1194.3 -269.81)" d="m0 1080h1920v-1080h-1920z"/>
  </clipPath>
  <clipPath id="clipPath34">
   <path transform="translate(-1226.2 -241.1)" d="m0 1080h1920v-1080h-1920z"/>
  </clipPath>
  <clipPath id="clipPath36">
   <path transform="translate(-837.6 -175.4)" d="m0 1080h1920v-1080h-1920z"/>
  </clipPath>
  <clipPath id="clipPath38">
   <path transform="translate(-837.59 -269.81)" d="m0 1080h1920v-1080h-1920z"/>
  </clipPath>
  <clipPath id="clipPath40">
   <path transform="translate(-869.58 -241.1)" d="m0 1080h1920v-1080h-1920z"/>
  </clipPath>
  <clipPath id="clipPath42">
   <path transform="translate(-618.16 -175.4)" d="m0 1080h1920v-1080h-1920z"/>
  </clipPath>
  <clipPath id="clipPath44">
   <path transform="translate(-352.94 -175.4)" d="m0 1080h1920v-1080h-1920z"/>
  </clipPath>
  <clipPath id="clipPath46">
   <path transform="translate(-292.4 -256.93)" d="m0 1080h1920v-1080h-1920z"/>
  </clipPath>
  <clipPath id="clipPath48">
   <path transform="translate(-429.32 -174.45)" d="m0 1080h1920v-1080h-1920z"/>
  </clipPath>
  <clipPath id="clipPath50">
   <path transform="translate(-515.97 -218.03)" d="m0 1080h1920v-1080h-1920z"/>
  </clipPath>
  <clipPath id="clipPath52">
   <path d="m0 1080h1920v-1080h-1920z"/>
  </clipPath>
  <clipPath id="clipPath54">
   <path d="m0 1080h1920v-1080h-1920z"/>
  </clipPath>
  <clipPath id="clipPath56">
   <path transform="translate(-198.69 -177.48)" d="m0 1080h1920v-1080h-1920z"/>
  </clipPath>
  <clipPath id="clipPath58">
   <path transform="translate(-712.6 -177.48)" d="m0 1080h1920v-1080h-1920z"/>
  </clipPath>
  <clipPath id="clipPath60">
   <path d="m0 1080h1920v-1080h-1920z"/>
  </clipPath>
  <clipPath id="clipPath62">
   <path transform="translate(-334.13 -824.51)" d="m0 1080h1920v-1080h-1920z"/>
  </clipPath>
  <clipPath id="clipPath64">
   <path transform="translate(-463.19 -600.73)" d="m0 1080h1920v-1080h-1920z"/>
  </clipPath>
  <clipPath id="clipPath66">
   <path transform="translate(-205.05 -600.73)" d="m0 1080h1920v-1080h-1920z"/>
  </clipPath>
  <clipPath id="clipPath68">
   <path transform="translate(-624.4 -727.21)" d="m0 1080h1920v-1080h-1920z"/>
  </clipPath>
  <clipPath id="clipPath70">
   <path d="m0 1080h1920v-1080h-1920z"/>
  </clipPath>
  <clipPath id="clipPath72">
   <path transform="translate(-729.65 -712.58)" d="m0 1080h1920v-1080h-1920z"/>
  </clipPath>
  <clipPath id="clipPath74">
   <path transform="translate(-800.4 -777.98)" d="m0 1080h1920v-1080h-1920z"/>
  </clipPath>
  <clipPath id="clipPath76">
   <path transform="translate(-877.98 -741.86)" d="m0 1080h1920v-1080h-1920z"/>
  </clipPath>
  <clipPath id="clipPath78">
   <path transform="translate(-902.99 -719.92)" d="m0 1080h1920v-1080h-1920z"/>
  </clipPath>
  <clipPath id="clipPath80">
   <path d="m0 1080h1920v-1080h-1920z"/>
  </clipPath>
  <clipPath id="clipPath82">
   <path transform="translate(-1023.7 -777.98)" d="m0 1080h1920v-1080h-1920z"/>
  </clipPath>
  <clipPath id="clipPath84">
   <path transform="translate(-1044.2 -790.92)" d="m0 1080h1920v-1080h-1920z"/>
  </clipPath>
  <clipPath id="clipPath86">
   <path d="m0 1080h1920v-1080h-1920z"/>
  </clipPath>
  <clipPath id="clipPath88">
   <path transform="translate(-649.15 -613.11)" d="m0 1080h1920v-1080h-1920z"/>
  </clipPath>
  <clipPath id="clipPath90">
   <path transform="translate(-658.12 -679.03)" d="m0 1080h1920v-1080h-1920z"/>
  </clipPath>
  <clipPath id="clipPath92">
   <path transform="translate(-742.02 -608.01)" d="m0 1080h1920v-1080h-1920z"/>
  </clipPath>
  <clipPath id="clipPath94">
   <path transform="translate(-833.76 -615.36)" d="m0 1080h1920v-1080h-1920z"/>
  </clipPath>
  <clipPath id="clipPath96">
   <path d="m0 1080h1920v-1080h-1920z"/>
  </clipPath>
  <clipPath id="clipPath98">
   <path transform="translate(-979.48 -613.11)" d="m0 1080h1920v-1080h-1920z"/>
  </clipPath>
  <clipPath id="clipPath100">
   <path transform="translate(-1000.9 -628.59)" d="m0 1080h1920v-1080h-1920z"/>
  </clipPath>
  <clipPath id="clipPath102">
   <path transform="translate(-1072.2 -608.01)" d="m0 1080h1920v-1080h-1920z"/>
  </clipPath>
  <clipPath id="clipPath104">
   <path transform="translate(-642.52 -552.79)" d="m0 1080h1920v-1080h-1920z"/>
  </clipPath>
  <clipPath id="clipPath106">
   <path transform="translate(-673.66 -532.59)" d="m0 1080h1920v-1080h-1920z"/>
  </clipPath>
  <clipPath id="clipPath108">
   <path transform="translate(-764.32 -561.89)" d="m0 1080h1920v-1080h-1920z"/>
  </clipPath>
  <clipPath id="clipPath110">
   <path transform="translate(-873.63 -518.08)" d="m0 1080h1920v-1080h-1920z"/>
  </clipPath>
  <clipPath id="clipPath112">
   <path transform="translate(-897.67 -532.59)" d="m0 1080h1920v-1080h-1920z"/>
  </clipPath>
 </defs>
 <g>
  <g>
   <path transform="matrix(1.3333 0 0 -1.3333 2332.4 1097.4)" d="m0 0h-21.27v-32.285h21.27c9.507 0 15.97 6.576 15.97 16.081 0 9.506-6.463 16.204-15.97 16.204m-0.74-43.205h-20.53v-36.241h-12.189v90.244h32.719c17.619 0 28.897-11.286 28.897-27.002 0-15.715-11.278-27.001-28.897-27.001" clip-path="url(#clipPath2)"/>
   <path transform="matrix(1.3333 0 0 -1.3333 2383.2 1203.4)" d="m0 0v90.24h54.292v-10.794h-42.105v-28.613h39.019v-10.668h-39.019v-29.374h42.105v-10.791z" clip-path="url(#clipPath4)"/>
   <path transform="matrix(1.3333 0 0 -1.3333 2008.5 1207.4)" d="m0 0c-19.711 0-31.617 13.095-31.617 31.33v61.94h12.235v-61.627c0-13.106 7.553-20.458 19.382-20.458 11.695 0 19.508 7.352 19.508 20.458v61.627h12.235v-61.94c0-18.235-12.097-31.33-31.743-31.33" clip-path="url(#clipPath6)"/>
   <path transform="matrix(1.3333 0 0 -1.3333 2221.2 1206.1)" d="m0 0" clip-path="url(#clipPath8)"/>
   <path transform="matrix(1.3333 0 0 -1.3333 2221.2 1080.3)" d="m0 0h1e-3z" clip-path="url(#clipPath10)"/>
   <path transform="matrix(1.3333 0 0 -1.3333 2240.2 1183.3)" d="m0 0c-3.505-3.755-8.247-5.905-14.289-5.905h-1e-3 1e-3c-6.041 0-10.784 2.15-14.29 5.905-4.803 5.148-5.971 10.572-5.971 30.114 0 19.545 1.168 24.969 5.971 30.113 3.506 3.755 8.249 5.909 14.29 5.909 6.042 0 10.784-2.154 14.289-5.909 4.801-5.144 5.972-10.568 5.972-30.113 0-19.542-1.171-24.966-5.972-30.114m18.559 30.114c0 17.765 0.041 28.788-9.025 37.644-6.165 6.024-14.414 9.563-23.823 9.563-9.413 0-17.66-3.539-23.824-9.563-9.065-8.856-9.024-19.879-9.024-37.644 0-17.766-0.041-28.786 9.024-37.645 6.164-6.02 14.411-9.559 23.824-9.559 9.409 0 17.658 3.539 23.823 9.559 9.066 8.859 9.025 19.879 9.025 37.645" clip-path="url(#clipPath12)"/>
   <path transform="matrix(1.3333 0 0 -1.3333 2122.3 1097.4)" d="m0 0h-21.777v-30.512h21.777c9.128 0 15.337 6.321 15.337 15.191 0 8.874-6.209 15.321-15.337 15.321m16.593-79.446-19.384 38.775h-18.986v-38.775h-12.19v90.244h33.482c17.437 0 28.012-11.085 28.012-25.989 0-12.93-8.181-21.51-18.28-23.656l21.067-40.599z" clip-path="url(#clipPath14)"/>
   <path transform="matrix(1.3333 0 0 -1.3333 1874.4 1203.4)" d="m0 0v90.24h54.293v-10.794h-42.104v-28.613h39.019v-10.668h-39.019v-29.374h42.104v-10.791z" clip-path="url(#clipPath16)"/>
   <path transform="matrix(1.3333 0 0 -1.3333 1465.8 1203.4)" d="m0 0v63.328l-20.974-46.981h-8.639l-21.48 46.981v-63.328h-12.189v90.24h11.439l26.55-58.587 26.045 58.587h11.437v-90.24z" clip-path="url(#clipPath18)"/>
   <path transform="matrix(1.3333 0 0 -1.3333 0 1440)" d="m1132 267.72h12.375v-90.24h-12.375z" clip-path="url(#clipPath20)"/>
   <path transform="matrix(1.3333 0 0 -1.3333 1244.8 1203.4)" d="m0 0v40.168h-36.629v-40.168h-12.187v90.24h12.187v-39.281h36.629v39.281h12.19v-90.24z" clip-path="url(#clipPath22)"/>
   <path transform="matrix(1.3333 0 0 -1.3333 1288.2 1203.4)" d="m0 0v90.24h54.293v-10.794h-42.104v-28.609h39.017v-10.669h-39.017v-29.374h42.104v-10.794z" clip-path="url(#clipPath24)"/>
   <path transform="matrix(1.3333 0 0 -1.3333 1753.2 1203.4)" d="m0 0v90.24h12.375v-79.446h44.036v-10.794z" clip-path="url(#clipPath26)"/>
   <path transform="matrix(1.3333 0 0 -1.3333 1670.6 1164.1)" d="m0 0 14.832 44.174 14.904-44.174zm39.66-29.414h12.7l-32.235 90.24h-10.465l-32.235-90.24h12.698l6.465 19.255h36.577z" clip-path="url(#clipPath28)"/>
   <path transform="matrix(1.3333 0 0 -1.3333 1592.3 1206.1)" d="m0 0h-2e-3z" clip-path="url(#clipPath30)"/>
   <path transform="matrix(1.3333 0 0 -1.3333 1592.3 1080.3)" d="m0 0h4e-3z" clip-path="url(#clipPath32)"/>
   <path transform="matrix(1.3333 0 0 -1.3333 1635 1118.5)" d="m0 0c-0.395 6.307-2.753 13.863-8.165 19.147-6.165 6.024-14.412 9.559-23.82 9.563-9.413-4e-3 -17.661-3.539-23.825-9.563-9.067-8.856-9.024-19.879-9.024-37.644s-0.043-28.786 9.024-37.645c6.164-6.023 14.412-9.559 23.825-9.559 9.408 0 17.655 3.536 23.82 9.559 5.415 5.291 7.634 12.341 8.176 19.162l-12.582-4e-3c-0.337-4.34-2.391-8.691-5.128-11.627-3.503-3.755-8.247-5.908-14.286-5.908h-4e-3 4e-3c-6.042 0-10.785 2.153-14.291 5.908-4.801 5.148-5.973 10.572-5.973 30.114 0 19.545 1.172 24.966 5.973 30.113 3.506 3.755 8.249 5.909 14.291 5.909h-2e-3 2e-3c6.039 0 10.783-2.154 14.286-5.909 2.734-2.929 4.543-6.716 5.125-11.616z" clip-path="url(#clipPath34)"/>
   <path transform="matrix(1.3333 0 0 -1.3333 1116.8 1206.1)" d="m0 0h-3e-3z" clip-path="url(#clipPath36)"/>
   <path transform="matrix(1.3333 0 0 -1.3333 1116.8 1080.3)" d="m0 0h3e-3z" clip-path="url(#clipPath38)"/>
   <path transform="matrix(1.3333 0 0 -1.3333 1159.4 1118.5)" d="m0 0c-0.395 6.307-2.751 13.863-8.163 19.147-6.167 6.024-14.414 9.559-23.823 9.563-9.412-4e-3 -17.659-3.539-23.824-9.563-9.067-8.856-9.024-19.879-9.024-37.644s-0.043-28.786 9.024-37.645c6.165-6.023 14.412-9.559 23.824-9.559 9.409 0 17.656 3.536 23.823 9.559 5.413 5.291 7.632 12.341 8.174 19.162l-12.582-4e-3c-0.337-4.34-2.391-8.691-5.128-11.627-3.503-3.755-8.247-5.908-14.287-5.908h-3e-3 3e-3c-6.041 0-10.784 2.153-14.288 5.908-4.803 5.148-5.975 10.572-5.975 30.114 0 19.545 1.172 24.966 5.975 30.113 3.504 3.755 8.247 5.909 14.288 5.909h-3e-3 3e-3c6.04 0 10.784-2.154 14.287-5.909 2.734-2.929 4.543-6.716 5.126-11.616z" clip-path="url(#clipPath40)"/>
   <path transform="matrix(1.3333 0 0 -1.3333 824.21 1206.1)" d="m0 0c-19.431 0-30.731 11.505-30.731 28.725h11.98c0-10.371 6.266-17.54 18.751-17.54 12.183 0 18.887 5.6 18.887 15.317 0 8.526-3.68 11.972-19.777 15.612-20.14 4.551-28.447 11.96-28.447 27.407 0 16.164 12.69 24.901 29.391 24.901 19.212 0 28.242-11.027 28.242-24.754h-11.931c0 6.615-4.017 13.949-16.392 13.949-9.674 0-17.06-3.733-17.06-13.59 0-9.771 6.06-13.354 22.371-17.259 18.307-4.387 26.106-11.623 26.106-25.889 0-17.826-12.593-26.879-31.39-26.879" clip-path="url(#clipPath42)"/>
   <path transform="matrix(1.3333 0 0 -1.3333 470.59 1206.1)" d="m0 0c-19.431 0-30.729 11.505-30.729 28.725h11.98c0-10.371 6.264-17.54 18.749-17.54 12.183 0 18.888 5.6 18.888 15.317 0 8.526-3.679 11.972-19.776 15.612-20.14 4.551-28.447 11.96-28.447 27.407 0 16.164 12.688 24.901 29.391 24.901 19.211 0 28.241-11.027 28.241-24.754h-11.932c0 6.615-4.017 13.949-16.392 13.949-9.674 0-17.06-3.733-17.06-13.59 0-9.771 6.061-13.354 22.373-17.259 18.307-4.387 26.105-11.623 26.105-25.889 0-17.826-12.592-26.879-31.391-26.879" clip-path="url(#clipPath44)"/>
   <path transform="matrix(1.3333 0 0 -1.3333 389.87 1097.4)" d="m0 0v-79.45h-12.377v79.45h-24.842v10.794h62.059v-10.794z" clip-path="url(#clipPath46)"/>
   <path transform="matrix(1.3333 0 0 -1.3333 572.42 1207.4)" d="m0 0c-19.709 0-31.616 13.102-31.616 31.33v61.943h12.235v-61.627c0-13.102 7.553-20.457 19.381-20.457 11.697 0 19.51 7.355 19.51 20.457v61.627h12.235v-61.943c0-18.228-12.095-31.33-31.745-31.33" clip-path="url(#clipPath48)"/>
   <path transform="matrix(1.3333 0 0 -1.3333 687.96 1149.3)" d="m0 0h-23.141v-29.751h23.141c9.505 0 14.829 7.33 14.829 15.313 0 7.984-5.324 14.438-14.829 14.438m-1.267 38.901h-21.874v-28.107h21.874c8.744 0 14.701 5.313 14.701 13.68 0 8.364-5.957 14.427-14.701 14.427m0.987-79.45h-35.001v90.244h33.606c16.732 0 27.251-9.505 27.251-24.718 0-9.757-6.084-16.728-12.167-19.137 6.969-2.789 13.56-9.505 13.56-20.91 0-16.605-11.279-25.479-27.249-25.479" clip-path="url(#clipPath50)"/>
   <path transform="matrix(1.3333 0 0 -1.3333 0 1440)" d="m560.05 267.72h12.377v-90.244h-12.377z" clip-path="url(#clipPath52)"/>
   <path transform="matrix(1.3333 0 0 -1.3333 0 1440)" d="m231.33 267.72h12.375v-90.244h-12.375z" clip-path="url(#clipPath54)"/>
   <path transform="matrix(1.3333 0 0 -1.3333 264.92 1203.4)" d="m0 0v63.332l-20.974-46.981h-8.639l-21.482 46.981v-63.332h-12.187v90.244h11.439l26.548-58.587 26.045 58.587h11.437v-90.244z" clip-path="url(#clipPath56)"/>
   <path transform="matrix(1.3333 0 0 -1.3333 950.14 1203.4)" d="m0 0v40.168h-36.629v-40.168h-12.189v90.244h12.189v-39.282h36.629v39.282h12.189v-90.244z" clip-path="url(#clipPath58)"/>
   <path transform="matrix(1.3333 0 0 -1.3333 0 1440)" d="m745.2 267.72h12.375v-90.244h-12.375z" clip-path="url(#clipPath60)"/>
  </g>
  <g fill="#ed2024">
   <path transform="matrix(1.3333 0 0 -1.3333 445.51 340.65)" d="m0 0-64.527-111.93 64.527-111.85 64.507 111.85z" clip-path="url(#clipPath62)"/>
   <path transform="matrix(1.3333 0 0 -1.3333 617.58 639.03)" d="m0 0 64.568-111.87h-129.13l-64.497 111.87z" clip-path="url(#clipPath64)"/>
   <path transform="matrix(1.3333 0 0 -1.3333 273.41 639.03)" d="m0 0-64.548-111.87h129.11l64.517 111.87z" clip-path="url(#clipPath66)"/>
  </g>
  <g>
   <path transform="matrix(1.3333 0 0 -1.3333 832.53 470.39)" d="m0 0 26.416 63.703h12.168v-78.334h-7.954v67.765h-0.242l-28.296-67.765h-4.204l-28.266 67.765h-0.242v-67.765h-7.954v78.334h12.178z" clip-path="url(#clipPath68)"/>
   <path transform="matrix(1.3333 0 0 -1.3333 0 1440)" d="m680.34 712.58h7.954v78.334h-7.954z" clip-path="url(#clipPath70)"/>
   <path transform="matrix(1.3333 0 0 -1.3333 972.86 489.89)" d="m0 0h-7.964v71.033h-26.185v7.301h60.344v-7.301h-26.195z" clip-path="url(#clipPath72)"/>
   <path transform="matrix(1.3333 0 0 -1.3333 1067.2 402.7)" d="m0 0c-3.449 5.098-8.527 7.632-15.174 7.632-8.185 0-16.662-4.314-16.662-14.128 0-21.177 40.102-9.975 40.102-38.181 0-14.3-13.354-22.676-25.743-22.676-9.482 0-18.683 3.459-24.626 11.614l7.17 5.219c3.298-5.782 9.613-9.512 17.798-9.512 7.834 0 16.783 5.057 16.783 14.218 0 22.103-40.112 9.845-40.112 38.513 0 15.165 12.61 22.264 25.29 22.264 8.889 0 15.928-2.474 22.112-9.573z" clip-path="url(#clipPath74)"/>
   <path transform="matrix(1.3333 0 0 -1.3333 1170.6 450.85)" d="m0 0c0-13.062-5.209-31.243-28.628-31.243-23.42 0-28.619 18.181-28.619 31.243v49.052h7.944v-48.248c0-22.554 14.711-24.716 20.675-24.716 5.973 0 20.684 2.162 20.684 24.716v48.248h7.944z" clip-path="url(#clipPath76)"/>
   <path transform="matrix(1.3333 0 0 -1.3333 1204 480.1)" d="m0 0h15.214c11.534 0 20.584 4.545 20.584 14.822 0 10.297-6.868 15.225-19.578 15.225h-16.22zm0 36.693h16.009c7.622 0 15.918 3.671 15.918 13.726 0 3.238-1.669 13.264-16.713 13.264h-15.214zm-7.994 34.3h23.329c12.932 0 25.23-4.897 25.23-19.689 0-8.507-5.088-15.164-13.817-17.175v-0.141c10.9-0.925 17.658-8.235 17.658-19.608 0-5.119-3.298-21.721-28.508-21.721h-23.892z" clip-path="url(#clipPath78)"/>
   <path transform="matrix(1.3333 0 0 -1.3333 0 1440)" d="m968.74 712.58h-7.964v78.334h7.964z" clip-path="url(#clipPath80)"/>
   <path transform="matrix(1.3333 0 0 -1.3333 1364.9 402.7)" d="m0 0c-3.419 5.098-8.487 7.632-15.114 7.632-8.165 0-16.672-4.314-16.672-14.128 0-21.177 40.112-9.975 40.112-38.181 0-14.3-13.394-22.676-25.783-22.676-9.492 0-18.653 3.459-24.656 11.614l7.22 5.219c3.278-5.782 9.623-9.512 17.758-9.512 7.874 0 16.823 5.057 16.823 14.218 0 22.103-40.132 9.845-40.132 38.513 0 15.165 12.62 22.264 25.33 22.264 8.809 0 15.928-2.474 22.103-9.573z" clip-path="url(#clipPath82)"/>
   <path transform="matrix(1.3333 0 0 -1.3333 1392.3 385.45)" d="m0 0h7.964v-33.948h42.666v33.948h7.954v-78.334h-7.954v37.086h-42.666v-37.086h-7.964z" clip-path="url(#clipPath84)"/>
   <path transform="matrix(1.3333 0 0 -1.3333 0 1440)" d="m1128.1 712.58h-7.954v78.334h7.954z" clip-path="url(#clipPath86)"/>
   <path transform="matrix(1.3333 0 0 -1.3333 865.54 622.52)" d="m0 0c-5.199-8.135-16.029-14.36-28.94-14.36-23.329 0-40.796 17.357-40.796 41.128 0 23.772 17.467 41.148 40.796 41.148 9.714 0 20.242-3.64 27.09-12.429l-6.969-5.158c-3.107 5.118-11.855 10.297-20.121 10.297-20.152 0-32.179-15.848-32.179-33.858 0-18.06 12.027-33.867 32.179-33.867 8.165 0 16.571 2.685 22.414 11.745z" clip-path="url(#clipPath88)"/>
   <path transform="matrix(1.3333 0 0 -1.3333 877.49 534.63)" d="m0 0h7.954v-33.968h42.646v33.968h7.964v-78.294h-7.964v37.036h-42.646v-37.036h-7.954z" clip-path="url(#clipPath90)"/>
   <path transform="matrix(1.3333 0 0 -1.3333 989.36 629.31)" d="m0 0h41.872v-7.28h-49.826v78.293h48.519v-7.29h-40.565v-26.678h37.89v-7.29h-37.89z" clip-path="url(#clipPath92)"/>
   <path transform="matrix(1.3333 0 0 -1.3333 1111.7 619.52)" d="m0 0 26.426 63.663h12.168v-78.294h-7.984v67.725h-0.192l-28.316-67.725h-4.214l-28.306 67.725h-0.222v-67.725h-7.944v78.294h12.158z" clip-path="url(#clipPath94)"/>
   <path transform="matrix(1.3333 0 0 -1.3333 0 1440)" d="m897.66 600.73h-7.984v78.294h7.984z" clip-path="url(#clipPath96)"/>
   <path transform="matrix(1.3333 0 0 -1.3333 1306 622.52)" d="m0 0c-5.209-8.135-16.029-14.36-28.971-14.36-23.329 0-40.805 17.357-40.805 41.128 0 23.772 17.476 41.148 40.805 41.148 9.734 0 20.212-3.64 27.05-12.429l-6.958-5.158c-3.077 5.118-11.795 10.297-20.092 10.297-20.131 0-32.188-15.848-32.188-33.858 0-18.06 12.057-33.867 32.188-33.867 8.156 0 16.572 2.685 22.425 11.745z" clip-path="url(#clipPath98)"/>
   <path transform="matrix(1.3333 0 0 -1.3333 1334.5 601.88)" d="m0 0h33.928l-16.884 41.168zm-11.594-27.864h-9.292l34.049 78.303h7.743l34.028-78.303h-9.271l-8.628 20.563h-40.022z" clip-path="url(#clipPath100)"/>
   <path transform="matrix(1.3333 0 0 -1.3333 1429.6 629.31)" d="m0 0h36.512v-7.28h-44.436v78.293h7.924z" clip-path="url(#clipPath102)"/>
   <path transform="matrix(1.3333 0 0 -1.3333 856.69 702.94)" d="m0 0c-5.289 5.631-12.68 9.1-22.303 9.1-20.142 0-32.179-15.827-32.179-33.867 0-18.03 12.037-33.838 32.179-33.838 8.054 0 15.797 2.162 21.639 5.531v26.205h-18.683v7.311h26.657v-38.393c-8.708-5.219-20.111-7.964-29.613-7.964-23.33 0-40.796 17.396-40.796 41.148 0 23.772 17.466 41.128 40.796 41.128 12.378 0 21.307-3.53 28.296-10.478z" clip-path="url(#clipPath104)"/>
   <path transform="matrix(1.3333 0 0 -1.3333 898.22 729.88)" d="m0 0h14.148c14.279 0 19.116 6.174 19.116 13.666 0 7.551-4.837 13.615-19.116 13.615h-14.148zm0-43.732h-7.964v78.364h24.113c15.919 0 25.753-6.898 25.753-20.966 0-10.82-7.2-19.096-19.991-20.233l22.535-37.165h-9.744l-21.408 36.431h-13.294z" clip-path="url(#clipPath106)"/>
   <path transform="matrix(1.3333 0 0 -1.3333 1019.1 690.81)" d="m0 0c-20.162 0-32.198-15.828-32.198-33.868 0-18.03 12.036-33.837 32.198-33.837 20.132 0 32.128 15.807 32.128 33.837 0 18.04-11.996 33.868-32.128 33.868m0-75.015c-23.349 0-40.806 17.396-40.806 41.147 0 23.782 17.457 41.128 40.806 41.128 23.309 0 40.766-17.346 40.766-41.128 0-23.751-17.457-41.147-40.766-41.147" clip-path="url(#clipPath108)"/>
   <path transform="matrix(1.3333 0 0 -1.3333 1164.8 749.22)" d="m0 0c0-13.022-5.169-31.203-28.639-31.203-23.419 0-28.628 18.181-28.628 31.203v49.132h7.974v-48.207c0-22.655 14.671-24.828 20.654-24.828 5.973 0 20.675 2.173 20.675 24.828v48.207h7.964z" clip-path="url(#clipPath110)"/>
   <path transform="matrix(1.3333 0 0 -1.3333 1196.9 729.88)" d="m0 0h12.791c14.259 0 19.126 6.174 19.126 13.666 0 7.551-4.867 13.615-19.126 13.615h-12.791zm-7.984 34.632h22.796c15.918 0 25.753-6.898 25.753-20.966 0-14.018-9.835-20.967-25.753-20.967h-14.812v-36.431h-7.984z" clip-path="url(#clipPath112)"/>
  </g>
 </g>
</svg>
