<?xml version="1.0" encoding="UTF-8" standalone="no"?>
<svg
   viewBox="0 0 500 500"
   version="1.1"
   id="svg13"
   sodipodi:docname="openproject-logo-centered-color-1923bef6.svg"
   inkscape:export-filename="openproject.svg"
   inkscape:export-xdpi="96"
   inkscape:export-ydpi="96"
   inkscape:version="1.3.2 (091e20ef0f, 2023-11-25)"
   xmlns:inkscape="http://www.inkscape.org/namespaces/inkscape"
   xmlns:sodipodi="http://sodipodi.sourceforge.net/DTD/sodipodi-0.dtd"
   xmlns="http://www.w3.org/2000/svg"
   xmlns:svg="http://www.w3.org/2000/svg">
  <defs
     id="defs13" />
  <sodipodi:namedview
     id="namedview13"
     pagecolor="#505050"
     bordercolor="#eeeeee"
     borderopacity="1"
     inkscape:showpageshadow="0"
     inkscape:pageopacity="0"
     inkscape:pagecheckerboard="0"
     inkscape:deskcolor="#d1d1d1"
     inkscape:zoom="1.214"
     inkscape:cx="249.58814"
     inkscape:cy="250"
     inkscape:window-width="1920"
     inkscape:window-height="1011"
     inkscape:window-x="0"
     inkscape:window-y="32"
     inkscape:window-maximized="1"
     inkscape:current-layer="svg13" />
  <path
     d="M94.38,364.78V333.51c0-9,6-14.95,14.69-14.95s14.87,6,14.87,14.95v31.27c0,9-6.07,15-14.87,15S94.38,373.75,94.38,364.78Zm23.49.34V333.25c0-5.55-3.58-9.39-8.8-9.39s-8.62,3.84-8.62,9.39v31.87c0,5.47,3.5,9.31,8.62,9.31S117.87,370.59,117.87,365.12Z"
     id="path1" />
  <path
     d="M157.52,357.69c0,3.16,0,6.07-.09,9.23-.26,7.51-4.61,12.81-11.53,12.81a10,10,0,0,1-8.46-4.1c-.26-.26-.43-.08-.43.17v19a.8.8,0,0,1-.85.85H131.8a.8.8,0,0,1-.85-.85v-58.1a.8.8,0,0,1,.85-.85h4.36a.8.8,0,0,1,.85.85v2.48c0,.26.17.43.43.17a10.06,10.06,0,0,1,8.46-4.19c6.83,0,11.19,5.47,11.53,13.08C157.52,351.37,157.52,354.53,157.52,357.69Zm-6.07,8.2c.09-3,0-6.24,0-8.46V349c.09-5-2.9-8.54-7.35-8.54-4.1,0-7.09,3.42-7.09,8.54v16.92c0,5.13,3,8.54,7.09,8.54C148.46,374.43,151.54,371,151.45,365.89Z"
     id="path2" />
  <path
     d="M188.53,359.74H169.05a.37.37,0,0,0-.34.34v6.24c0,4.78,3,8.11,7.26,8.11a7.18,7.18,0,0,0,7.18-6c.17-.51.42-.76.94-.76l4.27.17a.77.77,0,0,1,.77.94c-.94,6.66-5.64,10.93-13.16,10.93-8.12,0-13.33-5.21-13.33-13.07V348.21c0-7.69,5.21-13.08,13.33-13.08,8.29,0,13.41,5.39,13.41,13.08v10.68A.8.8,0,0,1,188.53,359.74Zm-19.82-11.11v5.73a.37.37,0,0,0,.34.34h14a.37.37,0,0,0,.34-.34v-5.73c0-4.87-3-8.2-7.43-8.2C171.7,340.43,168.71,343.76,168.71,348.63Z"
     id="path3" />
  <path
     d="M221.25,348.8v29.39a.81.81,0,0,1-.85.86H216a.81.81,0,0,1-.85-.86V349.32c0-5.56-2.48-8.8-6.84-8.8-4.53,0-7.35,3.5-7.35,9.22v28.45a.81.81,0,0,1-.85.86h-4.36a.81.81,0,0,1-.85-.86V336.67a.8.8,0,0,1,.85-.85h4.36a.8.8,0,0,1,.85.85v2.82c0,.26.26.34.43.09a10.54,10.54,0,0,1,8.89-4.36C217.32,335.22,221.25,340.26,221.25,348.8Z"
     id="path4" />
  <path
     d="M257.48,335.73c0,9.83-5.47,16.32-13.67,16.32H235a.38.38,0,0,0-.35.34v25.8a.81.81,0,0,1-.85.86h-4.36a.81.81,0,0,1-.85-.86V320a.8.8,0,0,1,.85-.85h14.1C251.92,319.16,257.48,325.82,257.48,335.73Zm-6.07.09c0-6.92-3.5-11.37-8.63-11.37H235a.38.38,0,0,0-.35.35v21.95a.38.38,0,0,0,.35.35h7.77C247.91,347.1,251.41,342.74,251.41,335.82Z"
     id="path5" />
  <path
     d="M280.37,336.33a1,1,0,0,1,.43,1.11l-.94,4.36c-.09.6-.51.68-1.11.51a6.06,6.06,0,0,0-3.59-.34c-4.1.26-7,4.78-7,10.59v25.63a.81.81,0,0,1-.85.86h-4.36a.81.81,0,0,1-.85-.86V336.67a.8.8,0,0,1,.85-.85h4.36a.8.8,0,0,1,.85.85v5.13c0,.34.26.34.43.08,1.45-3.84,4-6.49,8.12-6.49A6.77,6.77,0,0,1,280.37,336.33Z"
     id="path6" />
  <path
     d="M282.42,366.66V348.21c0-7.69,5.21-13.08,13.42-13.08s13.49,5.39,13.49,13.08v18.45c0,7.86-5.29,13.07-13.49,13.07S282.42,374.52,282.42,366.66Zm20.85-.34V348.63c0-4.87-3.08-8.2-7.43-8.2s-7.35,3.33-7.35,8.2v17.69c0,4.78,3,8.11,7.35,8.11S303.27,371.1,303.27,366.32Z"
     id="path7" />
  <path
     d="M307.54,396v-3.58a.81.81,0,0,1,.85-.86c4.87-.17,6.92-3.5,6.92-8.71V336.67a.81.81,0,0,1,.86-.85h4.36a.8.8,0,0,1,.85.85v46.14c0,8.54-2.31,14-13,14A.81.81,0,0,1,307.54,396Zm6.58-72.36a4.23,4.23,0,1,1,8.46,0,4.23,4.23,0,1,1-8.46,0Z"
     id="path8" />
  <path
     d="M353.33,359.74H333.85a.37.37,0,0,0-.34.34v6.24c0,4.78,3,8.11,7.26,8.11a7.18,7.18,0,0,0,7.18-6,.91.91,0,0,1,.94-.76l4.27.17a.76.76,0,0,1,.77.94c-.94,6.66-5.64,10.93-13.16,10.93-8.11,0-13.32-5.21-13.32-13.07V348.21c0-7.69,5.21-13.08,13.32-13.08,8.29,0,13.42,5.39,13.42,13.08v10.68A.81.81,0,0,1,353.33,359.74Zm-19.82-11.11v5.73a.37.37,0,0,0,.34.34h14a.37.37,0,0,0,.34-.34v-5.73c0-4.87-3-8.2-7.44-8.2C336.5,340.43,333.51,343.76,333.51,348.63Z"
     id="path9" />
  <path
     d="M358.8,366.66V348.21c0-7.61,5.21-13.08,13.33-13.08s13.5,5.47,13.5,11.88v.85a.81.81,0,0,1-.86.86l-4.35.17a.79.79,0,0,1-.86-.77v-.68a7.14,7.14,0,0,0-7.43-7c-4.27,0-7.26,3.33-7.26,8.2v17.6c0,4.87,3,8.2,7.26,8.2a7.14,7.14,0,0,0,7.43-7v-.6a.81.81,0,0,1,.86-.85l4.35.08a.81.81,0,0,1,.86.86v.94c0,6.66-5.3,11.87-13.5,11.87S358.8,374.52,358.8,366.66Z"
     id="path10" />
  <path
     d="M404.77,340.35h-6.5a.37.37,0,0,0-.34.34v26.14c0,5.47,2,6.92,5.55,6.84h.86a.8.8,0,0,1,.85.85v3.67a.81.81,0,0,1-.85.86H402.2c-6.06,0-10.25-1.8-10.25-10.42V340.69a.37.37,0,0,0-.34-.34h-3.33a.81.81,0,0,1-.86-.86v-2.82a.81.81,0,0,1,.86-.85h3.33a.37.37,0,0,0,.34-.34v-9.57a.81.81,0,0,1,.86-.86h4.27a.81.81,0,0,1,.85.86v9.57a.37.37,0,0,0,.34.34h6.5a.8.8,0,0,1,.85.85v2.82A.81.81,0,0,1,404.77,340.35Z"
     id="path11" />
  <path
     d="M256.68,244h0a1.91,1.91,0,0,0,0,.25,11.14,11.14,0,0,0,22.27,0,1.28,1.28,0,0,0,0-.28h0V217.3H256.68Z"
     style="fill:#0770b8"
     id="path12" />
  <path
     d="M308.65,100H293.8a36.93,36.93,0,0,0-37.12,36.9v44.76H191.35a36.93,36.93,0,0,0-37.12,36.9v29.7a37.31,37.31,0,0,0,37.12,37.34H206.2a37.31,37.31,0,0,0,37.12-37.34v-29.7c0-.49,0-1.26,0-1.26H221.05v31a15.06,15.06,0,0,1-14.85,15.07H191.35a15.06,15.06,0,0,1-14.85-15.07v-29.7a14.68,14.68,0,0,1,14.85-14.63h117.3a37.3,37.3,0,0,0,37.12-37.33V136.9A36.93,36.93,0,0,0,308.65,100Zm14.85,66.6a15.05,15.05,0,0,1-14.85,15.06H279V136.9a14.68,14.68,0,0,1,14.85-14.63h14.85A14.68,14.68,0,0,1,323.5,136.9Z"
     style="fill:#0770b8"
     id="path13" />
</svg>
