<svg id="a" xmlns="http://www.w3.org/2000/svg" viewBox="0 0 600 124.6">
  <g style="fill:#ca101a">
    <polygon
      points="342.6 31.2 342.6 7.9 358.2 7.9 358.2 12.6 348 12.6 348 17 357.7 17 357.7 21.5 348 21.5 348 26.4 358.8 26.4 358.8 31.2 342.6 31.2" />
    <rect x="363.4" y="7.9" width="5.7" height="23.3" />
    <polygon
      points="389.3 31.2 379.9 15.9 379.8 15.9 380 31.2 374.5 31.2 374.5 7.9 380.9 7.9 390.3 23.1 390.4 23.1 390.2 7.9 395.7 7.9 395.7 31.2 389.3 31.2" />
    <path
      d="M422.9,19.5c0,2-.4,3.8-1.1,5.3-.8,1.5-1.8,2.7-3,3.7s-2.6,1.7-4.2,2.1-3.1,.7-4.7,.7h-8.7V8h8.4c1.7,0,3.3,.2,4.9,.6s3,1,4.3,1.9,2.3,2.1,3,3.6c.7,1.3,1.1,3.2,1.1,5.4m-5.8,0c0-1.3-.2-2.4-.6-3.3s-1-1.6-1.7-2.1-1.5-.9-2.4-1.1-1.9-.3-2.8-.3h-2.8v13.6h2.7c1,0,2-.1,2.9-.4,.9-.2,1.8-.6,2.5-1.1s1.3-1.2,1.7-2.1c.2-.9,.5-1.9,.5-3.2" />
    <polygon
      points="441.9 31.2 441.9 21.4 432.8 21.4 432.8 31.2 427.1 31.2 427.1 7.9 432.8 7.9 432.8 16.7 441.9 16.7 441.9 7.9 447.5 7.9 447.5 31.2 441.9 31.2" />
    <path
      d="M477.2,19.4c0,1.8-.3,3.5-1,5.1-.6,1.5-1.5,2.8-2.7,3.9-1.1,1.1-2.5,1.9-4,2.5-1.6,.6-3.3,.9-5.1,.9s-3.5-.3-5.1-.9c-1.5-.6-2.9-1.4-4-2.5s-2-2.4-2.7-3.9c-.6-1.5-1-3.2-1-5.1s.3-3.5,1-5.1c.6-1.5,1.5-2.8,2.7-3.8,1.1-1.1,2.5-1.9,4-2.4,1.6-.6,3.2-.9,5.1-.9,1.8,0,3.5,.3,5.1,.9s2.9,1.4,4,2.4c1.1,1.1,2,2.3,2.7,3.8,.7,1.6,1,3.3,1,5.1m-6,0c0-1-.2-2-.5-2.8-.3-.9-.8-1.6-1.4-2.3-.6-.6-1.3-1.1-2.1-1.5-.8-.4-1.7-.5-2.7-.5s-1.9,.2-2.7,.5c-.8,.4-1.5,.9-2.1,1.5s-1,1.4-1.4,2.3c-.3,.9-.5,1.8-.5,2.8,0,1.1,.2,2,.5,2.9s.8,1.7,1.4,2.3c.6,.6,1.3,1.1,2.1,1.5,.8,.4,1.7,.5,2.7,.5s1.9-.2,2.7-.5c.8-.4,1.5-.9,2.1-1.5s1.1-1.4,1.4-2.3c.3-.8,.5-1.8,.5-2.9" />
    <polygon
      points="492.2 31.2 486.6 31.2 477.8 7.9 484.1 7.9 489.5 24.4 489.6 24.4 495 7.9 501.2 7.9 492.2 31.2" />
    <polygon
      points="503.9 31.2 503.9 7.9 519.6 7.9 519.6 12.6 509.4 12.6 509.4 17 519 17 519 21.5 509.4 21.5 509.4 26.4 520.2 26.4 520.2 31.2 503.9 31.2" />
    <polygon
      points="539.6 31.2 530.2 15.9 530.1 15.9 530.2 31.2 524.7 31.2 524.7 7.9 531.2 7.9 540.5 23.1 540.6 23.1 540.5 7.9 546 7.9 546 31.2 539.6 31.2" />
    <polygon
      points="354.8 90.5 354.8 109 349.1 109 349.1 90.5 342.6 90.5 342.6 85.7 361.4 85.7 361.4 90.5 354.8 90.5" />
    <polygon
      points="364.4 109 364.4 85.7 380.1 85.7 380.1 90.5 369.8 90.5 369.8 94.9 379.5 94.9 379.5 99.4 369.8 99.4 369.8 104.2 380.7 104.2 380.7 109 364.4 109" />
    <path
      d="M401.5,108.6c-1.5,.7-3.3,1-5.2,1-1.8,0-3.5-.3-5-.9s-2.8-1.4-4-2.5c-1.1-1.1-2-2.4-2.6-3.9s-1-3.2-1-5c0-1.9,.3-3.6,1-5.1s1.5-2.8,2.7-3.9c1.1-1.1,2.5-1.9,4-2.5s3.2-.9,5-.9c1.7,0,3.3,.3,4.9,.9s2.9,1.4,3.9,2.6l-3.8,3.8c-.5-.7-1.2-1.3-2.1-1.6-.9-.4-1.7-.5-2.6-.5-1,0-1.9,.2-2.7,.5-.8,.4-1.5,.9-2.1,1.5s-1.1,1.4-1.4,2.3-.5,1.8-.5,2.8c0,1.1,.2,2,.5,2.9s.8,1.6,1.4,2.3c.6,.6,1.3,1.1,2.1,1.5,.8,.4,1.7,.5,2.7,.5,1.1,0,2.1-.2,2.9-.7,.8-.4,1.5-1,2-1.7l3.9,3.7c-1.2,1.3-2.5,2.2-4,2.9" />
    <polygon
      points="423 109 423 99.3 413.9 99.3 413.9 109 408.3 109 408.3 85.7 413.9 85.7 413.9 94.5 423 94.5 423 85.7 428.7 85.7 428.7 109 423 109" />
    <polygon
      points="448.9 109 439.5 93.8 439.5 93.8 439.6 109 434.1 109 434.1 85.7 440.5 85.7 449.9 100.9 450 100.9 449.9 85.7 455.3 85.7 455.3 109 448.9 109" />
    <path
      d="M485,97.3c0,1.8-.3,3.5-1,5.1-.6,1.5-1.5,2.8-2.7,3.9-1.1,1.1-2.5,1.9-4,2.5-1.6,.6-3.3,.9-5.1,.9s-3.5-.3-5.1-.9c-1.5-.6-2.9-1.4-4-2.5s-2-2.4-2.7-3.9c-.6-1.5-1-3.2-1-5.1s.3-3.5,1-5.1c.6-1.5,1.5-2.8,2.7-3.8,1.1-1.1,2.5-1.9,4-2.4,1.6-.6,3.2-.9,5.1-.9,1.8,0,3.5,.3,5.1,.9s2.9,1.4,4,2.4c1.1,1.1,2,2.3,2.7,3.8s1,3.2,1,5.1m-6,0c0-1-.2-2-.5-2.8-.3-.9-.8-1.6-1.4-2.3-.6-.6-1.3-1.1-2.1-1.5-.8-.4-1.7-.5-2.7-.5s-1.9,.2-2.7,.5c-.8,.4-1.5,.9-2.1,1.5s-1,1.4-1.4,2.3c-.3,.9-.5,1.8-.5,2.8,0,1.1,.2,2,.5,2.9s.8,1.7,1.4,2.3c.6,.6,1.3,1.1,2.1,1.5,.8,.4,1.7,.5,2.7,.5s1.9-.2,2.7-.5c.8-.4,1.5-.9,2.1-1.5s1.1-1.4,1.4-2.3c.3-.9,.5-1.9,.5-2.9" />
    <polygon
      points="489.3 109 489.3 85.7 494.9 85.7 494.9 104.1 504 104.1 504 109 489.3 109" />
    <path
      d="M531.1,97.3c0,1.8-.3,3.5-1,5.1-.6,1.5-1.5,2.8-2.7,3.9-1.1,1.1-2.5,1.9-4,2.5-1.6,.6-3.3,.9-5.1,.9s-3.5-.3-5.1-.9-2.9-1.4-4-2.5-2-2.4-2.7-3.9c-.6-1.5-.9-3.2-.9-5.1s.3-3.5,.9-5.1c.6-1.5,1.5-2.8,2.7-3.8,1.1-1.1,2.5-1.9,4-2.4,1.5-.6,3.2-.9,5.1-.9,1.8,0,3.5,.3,5.1,.9s2.9,1.4,4,2.4c1.1,1.1,2,2.3,2.7,3.8,.6,1.5,1,3.2,1,5.1m-6.1,0c0-1-.2-2-.5-2.8-.3-.9-.8-1.6-1.4-2.3-.6-.6-1.3-1.1-2.1-1.5s-1.7-.5-2.7-.5-1.9,.2-2.7,.5c-.8,.4-1.5,.9-2.1,1.5s-1.1,1.4-1.4,2.3c-.3,.9-.5,1.8-.5,2.8,0,1.1,.2,2,.5,2.9s.8,1.7,1.4,2.3c.6,.6,1.3,1.1,2.1,1.5s1.7,.5,2.7,.5,1.9-.2,2.7-.5c.8-.4,1.5-.9,2.1-1.5s1.1-1.4,1.4-2.3c.4-.9,.5-1.9,.5-2.9" />
    <path
      d="M551.9,109.1c-1.5,.4-3.2,.6-5,.6-1.9,0-3.6-.3-5.2-.9-1.6-.6-2.9-1.4-4.1-2.5-1.1-1.1-2-2.4-2.6-3.9s-1-3.2-1-5c0-1.9,.3-3.6,1-5.1s1.5-2.8,2.7-3.9c1.1-1.1,2.5-1.9,4-2.5s3.2-.9,5-.9,3.6,.3,5.1,.8c1.6,.6,2.9,1.3,3.9,2.3l-3.6,4c-.6-.6-1.3-1.2-2.2-1.6s-1.9-.6-3.1-.6c-1,0-1.9,.2-2.7,.5-.8,.4-1.6,.9-2.2,1.5-.6,.7-1.1,1.4-1.4,2.3-.3,.9-.5,1.9-.5,2.9,0,1.1,.2,2.1,.5,3s.8,1.7,1.4,2.3c.6,.6,1.3,1.2,2.2,1.5,.9,.4,1.9,.5,3.1,.5,.7,0,1.3,0,1.9-.2,.6-.1,1.1-.3,1.7-.5v-3.9h-4.4v-4.5h9.6v12.3c-1.2,.6-2.6,1.1-4.1,1.5" />
    <polygon
      points="572.1 99.2 572.1 109 566.5 109 566.5 99.2 557.7 85.7 564.5 85.7 569.5 94.3 574.5 85.7 581.1 85.7 572.1 99.2" />
    <path
      d="M361.9,65.1c-.5,1.2-1.1,2.1-2,3-.9,.8-1.9,1.5-3.2,1.9-1.2,.5-2.6,.7-4.1,.7s-2.9-.2-4.2-.7c-1.2-.5-2.3-1.1-3.1-1.9-.9-.8-1.5-1.8-2-3s-.7-2.4-.7-3.8v-14.5h5.6v14c0,.6,.1,1.2,.2,1.8,.2,.6,.4,1.1,.8,1.5,.3,.4,.8,.8,1.4,1.1,.6,.3,1.2,.4,2,.4s1.5-.1,2-.4c.6-.3,1-.6,1.4-1.1,.4-.4,.6-1,.8-1.5,.2-.6,.2-1.2,.2-1.8v-14h5.6v14.5c0,1.4-.3,2.7-.7,3.8" />
    <polygon
      points="382.6 70.1 373.2 54.9 373.1 54.9 373.3 70.1 367.8 70.1 367.8 46.8 374.2 46.8 383.6 62 383.7 62 383.6 46.8 389 46.8 389 70.1 382.6 70.1" />
    <rect x="394.4" y="46.8" width="5.7" height="23.3" />
    <polygon
      points="417.3 70.1 411.6 70.1 402.8 46.8 409.1 46.8 414.5 63.3 414.7 63.3 420 46.8 426.3 46.8 417.3 70.1" />
    <polygon
      points="429 70.1 429 46.8 444.6 46.8 444.6 51.5 434.4 51.5 434.4 55.9 444.1 55.9 444.1 60.5 434.4 60.5 434.4 65.3 445.2 65.3 445.2 70.1 429 70.1" />
    <path
      d="M462.3,70.1l-5.1-9.2h-1.9v9.2h-5.5v-23.3h8.9c1.1,0,2.2,.1,3.3,.3,1.1,.2,2,.6,2.9,1.2,.8,.6,1.5,1.3,2,2.2,.5,.9,.8,2,.8,3.4,0,1.6-.4,2.9-1.3,4s-2,1.8-3.6,2.3l6.1,10h-6.6v-.1Zm-.3-16.2c0-.5-.1-1-.4-1.3-.2-.3-.5-.6-.9-.8-.4-.2-.8-.3-1.2-.4-.4-.1-.9-.1-1.3-.1h-3v5.4h2.7c.5,0,.9,0,1.4-.1s.9-.2,1.3-.4c.4-.2,.7-.5,1-.9,.3-.3,.4-.8,.4-1.4" />
    <path
      d="M484.6,52.9c-.5-.6-1.1-1.1-1.9-1.5s-1.5-.5-2.3-.5c-.4,0-.8,0-1.1,.1-.4,.1-.7,.2-1,.4-.3,.2-.6,.4-.8,.7-.2,.3-.3,.7-.3,1.1s.1,.7,.2,1c.2,.3,.4,.5,.7,.7,.3,.2,.7,.4,1.1,.5,.4,.2,.9,.3,1.5,.5,.8,.3,1.6,.6,2.5,.9s1.6,.7,2.3,1.3c.7,.5,1.3,1.2,1.7,2,.5,.8,.7,1.7,.7,2.9,0,1.3-.2,2.5-.7,3.5s-1.2,1.8-2,2.4-1.8,1.1-2.9,1.4-2.2,.5-3.3,.5c-1.7,0-3.3-.3-4.8-.9-1.6-.6-2.9-1.4-3.9-2.5l3.7-3.8c.6,.7,1.3,1.3,2.3,1.8,.9,.5,1.9,.7,2.8,.7,.4,0,.8,0,1.2-.1,.4-.1,.7-.2,1-.4,.3-.2,.5-.5,.7-.8s.3-.7,.3-1.2c0-.4-.1-.8-.3-1.1-.2-.3-.5-.6-.9-.8-.4-.3-.9-.5-1.5-.7s-1.3-.4-2.1-.7c-.7-.2-1.5-.5-2.2-.9-.7-.3-1.3-.8-1.9-1.3s-1-1.1-1.4-1.9c-.3-.7-.5-1.6-.5-2.7,0-1.3,.3-2.4,.8-3.3s1.2-1.7,2.1-2.3c.9-.6,1.8-1,2.9-1.3s2.2-.4,3.3-.4c1.3,0,2.7,.2,4,.7,1.4,.5,2.6,1.2,3.6,2.1l-3.6,3.9Z" />
    <rect x="492.3" y="46.8" width="5.7" height="23.3" />
    <polygon
      points="513.2 51.6 513.2 70.1 507.6 70.1 507.6 51.6 501 51.6 501 46.8 519.8 46.8 519.8 51.6 513.2 51.6" />
    <polygon
      points="535.8 60.2 535.8 70.1 530.1 70.1 530.1 60.2 521.4 46.8 528.2 46.8 533.2 55.4 538.2 46.8 544.7 46.8 535.8 60.2" />
    <path
      d="M580.4,58.4c0,1.8-.3,3.5-1,5.1-.6,1.5-1.5,2.8-2.7,3.9-1.1,1.1-2.5,1.9-4,2.5-1.6,.6-3.3,.9-5.1,.9s-3.5-.3-5.1-.9c-1.5-.6-2.9-1.4-4-2.5s-2-2.4-2.7-3.9c-.6-1.5-.9-3.2-.9-5.1s.3-3.5,.9-5.1c.6-1.5,1.5-2.8,2.7-3.8,1.1-1.1,2.5-1.9,4-2.4,1.5-.6,3.2-.9,5.1-.9,1.8,0,3.5,.3,5.1,.9s2.9,1.4,4,2.4c1.1,1.1,2,2.3,2.7,3.8,.6,1.5,1,3.2,1,5.1m-6.1,0c0-1-.2-2-.5-2.8-.3-.9-.8-1.6-1.4-2.3-.6-.6-1.3-1.1-2.1-1.5s-1.7-.5-2.7-.5-1.9,.2-2.7,.5c-.8,.4-1.5,.9-2.1,1.5s-1.1,1.4-1.4,2.3c-.3,.9-.5,1.8-.5,2.8,0,1.1,.2,2,.5,2.9s.8,1.7,1.4,2.3c.6,.6,1.3,1.1,2.1,1.5s1.7,.5,2.7,.5,1.9-.2,2.7-.5c.8-.4,1.5-.9,2.1-1.5s1.1-1.4,1.4-2.3c.4-.9,.5-1.9,.5-2.9" />
    <polygon
      points="590.2 51.6 590.2 56.4 599.2 56.4 599.2 61 590.2 61 590.2 70.1 584.6 70.1 584.6 46.8 600 46.8 600 51.6 590.2 51.6" />
    <polygon
      points="54.4 28.7 54.4 109 29.3 109 29.3 28.7 0 28.7 0 7.8 83.7 7.8 83.7 28.7 54.4 28.7" />
    <path
      d="M179.3,87.5c-2.1,5-5.1,9.3-9,12.9s-8.6,6.4-14.2,8.4c-5.5,2-11.7,3-18.4,3s-13-1-18.5-3-10.1-4.8-13.9-8.4c-3.8-3.6-6.7-7.9-8.8-12.9-2.1-5-3.1-10.6-3.1-16.7V7.8h24.9v61c0,2.8,.4,5.4,1.1,7.9,.7,2.5,1.9,4.7,3.4,6.6,1.5,2,3.5,3.5,6,4.6s5.5,1.7,9,1.7,6.5-.6,9-1.7,4.5-2.7,6.1-4.6c1.6-2,2.7-4.2,3.4-6.6,.7-2.5,1-5.1,1-7.9V7.8h25.1v63c0,6.2-1,11.7-3.1,16.7" />
    <polygon points="197.9 124.6 248.8 0 230.6 0 179.8 124.6 197.9 124.6" />
    <path
      d="M273.5,36c-20.9,0-37.9,17-37.9,37.9s17,37.9,37.9,37.9c13.4,0,27.1-5.9,34.6-16.5l-17.2-7c-4.6,5.1-10.8,7.1-17.4,7.1-9.6,0-17.8-6.3-20.5-15.1h57.8c.4-2.1,.6-4.2,.6-6.4,0-21-17-37.9-37.9-37.9m0,16.3c9,0,16.7,5.5,19.9,13.3h-39.8c3.2-7.7,10.9-13.3,19.9-13.3" />
  </g>
</svg>