<?xml version="1.0" encoding="UTF-8"?>
<svg id="Layer_1" data-name="Layer 1" xmlns="http://www.w3.org/2000/svg" xmlns:xlink="http://www.w3.org/1999/xlink" viewBox="0 300 1865.45 1300">
  <defs>
    <style>
      .cls-1 {
        fill: #ccdc00;
      }

      .cls-2 {
        clip-path: url(#clippath);
      }

      .cls-3 {
        fill: none;
      }

      .cls-4 {
        fill: #231f20;
      }
    </style>
    <clipPath id="clippath">
      <rect class="cls-3" width="1865.45" height="2000"/>
    </clipPath>
  </defs>
  <g class="cls-2">
    <g>
      <path class="cls-4" d="m1362.83,685.62c.15,23.04-51.76,46.64-92.88,50.19-38.18,3.33-80.8-.92-117.7-10.42-20.07-5.17-38.4-13.54-59.3-16.73-28.52-4.32-58.93-3.19-86.77,4.61-12.83,3.62-27.01,9.29-36.67,18.22-14.11,13.18-4.38,27.01,12.37,32.4,31.84,10.21,66.09,9.85,98.38,18.36,31.31,8.22,64.13,27.57,75.22,57.7,12.22,33.25-5.58,81.02-30.86,104.77-59.83,56.43-131.49,80.96-216.52,78.77-61.56-1.63-141.93-21.49-173.62-76.92-15.84-27.65-14.19-60.25,2.04-87.55,13.96-23.53,38.93-37.07,63.53-50.47,26.48-14.46,51.91-19.42,79.45-31.19,9.58-4.11,35.61-19.21,32.9-32.32-5.43-25.02-46.7-21.69-68.73-19.85-31.99,2.76-52.89,18.57-79.22,33.46-27.31,15.45-51.16,31.19-81.41,40.54-35.71,11.04-77.6,18.11-115.1,20.22-29.66,1.67-63.19-.93-90.15-14.84-11-5.68-20.27-14.35-23.36-26.08-6.56-24.88,18.86-53.59,61.26-74.22,18.48-8.01,37.65-14.6,56.96-19.92.15,0,.23-.07.38-.07,55.23-15.1,112.27-19.35,161.84-11.77,23.54,3.62,44.52,12.48,61.94,25.24,16.52,12.12,33.5,13.19,52.51,11.27,20.07-2.06,45.87-8.15,54.55-19.21,4.6-5.88,4.3-13.54-1.51-18.71-7.47-6.66-17.13-10.33-26.94-11.18-8.37-.71-16.64-1.62-24.97-2.2-32.26-2.25-60.7-24.12-39.96-44.78,26.63-26.53,76.14-32.59,119.75-34.44,29.05-1.28,76.47,4.91,94.72,22.07,7.92,7.44,6.79,14.96-.91,21.55-12.52,10.77-32.74,18.08-50.32,24.67-12,4.54-29.5,10.85-33.12,24.1-4.98,18.08,19.77,25.38,33.73,27.08,4.68.57,17.05,1.84,24.82,1.49,28.52-1.28,60.73-5.46,87.22-14.67,12.98-4.54,21.43-9.22,32.22-14.96,10.86-5.74,21.88-10.77,33.2-15.38,25.05-9.99,81.18-19.56,101.78-19.07,38.48,1.06,108.87,6.45,109.25,50.26Z"/>
      <path class="cls-1" d="m1413,573.28c.16,25.74-47.68,53.25-97.49,56.07-40.18,2.27-84.82-1.03-123.55-11.64-21.07-5.78-40.31-15.13-62.25-18.69-29.94-4.83-61.85-3.56-91.07,5.15-13.46,4.04-28.35,10.37-38.49,20.35-14.81,14.73-4.59,30.17,12.99,36.19,33.42,11.4,69.37,11.01,103.27,20.51,32.87,9.19,67.32,30.81,78.96,64.46,12.83,37.14-5.86,90.52-32.39,117.05-62.8,63.04-142.71,86.24-231.96,83.79-64.62-1.82-144.29-19.8-177.56-81.73-16.63-30.89-14.89-67.32,2.14-97.81,14.65-26.29,40.86-41.42,66.68-56.39,27.8-16.16,54.49-21.7,83.39-34.85,10.06-4.59,37.38-21.46,34.53-36.11-5.7-27.96-49.02-24.23-72.15-22.18-33.58,3.09-55.52,20.75-83.15,37.38-28.67,17.26-53.7,34.84-85.46,45.29-37.48,12.34-81.45,20.23-120.81,22.59-31.13,1.87-66.33-1.04-94.62-16.58-11.54-6.34-21.27-16.04-24.52-29.13-6.89-27.8,19.8-59.87,64.31-82.92,19.4-8.95,39.52-16.31,59.79-22.25.16,0,.24-.08.4-.08,57.97-16.87,117.84-21.62,169.87-13.15,24.71,4.04,46.73,13.94,65.02,28.19,17.34,13.54,35.16,14.73,55.12,12.59,21.07-2.3,48.15-9.11,57.26-21.46,4.83-6.57,4.51-15.13-1.58-20.91-7.84-7.44-17.98-11.54-28.28-12.49-8.79-.79-17.47-1.81-26.21-2.46-33.86-2.52-63.72-26.95-41.95-50.03,27.95-29.64,79.93-36.41,125.7-38.47,30.49-1.43,80.26,5.49,99.43,24.66,8.31,8.32,7.13,16.71-.95,24.08-13.15,12.04-34.37,20.19-52.82,27.56-12.59,5.07-30.97,12.12-34.77,26.93-5.23,20.19,20.75,28.35,35.4,30.25,4.91.63,17.9,2.06,26.06,1.66,29.93-1.43,63.75-6.1,91.55-16.39,13.62-5.07,22.49-10.3,33.82-16.71,11.4-6.41,22.97-12.03,34.85-17.19,35.6-15.47,85.21-21.86,106.83-21.3,40.39,1.19,114.28,7.21,114.68,56.15Z"/>
      <g>
        <path class="cls-4" d="m571.76,1369.88l-18.5,18.5h-76.36l-18.49-18.5v-208.21h37.88v185.84l4.18,4.18h29.23l4.18-4.18v-185.84h37.89v208.21Z"/>
        <path class="cls-4" d="m683.89,1339.46h-46.53l-10.14,48.92h-38.78l53.69-226.71h36.99l53.7,226.71h-38.78l-10.14-48.92Zm-7.46-36.69l-15.81-76.36-15.81,76.36h31.62Z"/>
        <path class="cls-4" d="m843.74,1339.75h-19.69l-36.69-104.41v153.03h-37.88v-226.71h47.13l37.29,107.09,37.29-107.09h47.13v226.71h-37.88v-153.03l-36.69,104.41Z"/>
      </g>
      <g>
        <path class="cls-4" d="m1044.55,1161.67v93.66h42.66v-93.66h37.88v226.71h-37.88v-96.35h-42.66v96.35h-37.88v-226.71h37.88Z"/>
        <path class="cls-4" d="m1264.66,1369.88l-18.5,18.5h-76.36l-18.49-18.5v-208.21h37.88v185.84l4.18,4.18h29.23l4.18-4.18v-185.84h37.89v208.21Z"/>
        <path class="cls-4" d="m1387.22,1161.67l18.49,18.49v73.98l-18.49,18.49,18.49,18.5v78.75l-18.49,18.5h-96.35v-226.71h96.35Zm-23.57,93.07l4.18-4.48v-48.02l-4.18-4.48h-34.6v56.97h34.6Zm0,36.69h-34.6v59.96h34.6l4.18-4.48v-51.31l-4.18-4.18Z"/>
      </g>
      <g>
        <path class="cls-4" d="m508.01,1538.65l-7.94,7.94h-32.79l-7.94-7.94v-89.4h16.26v79.79l1.79,1.79h12.56l1.79-1.79v-79.79h16.26v89.4Z"/>
        <path class="cls-4" d="m519.32,1546.59v-97.34h42.01l7.94,7.94v43.55l-7.94,7.94,7.94,37.91h-16.01l-7.94-37.91h-9.73v37.91h-16.26Zm31.89-53.66l1.79-1.92v-24.08l-1.79-1.79h-15.62v27.79h15.62Z"/>
        <path class="cls-4" d="m620.92,1449.25l7.94,7.94v31.76l-7.94,7.94,7.94,7.94v33.81l-7.94,7.94h-41.37v-97.34h41.37Zm-10.12,39.96l1.79-1.92v-20.62l-1.79-1.92h-14.86v24.46h14.86Zm0,15.75h-14.86v25.74h14.86l1.79-1.92v-22.03l-1.79-1.79Z"/>
        <path class="cls-4" d="m673.98,1525.58h-19.98l-4.35,21.01h-16.65l23.05-97.34h15.88l23.05,97.34h-16.65l-4.35-21.01Zm-3.21-15.75l-6.78-32.79-6.79,32.79h13.57Z"/>
        <path class="cls-4" d="m702.19,1546.59v-97.34h17.55l21.13,59.68v-59.68h16.26v97.34h-17.54l-21.14-59.68v59.68h-16.26Z"/>
        <path class="cls-4" d="m836.09,1525.58h-19.98l-4.36,21.01h-16.65l23.05-97.34h15.88l23.06,97.34h-16.65l-4.35-21.01Zm-3.21-15.75l-6.78-32.79-6.79,32.79h13.57Z"/>
        <path class="cls-4" d="m864.3,1546.59v-97.34h16.26v97.34h-16.26Z"/>
        <path class="cls-4" d="m891.86,1546.59v-97.34h42.01l7.94,7.94v43.55l-7.94,7.94,7.94,37.91h-16.01l-7.94-37.91h-9.73v37.91h-16.26Zm31.89-53.66l1.79-1.92v-24.08l-1.79-1.79h-15.62v27.79h15.62Z"/>
        <path class="cls-4" d="m1023.32,1525.71h-8.45l-15.75-44.83v65.7h-16.26v-97.34h20.24l16.01,45.98,16.01-45.98h20.23v97.34h-16.26v-65.7l-15.75,44.83Z"/>
        <path class="cls-4" d="m1115.33,1457.19v81.45l-7.94,7.94h-32.79l-7.94-7.94v-81.45l7.94-7.94h32.79l7.94,7.94Zm-18.32,7.94h-12.3l-1.79,1.79v62.12l1.79,1.79h12.3l1.92-1.79v-62.12l-1.92-1.79Z"/>
        <path class="cls-4" d="m1168,1449.25l7.94,7.94v31.76l-7.94,7.94,7.94,7.94v33.81l-7.94,7.94h-41.37v-97.34h41.37Zm-10.12,39.96l1.79-1.92v-20.62l-1.79-1.92h-14.86v24.46h14.86Zm0,15.75h-14.86v25.74h14.86l1.79-1.92v-22.03l-1.79-1.79Z"/>
        <path class="cls-4" d="m1186.48,1546.59v-97.34h16.26v97.34h-16.26Z"/>
        <path class="cls-4" d="m1258.73,1546.59h-44.7v-97.34h16.39v81.58h28.3v15.75Z"/>
        <path class="cls-4" d="m1266.32,1546.59v-97.34h16.26v97.34h-16.26Z"/>
        <path class="cls-4" d="m1341.51,1465.01h-17.55v81.58h-16.26v-81.58h-17.55v-15.75h51.36v15.75Z"/>
        <path class="cls-4" d="m1383.43,1546.59h-16.14v-33.94l-22.28-63.4h17.67l12.68,40.86,12.68-40.86h17.68l-22.28,63.4v33.94Z"/>
      </g>
    </g>
  </g>
</svg>