<?xml version="1.0" standalone="no"?>
<!DOCTYPE svg PUBLIC "-//W3C//DTD SVG 20010904//EN"
 "http://www.w3.org/TR/2001/REC-SVG-20010904/DTD/svg10.dtd">
<svg version="1.0" xmlns="http://www.w3.org/2000/svg"
 width="200.000000pt" height="200.000000pt" viewBox="0 0 200.000000 200.000000"
 preserveAspectRatio="xMidYMid meet">

<g transform="translate(0.000000,200.000000) scale(0.100000,-0.100000)"
fill="#000000" stroke="none">
<path d="M0 1005 l0 -606 128 3 127 3 87 164 86 164 21 -40 c21 -42 105 -123
127 -123 10 0 354 634 354 653 0 13 -100 37 -157 37 -35 0 -63 3 -63 6 0 3 31
63 69 132 37 70 78 146 90 170 l21 42 -137 0 -138 0 -160 -306 c-88 -168 -168
-315 -177 -327 -16 -21 -17 -6 -18 306 l0 327 -130 0 -130 0 0 -605z m869 200
c10 -11 -285 -566 -305 -572 -20 -6 -103 115 -120 175 -32 109 5 222 103 321
74 73 120 91 230 88 45 -1 86 -6 92 -12z"/>
<path d="M1040 1448 l-115 -119 43 7 44 7 -33 -64 c-17 -35 -128 -245 -245
-467 -118 -222 -214 -405 -214 -408 0 -3 10 -4 21 -2 17 2 73 100 275 483 217
410 258 482 282 492 26 11 32 22 51 97 11 47 21 88 21 91 0 14 -24 -7 -130
-117z"/>
<path d="M1139 1090 c-24 -44 -46 -80 -50 -80 -4 0 -16 15 -28 33 -11 17 -35
47 -54 65 -32 31 -36 32 -45 16 -8 -15 -2 -27 33 -66 65 -72 89 -129 93 -220
4 -66 1 -84 -22 -134 -41 -88 -87 -138 -164 -176 -63 -31 -73 -33 -169 -32
-73 0 -104 -3 -107 -12 -6 -15 72 -34 135 -34 36 0 39 -2 29 -19 -5 -11 -10
-22 -10 -25 0 -3 96 -6 213 -6 l212 0 58 110 58 110 -85 0 c-47 0 -86 1 -86 3
0 2 65 126 144 275 l143 272 -128 0 -128 0 -42 -80z"/>
<path d="M1427 1060 l-57 -109 109 -3 108 -3 -168 -268 c-93 -148 -169 -270
-169 -273 0 -2 120 -4 268 -4 l267 0 53 100 c28 55 52 104 52 110 0 6 -44 10
-119 10 l-120 0 170 270 c93 148 169 272 169 275 0 3 -114 5 -252 5 l-253 0
-58 -110z"/>
</g>
</svg>
