<svg xmlns="http://www.w3.org/2000/svg" viewBox="0 0 757.71 733.84"><g id="Layer_2" data-name="Layer 2"><g id="White"><path d="M702.23,256.74A136.11,136.11,0,0,0,684.38,246a160.21,160.21,0,0,0-24.65-10c-4.23-1.36-8.53-2.51-12.86-3.57-1.07-.29-2.17-.51-3.25-.75l-2.45-.54.19.26.09.13.32.49.63,1c.39.67.78,1.34,1.15,2a55.65,55.65,0,0,1,3.59,8.37A90.66,90.66,0,0,1,651,260.74a172.55,172.55,0,0,1,.51,34.59c-.64,8.38-1.72,16.7-3.14,24.94q-.51,3-1.07,5.89l4.08,7c1.5,2.46,2.77,5,4.13,7.58s2.74,5.06,4,7.65l3.71,7.8.1.21a5.23,5.23,0,0,1,1-.09,5.8,5.8,0,0,1,2.84.74l1.32-1.25q2.25-2.21,4.42-4.49a171.87,171.87,0,0,0,17.8-21.85,168.34,168.34,0,0,0,13.58-23.87c1-2.13,1.94-4.26,2.84-6.43q2.75-6.66,4.9-13.55a156.89,156.89,0,0,0,4.37-17.23c-1.13-1.09-2.29-2.15-3.46-3.19A125.18,125.18,0,0,0,702.23,256.74Zm-14.91,70.45a161.52,161.52,0,0,1-10.22,13.39c-.89,1.09-1.83,2.14-2.76,3.19-.68.78-1.38,1.55-2.08,2.31a8.51,8.51,0,0,1,1.08-3.5c6.67-11.61,7.59-29.21,9.84-42.5a5.85,5.85,0,0,1,2.42-3.86,10.3,10.3,0,0,0,3.72-5.45,2.05,2.05,0,0,1,4-.2,2.17,2.17,0,0,0,.07.24c2.8,3.84,5.69,7.26,8.26,10.84A164.72,164.72,0,0,1,687.32,327.19Zm70.3,10.71a95.1,95.1,0,0,0-1.72-14.1,114.72,114.72,0,0,0-24.1-50.45,124.07,124.07,0,0,0-10.36-11.14q-1.65-1.57-3.36-3.09l-.23-.2c0-.1,0-.21,0-.31a137.27,137.27,0,0,0,.88-26.88,105.5,105.5,0,0,0-2.54-17,67.38,67.38,0,0,0-5.92-16.16,37.87,37.87,0,0,0-4.84-7.12A22.72,22.72,0,0,0,698.8,186a15.13,15.13,0,0,0-8.35-1.64,18.93,18.93,0,0,0-8.06,2.84l.1.17A354.59,354.59,0,0,0,653.81,149a100.49,100.49,0,0,0-.67-18.72,61.13,61.13,0,0,0-4.27-15.91,43.12,43.12,0,0,0-4-7.45,35.91,35.91,0,0,0-12.71-11.56,41.6,41.6,0,0,0-8-3.17,50.13,50.13,0,0,0-16.65-1.42,73.14,73.14,0,0,0-14,2.42A354.19,354.19,0,0,0,542,61.89a59.12,59.12,0,0,0,3.92-10.07A33.4,33.4,0,0,0,547,46.19a17.7,17.7,0,0,0-.45-6.45,10.26,10.26,0,0,0-1.7-3.56,8.81,8.81,0,0,0-3.41-2.83,10.5,10.5,0,0,0-4-1,14.21,14.21,0,0,0-3.47.3,24.36,24.36,0,0,0-5.68,2,40.87,40.87,0,0,0-4.81,2.79,72.79,72.79,0,0,0-7.94,6.14,92.39,92.39,0,0,0-29.6-22A83.7,83.7,0,0,0,464.08,15a88.18,88.18,0,0,0-17.63-.9,5.77,5.77,0,0,0-8.27-2.49A100.77,100.77,0,0,0,400.35.49,109,109,0,0,0,355.54,5.6a101.3,101.3,0,0,0-38.61,23.48c-1.07,1-2.11,2.12-3.13,3.21a351,351,0,0,0-70,22c-2.1-.68-4.21-1.33-6.34-1.92C225.58,49.18,213,47.5,200.4,49a69.4,69.4,0,0,0-9.33,1.77,61.73,61.73,0,0,0-9,3.08,63.8,63.8,0,0,0-16.24,10A71.22,71.22,0,0,0,159,70.46a80.41,80.41,0,0,0-5.89,7.41A93.57,93.57,0,0,0,144,94.24a135.19,135.19,0,0,0-9.33,34.24q-5.34,5.33-10.47,10.89l0,0q-3.11,3.36-6.11,6.81l-.73.83q-2.84,3.27-5.6,6.6c-.32.4-.65.79-1,1.18l-.92,1.11c-.9,1.11-1.77,2.23-2.66,3.35s-1.8,2.25-2.69,3.39c-.53.69-1,1.39-1.57,2.08-1.31,1.72-2.63,3.42-3.9,5.16v0a101.09,101.09,0,0,0-14.87-6.08c-1.29-.37-2.59-.71-3.89-1a38.15,38.15,0,0,0-4-.64,20,20,0,0,0-8,.52,10.65,10.65,0,0,0-6.14,4.89,17.33,17.33,0,0,0-2,7.7,37,37,0,0,0,.52,8c.16,1.22.44,2.42.68,3.62l-.14.07A5.81,5.81,0,0,0,58.31,191a5.89,5.89,0,0,0-.09,1,6.84,6.84,0,0,0,.07.91A87.35,87.35,0,0,0,37,213.76a115.49,115.49,0,0,0-16,31.52A144.32,144.32,0,0,0,14,280a148.13,148.13,0,0,0,.77,30.14,5.82,5.82,0,0,0-3.58,3.25,6,6,0,0,0-.46,2.28,5.85,5.85,0,0,0,.21,1.51q-.6.75-1.17,1.53A53.79,53.79,0,0,0,3.7,329.41a47.55,47.55,0,0,0-3.27,12,51.59,51.59,0,0,0,2.78,24.31A74.08,74.08,0,0,0,15,386.55a110.86,110.86,0,0,0,16.12,16.36c0,.36.05.71.07,1.07,0,.16,0,.33,0,.49.18,2.52.37,5,.6,7.52,0,.07,0,.13,0,.2q.82,9,2.08,17.78c.28,2,.58,3.92.89,5.87l0,.16c.39,2.43.81,4.84,1.25,7.25l.09.52c.33,1.84.69,3.67,1.05,5.5v0q1.63,8.24,3.67,16.34h0c.72,2.87,1.47,5.74,2.26,8.58.63,2.27,1.3,4.52,2,6.77.16.54.31,1.09.47,1.63.82,2.69,1.67,5.35,2.55,8l.09.29q1.3,3.93,2.7,7.82c0,.14.09.27.13.4l.42,1.18c.09.26.18.52.28.78.31.86.64,1.72,1,2.58A332.86,332.86,0,0,0,77.12,555.5l.54.92.46.8v0A352.61,352.61,0,0,0,98.7,588.68a61.09,61.09,0,0,0-6.13,5.51,24.6,24.6,0,0,0-2.94,3.73,11.12,11.12,0,0,0-.68,1.21c-.11.23-.21.42-.33.68s-.22.62-.32.93a8.37,8.37,0,0,0-.31,3.84,7.91,7.91,0,0,0,4.87,5.63,19.11,19.11,0,0,0,4.91,1.24,50.37,50.37,0,0,0,8.63.21c3.33-.18,6.58-.53,9.8-1A353.55,353.55,0,0,0,384.73,733.84c119.61,0,225.37-59.26,289.53-150-3.71-2.91-7.24-6-10.68-9.12A342.23,342.23,0,0,1,517.2,693.11a340.05,340.05,0,0,1-373.12-73q-6-6-11.69-12.28,3-.61,6-1.28c20.82-4.71,41.19-10.79,61.36-17.4s40.09-13.93,59.81-21.76,39.16-16.19,58.37-25.15q-2-1.29-3.9-2.61-27.63,12.8-55.94,24-29.48,11.7-59.59,21.68c-20.08,6.58-40.37,12.63-61,17.29q-4.06.91-8.16,1.73c-2.46.49-4.92,1-7.38,1.36-2.93.5-5.88.93-8.83,1.27-2.3.27-4.6.49-6.91.62a46.45,46.45,0,0,1-7.91-.19,14.88,14.88,0,0,1-3.84-.94,3.93,3.93,0,0,1-2.56-2.79A6.09,6.09,0,0,1,93,600a20.3,20.3,0,0,1,2.46-3.1,56.67,56.67,0,0,1,5.59-5h0c.8,1.06,1.6,2.12,2.42,3.18l0,0c1.63,2.12,3.29,4.21,5,6.3l.1.12h0c.49.62,1,1.24,1.49,1.85,3.71-.35,7.47-.89,11.21-1.52,1.67-.28,3.34-.59,5-.9q-3.33-3.88-6.52-7.85-5.5-6.81-10.63-13.87l-.3-.41c-1.1-1.52-2.2-3-3.27-4.59l-.2-.29q-3.15-4.51-6.16-9.14c-.12-.18-.24-.36-.35-.54-.85-1.31-1.69-2.64-2.53-4l-1.27-2c-.76-1.23-1.52-2.47-2.27-3.71-.6-1-1.19-2-1.78-3-1-1.68-1.95-3.36-2.9-5.06-.65-1.15-1.3-2.31-1.94-3.47-.52-.94-1-1.89-1.54-2.84-.74-1.38-1.46-2.76-2.18-4.15l-.94-1.8c-2.8-11-6.67-22.34-4.81-31.76,4.8-11.3,8.35-19.11,7.67-27.07q12.27-13.61,25-26.79Q127.67,429.9,147,412.32q8.13-7.32,16.47-14.39l10.12,23.7c12.59,12.79,20.2,28.83,40.5,22.3,5.84-.18,9.45,2.43,14.68,4.82,3.7-1.22,7.44-2.32,11.2-3.26-.48-1.25-1-2.51-1.43-3.77l-1.86-5.51-.93-2.75-.47-1.38-.38-1.4c-1-3.74-2.06-7.46-3-11.21l-2.37-11.37c-.67-3.81-1.15-7.65-1.74-11.48a244.38,244.38,0,0,1-1.21-46.28l0-.45,2.6-1.75c.55-.36,1.12-.71,1.67-1.08l-.32,3.56a240.12,240.12,0,0,0,1.19,45.49c.57,3.76,1,7.53,1.7,11.27l2.33,11.16c.95,3.68,2,7.33,3,11l.37,1.38.45,1.35.92,2.7,1.83,5.39c.51,1.42,1,2.82,1.59,4.22a197.2,197.2,0,0,0,70.52,90.51c1.26.89,2.52,1.77,3.81,2.63.38.26.77.5,1.16.76.92.61,1.84,1.21,2.78,1.81,1.82,1.16,3.65,2.29,5.51,3.39a193.64,193.64,0,0,0,40.77,18.12c1.34.42,2.68.81,4,1.2s2.68.75,4,1.11a183.78,183.78,0,0,0,31.77,5.49,5.79,5.79,0,1,1,1.34,4.1,187.07,187.07,0,0,1-33-5.44c-1.35-.34-2.68-.7-4-1.07q.18,12.87-.69,25.72a244.92,244.92,0,0,1-5.77,39.59c-.33,1.42-.67,2.84-1,4.25h.28a5.84,5.84,0,0,1,1.88.31l.3.12a5.72,5.72,0,0,1,1.36.78,6,6,0,0,1,1.27,1.34,6.65,6.65,0,0,1,.33.58,2.1,2.1,0,0,1,.13.26l1.7-.59a405,405,0,0,0,53.46-23.11q12.18-6.36,23.91-13.56a399.61,399.61,0,0,0,33.16-22.63q6-4.53,11.78-9.3c1.09-.89,2.18-1.8,3.26-2.7s2.13-1.79,3.18-2.69a428.75,428.75,0,0,0,74.58-83q2.24-3.26,4.42-6.56c-.83-1.15-1.67-2.31-2.5-3.48q-2.56,3.92-5.22,7.77a424.51,424.51,0,0,1-74.89,83.09l-1.05-.53a34.54,34.54,0,0,0-6.28-2.29,38.75,38.75,0,0,0-5.57-1.06,45.3,45.3,0,0,0,.07-6.07,13.91,13.91,0,0,1,.25-3.15c1.23-6.83-4.2-7.57-5.56-14.5a17.88,17.88,0,0,1-.16-7.49,5.12,5.12,0,0,0-1.1-4.68c-2.08-2.32-2.19-5-.27-8.32,16.11-34.49,57.46-54.65,65.74-94.2q-3.76-6.18-7.39-12.46c-6.08,2.92-13.32,4.29-19.28,6.5-11.1,6.59-10.14-.05-18.44-2.63.42-.68.84-1.36,1.25-2A3.46,3.46,0,0,0,501.1,408c.64-1.13,1.27-2.27,1.87-3.43a4.87,4.87,0,0,0,3.83-.17c6.18-4,13.76-7.25,20.92-10.95-1.66-3.14-3.3-6.31-4.89-9.5-3.48-7.07-6.76-14.27-9.58-21.74-1.4-3.74-2.67-7.55-3.73-11.48-.51-1.93-1-3.89-1.33-5.9a5.8,5.8,0,1,1,4-.42c.33,1.78.74,3.55,1.2,5.3,1,3.76,2.24,7.45,3.61,11.1,2.74,7.29,6,14.38,9.42,21.36q2.36,4.74,4.83,9.4c2.69,5.08,5.49,10.11,8.36,15.1q2.42,4.19,4.9,8.32,2.37,4,4.78,7.9c9.7,15.67,20,31,30.62,46,.83,1.17,1.65,2.34,2.49,3.5s1.68,2.32,2.51,3.48q8.67,12,17.66,23.7c9.5,12.33,19.3,24.45,29.48,36.23q5,5.75,10.09,11.38a5.8,5.8,0,0,0-1,3.3,5.91,5.91,0,0,0,.3,1.84c.09.24.19.48.3.71a290.51,290.51,0,0,1-23.45,22.71,265.94,265.94,0,0,1-101,54.15,311.11,311.11,0,0,1-37.64,8.3A340.47,340.47,0,0,1,441.21,642c-5.71.26-11.42.38-17.14.4a63,63,0,0,0,12.84-19.94c10-1.52,15-7.78,13.88-15.6q-11.37,6.92-23.17,13.08a404.57,404.57,0,0,1-46.11,20.49c-2.9,1.08-5.81,2.14-8.73,3.16,9.83,1,19.69,1.87,29.57,2.37q8.82.38,17.65.44c7.14,0,14.27-.08,21.4-.4a344.16,344.16,0,0,0,38.85-3.88,314.34,314.34,0,0,0,38.13-8.41A272.71,272.71,0,0,0,589.48,602a276.61,276.61,0,0,0,31.38-23.21,294.13,294.13,0,0,0,23.73-23l.07,0a5.77,5.77,0,0,0,5.18-.36l.24.25c4.56,4.79,9.23,9.48,14,14l1.76,1.62c3.45,3.18,7,6.27,10.67,9.16,1.81,1.43,3.65,2.81,5.53,4.12a51.07,51.07,0,0,0,10.18,5.69,16.52,16.52,0,0,0,5.66,1.27,7.78,7.78,0,0,0,2.87-.46,6.28,6.28,0,0,0,2.38-1.64,10.54,10.54,0,0,0,2.3-5.28,28.26,28.26,0,0,0,.4-5.81,74.09,74.09,0,0,0-1.39-11.59,201.94,201.94,0,0,0-6-22.52v0h0a352.85,352.85,0,0,0,40.55-164.75c0-1,0-2,0-3a12.45,12.45,0,0,0,4.7-.91,6.51,6.51,0,0,0,1.1-.51c.35-.19.73-.37,1-.58a16.34,16.34,0,0,0,1.84-1.38,22.14,22.14,0,0,0,5-6.6A45.4,45.4,0,0,0,757,352.24,75.86,75.86,0,0,0,757.62,337.9ZM639,320.59c-3-4.84-6.4-9.37-9.63-14a277,277,0,0,0-22-25.91,254.19,254.19,0,0,0-25.28-22.59q-6.23-4.73-12.76-9c-.11-1.66-.21-3.32-.33-5q8,5.1,15.52,10.82a259.64,259.64,0,0,1,25.72,23,279.87,279.87,0,0,1,22.3,26.32c2.77,4,5.66,7.88,8.31,11.95-.32,1.94-.65,3.88-1,5.82Zm51.79-132.24a11.19,11.19,0,0,1,6.17,1.22c4,2.06,7.33,6.22,9.8,10.84a64.29,64.29,0,0,1,5.55,15.2,100.74,100.74,0,0,1,2.44,16.4,131.19,131.19,0,0,1-.07,18.17,352.91,352.91,0,0,0-30.17-59.59A14.91,14.91,0,0,1,690.82,188.35ZM607.73,94.74A46,46,0,0,1,623.05,96a37.73,37.73,0,0,1,7.16,2.84,34.49,34.49,0,0,1,6.28,4.45,35.42,35.42,0,0,1,5,5.84,39.58,39.58,0,0,1,3.68,6.77,56.78,56.78,0,0,1,4,14.87,90.24,90.24,0,0,1,.77,13.74c0,1.66-.07,3.32-.16,5q-.18,3.17-.5,6.32a5.8,5.8,0,1,1-5.63,2.81,6,6,0,0,1,1.5-1.68c.43-3.92.71-7.85.79-11.76q0-2.56,0-5.13a356.41,356.41,0,0,0-44-40.58q-2,.36-4.08.84c-1.36.32-2.72.68-4.07,1.08-2.9.85-5.76,1.87-8.58,3q-2.68,1.06-5.31,2.26A153.1,153.1,0,0,0,554,122q-6.35,4.62-12.31,9.76c-.65-1.19-1.32-2.37-2-3.54q5.8-4.95,12-9.46A157,157,0,0,1,578.15,103c1.05-.48,2.11-.94,3.17-1.39a105,105,0,0,1,11.26-4.06l1.21-.34c1.27-.35,2.56-.68,3.84-1A66.38,66.38,0,0,1,607.73,94.74Zm-89.6-48.07a74.4,74.4,0,0,1,7.52-5.83A37.09,37.09,0,0,1,530,38.32a20.4,20.4,0,0,1,4.73-1.7,7.92,7.92,0,0,1,4.93.34,5.73,5.73,0,0,1,3,3.86,13.79,13.79,0,0,1,.31,5,28.7,28.7,0,0,1-.94,4.94,55.28,55.28,0,0,1-3.65,9.37l0,0q-7.5-3.61-15.21-6.89c-.75-1.06-1.51-2.12-2.3-3.15l-.25-.32-1.82,1.64-.81.77-.33.31,0,0a96.19,96.19,0,0,1,11.17,18.61l0,0a83.89,83.89,0,0,1,5.72,17.13,5.52,5.52,0,0,1,.71,0,5.8,5.8,0,1,1-5.79,5.79A5.73,5.73,0,0,1,531,90.28a82.82,82.82,0,0,0-7.8-21.76,94.65,94.65,0,0,0-8.35-13.19c-.48.49-1,1-1.44,1.47-1.72,1.8-3.39,3.65-5,5.52q-4.05,4.6-7.88,9.44-5.16,6.55-10,13.39c2.11.88,3.21,1.9.92,1.35l-1.45-.61-1.7,2.43c3,3.63,7.46,8.82-.17,8.44-4.09-1.43-1.92-1.13,1.22-1.12,0-1.1-1.06-2.81-2.81-4.77q-3.33,4.88-6.54,9.84a44.39,44.39,0,0,0-4.16,2.49c-1.44,1-2.8,2-4.12,3.11.85-1.35,1.68-2.71,2.53-4Q478.76,95,483.6,88q1.33-1.95,2.7-3.88c3.54-5,7.19-10,11-14.81q3.42-4.32,7-8.47c2-2.31,4-4.57,6.15-6.78l1.83-1.86c.57-.57,1.14-1.14,1.72-1.7l.71-.68.44-.42C516.14,48.46,517.13,47.55,518.13,46.67ZM463.45,19a79.1,79.1,0,0,1,20.78,6.35,88.41,88.41,0,0,1,28.34,21.06c-.65.61-1.3,1.22-1.94,1.84l-.58.59-.36.36-.74-.81-1.1-1.18q-9.66-3.57-19.57-6.6l-.14-.05.06,0-3.61-1.09.15,0L483,39l-1.56-.45-.11,0h0c-1.92-.55-3.85-1.07-5.79-1.58h0c-.56-.12-1.07-.33-1.56-.4-3.94-1-7.92-2-11.92-2.88h0l-1.55-.34h0a354.36,354.36,0,0,0-38.71-6.21,118,118,0,0,0-19.21,8.71c-2,1.15-4,2.35-6,3.59a339.27,339.27,0,0,1,70.13,9.73c-4.29,1.36-11-.93-.53,3.81,1.67,2.51,2.07,1.87-.23,3.64.94,3.44,1.61,6.73,5.17,7.79a1.34,1.34,0,0,1,.7,2.1c-3,4.07,2.25,4.36,7,5.59a.52.52,0,0,1-.17,1c-3.38-.22-7.8-.79-6.51.68,4.74.21-2,3.06,4.83,2.84,5.12.37-3.19,1.94-5.71-.78a.38.38,0,0,0-.66.31c.54,3.64,7.12,5.26,10.68,8l-.81,1.18c-4.81-4-10.66-7.84-15-9.47a2.33,2.33,0,0,0-2.88,3.27c.66,1.26,1.22,2.54,1.93,3.83,1.45,2.86,16.57,6.27,11.23,7.65-3.48-1.15-20.92-3.85-14.64,1a1.88,1.88,0,0,1,.65,2.1c-.27.75-.73,1.12-1.34.77a4.25,4.25,0,0,0-4.58.2c-.57.4-1.13.85-1.71,1.26a3.91,3.91,0,0,1-4.61-.22c-1.38-1-2.94,2.12-5.21,2.88-3.83,2.67-3.7,8.35-8,6.33a2,2,0,0,1-.76-3c1.11-1.6-.46-2.48-2.66-2.73a1.83,1.83,0,0,0-1.68,2.87c.54.79,1.16,1.54,1.72,2.3a2.53,2.53,0,0,1-1.57,4c-2.91.54-6.18,2.37-5.35,4.74l-.3,0a51.14,51.14,0,0,0-5.83,1c-2.06.49-4.07,1.09-6,1.76-.84-1.14-1.64-2.4-2.51-3.57-.41-1.32-.84-2.62-1.28-3.93,4.63,1.24,11.82,3.59,15,.45,4.06-6.69-10.41-9.81-19.14-11.19A57.88,57.88,0,0,0,400,87a25.05,25.05,0,0,0-6.41-6.27,15,15,0,0,0-4.75-2,13.15,13.15,0,0,0-5.41,0,18.59,18.59,0,0,0-8.38,4.55,40.72,40.72,0,0,0-5.57,6.29,92,92,0,0,0-7.95,13.64q-1.43,3-2.73,6c-2.08,1.55-4,3.28-4,5.49-3.17,1.7-6,3.3-8.71,4.77q-8.07-7.15-16.43-14c-1-.85-2.07-1.68-3.11-2.52q4.72-6.39,9.7-12.59a297.26,297.26,0,0,1,29.51-32,195.31,195.31,0,0,1,23.77-19.06c3.61-2.44,7.31-4.76,11.12-6.91a126.83,126.83,0,0,1,12.2-6,105.68,105.68,0,0,1,22.78-6.93l.41-.08a4.39,4.39,0,0,0,.27.47,5.8,5.8,0,0,0,10.42-1.67A84.42,84.42,0,0,1,463.45,19ZM347.9,121a1.81,1.81,0,0,1,.43-.36,1.56,1.56,0,0,1-.07.69ZM262.68,61.74a337.86,337.86,0,0,1,36.23-11.65c-2.57,4.33-13.81,6.33-17.61,8.61h0a.75.75,0,0,0-.51.16,31.51,31.51,0,0,0-11.09,6.27C267.37,64,265,62.83,262.68,61.74Zm57,9.59c.74-4.75,5,.19,6.05-7,1.63-.15,4.27,1.53,5.47.13-1.3-2.23.14-2.59.14-2.59,4.76-3.21,10.06-4.24,15.27-5.47a2.68,2.68,0,0,0,1.25-4.53c-.51-.5-1.22-1.17-2.38-2.11,10.55,3,8.43-4.52-.8-4.9-2.34.41-4.39,1-6.66,1.59,1.38-1.26,2.22-2-.28-1.76a5,5,0,0,0-3.14-1.86,342.89,342.89,0,0,1,48.09-3.63A203.77,203.77,0,0,0,363.1,55.36a302.84,302.84,0,0,0-29.91,32.47q-5,6.19-9.71,12.59-10.2-8.06-20.9-15.5-4.47-3.09-9.05-6l21.61-5.72C318.7,70.39,318.27,73.79,319.65,71.33ZM356.81,9.4A105.16,105.16,0,0,1,400,4.47a97.09,97.09,0,0,1,35.69,10.34c-.05.17-.09.34-.13.51q-2.81.48-5.57,1.13a115.76,115.76,0,0,0-25.35,9.29q-9.87-.55-19.89-.56a356.45,356.45,0,0,0-56.48,4.49c-.79.64-1.56,1.31-2.33,2l-.69.63q-1,.91-2,1.86l-.7.66c-.61.59-1.2,1.19-1.79,1.8l-.51.53q-1.65,1.74-3.21,3.55c-.67.78-1.33,1.58-2,2.38q-1.53,1.9-3,3.9a106.77,106.77,0,0,0-10,17,5.79,5.79,0,1,1-9.42,4.52,6.17,6.17,0,0,1,.18-1.44,5.81,5.81,0,0,1,5.42-4.35,113.21,113.21,0,0,1,8-14.45c.9-1.37,1.82-2.71,2.78-4s1.76-2.35,2.68-3.5,2-2.5,3.11-3.71c.89-1,1.79-2,2.72-2.94h0c.69-.73,1.39-1.44,2.1-2.14.35-.34.7-.66,1-1A97.31,97.31,0,0,1,356.81,9.4ZM250.23,56.55l-.09,0ZM109.17,179.73l-.32.45Zm-3.6,5-.16.24Zm-41.38-9.29a13.4,13.4,0,0,1,1.48-5.91,6.55,6.55,0,0,1,3.88-3.08,16,16,0,0,1,6.35-.36,34.51,34.51,0,0,1,3.53.57c1.19.28,2.39.59,3.59.94a95.2,95.2,0,0,1,13.63,5.53A356,356,0,0,0,73.8,209.46c-2.07-4.43-4-8.92-5.55-13.47a5.73,5.73,0,0,0,1.56-3.94,5.79,5.79,0,0,0-4.41-5.62l0-.11c-.24-1.23-.54-2.46-.7-3.68A32.67,32.67,0,0,1,64.19,175.48ZM18,280.31a140,140,0,0,1,6.75-33.76,111.72,111.72,0,0,1,15.48-30.43A83.82,83.82,0,0,1,60,196.63l.25-.17A5.77,5.77,0,0,0,64,197.84c.22,0,.43,0,.64,0a156.39,156.39,0,0,0,6.8,16q1.68,3.46,3.47,6.87c1.46,2.76,3,5.5,4.53,8.21h0c3.78,6.58,7.83,13,12.06,19.3q9.08,13.43,19.29,26c-1.53.2-3.06.42-4.59.65-4.73.7-9.46,1.48-14.16,2.39-7.57,1.46-15.09,3.21-22.53,5.39q-6.21,1.81-12.32,4h0c.19-.67.4-1.33.59-2,.39-1.32.78-2.65,1.18-4s.74-2.41,1.12-3.61c.44-1.39.89-2.78,1.34-4.17l1.14-3.41c.51-1.48,1-2.95,1.56-4.43.37-1,.74-2.08,1.12-3.12q.92-2.47,1.88-4.95c.32-.85.64-1.71,1-2.56,1-2.5,2-5,3-7.46,1-2.26,1.94-4.5,2.94-6.73l.91-2q1.13-2.48,2.3-4.92l.06-.13q-3.1-5.28-6-10.7-1.12-2.16-2.22-4.34a351.17,351.17,0,0,0-28.32,75.59A108.22,108.22,0,0,0,27,302.05a88.52,88.52,0,0,0-8.4,6.77A144.48,144.48,0,0,1,18,280.31ZM74.8,503.07c0-.05.26-.14.28-.12C75.53,503.43,74.71,503.74,74.8,503.07ZM75,520.71c-.31-.67-.61-1.33-.91-2C74.38,519.38,74.68,520,75,520.71Zm3.23,6.89c-.32-.65-.62-1.3-.93-2C77.6,526.3,77.9,527,78.22,527.6Zm95.36-106,.06-.06Zm53.47-76.87-.07.05c-14.6,9.66-28.73,20-42.56,30.7q-11.49,9.06-22.61,18.56Q153,401.6,144.3,409.35q-19.4,17.68-37.78,36.43-11.77,12.15-23.14,24.7-3.87,4.27-7.7,8.59a5.73,5.73,0,0,1,1.08,3.36,5.62,5.62,0,0,1-.27,1.75A5.79,5.79,0,1,1,71,476.64a5.65,5.65,0,0,1,1.37.17q4.65-5.26,9.38-10.46c-3.36-6.84-10.13-14.63-21.87-25.24-1.17-1.06-3.32-4.35-5.56-8.13-2.89-4.91-5.93-10.65-7.16-13.49-.17-.35-.34-.65-.49-.92q-.51-4.41-.9-8.84c-.08-.85-.15-1.7-.22-2.55-.12-1.5-.23-3-.33-4.51-.08-1.22-.16-2.45-.23-3.67s-.14-2.57-.2-3.86c-.07-1.57-.12-3.16-.17-4.74,0-1-.07-2-.09-3-.06-2.62-.1-5.25-.1-7.89s0-5.26.1-7.89.15-5.2.27-7.79c.09-2.14.22-4.26.35-6.39,0-.53.07-1.06.1-1.59.13-2,.29-3.9.46-5.85.06-.69.11-1.39.18-2.08q.26-2.81.56-5.59c.08-.77.17-1.53.26-2.3q.3-2.73.66-5.45l.33-2.36c.25-1.8.5-3.61.78-5.41.12-.75.25-1.5.37-2.25.3-1.84.6-3.68.92-5.52.09-.47.19-1,.27-1.42q1.16-6.3,2.55-12.55c.06-.3.12-.59.19-.89.34-1.49.7-3,1.06-4.46.27-1.12.53-2.25.81-3.37v0c-1.27.52-2.54,1-3.79,1.59a128,128,0,0,0-12.42,6.31q-3.69,17.07-5.72,34.7h0a339.24,339.24,0,0,0-2.12,52.78l0,0,0,0c0,1.18.07,2.37.12,3.55,0,.35,0,.71.05,1.07s0,.67.06,1h0v0a103.63,103.63,0,0,1-12.65-13.26A70.2,70.2,0,0,1,7,364.34,47.42,47.42,0,0,1,4.4,341.92a43.4,43.4,0,0,1,3-11A50.3,50.3,0,0,1,13,321.06l.39-.51a5.75,5.75,0,0,0,3.13.92,5.66,5.66,0,0,0,1.31-.15,5.8,5.8,0,0,0,4.43-4.9,6,6,0,0,0,0-.74A5.75,5.75,0,0,0,21,312.05a81.18,81.18,0,0,1,8.31-6.73A98.25,98.25,0,0,1,39.6,299c3.14-1.71,6.36-3.28,9.62-4.73,2.2-1,4.43-1.87,6.67-2.74h0q7.28-2.81,14.77-5c7.29-2.14,14.7-3.87,22.16-5.3,5.41-1.05,10.86-1.94,16.32-2.71l4.68-.63,1.51-.2,3.21-.36q9.74-1.08,19.49-1.76c15.16-1,30.37-1.29,45.56-1.07,2.37,0,4.73.11,7.1.17l4.18.1,4.18.17q9.3.35,18.59.9,5.75.35,11.49.78l5.68.43,5.25.45a5.79,5.79,0,0,1,10.3-3.11,6.7,6.7,0,0,1,.56.83,5.84,5.84,0,0,1,.71,2.79,5.78,5.78,0,0,1-3.26,5.2,5.78,5.78,0,0,1-4.29.32l-.08.22c-1.13,3.63-2.36,7.23-3.4,10.88l-2.89,11-.72,2.75c-.24.92-.39,1.86-.6,2.79l-1.14,5.58-1.15,5.58-.28,1.4-.22,1.41-.41,2.82c-.43,3-.9,5.93-1.31,8.91l4-2.56.43-.27,5.15-3.26,5.68-3.37,5.69-3.37c1.9-1.12,3.78-2.26,5.72-3.3l11.6-6.36c1.91-1.09,3.9-2.05,5.86-3.05l5.91-3,5.9-3,6-2.77,6-2.77c2-.91,4-1.88,6.05-2.69l12.23-5.08c2-.88,4.1-1.61,6.17-2.38l6.22-2.29,3.66-1.35c-4.84-1.63-11.09-1.13-15.17-4.59-6.48-5.49-6.69-4.25.12-10.79,2.78-3-4.07-5.62-.44-8.17,5.27-5.3.29-.56-3.8-5.34-5.32,1.17-10.53,2.21-15.67,0a133.82,133.82,0,0,0-44.88,6.1c-2.09-1.54-4-1.75-6.89-1.82-5.23,1.23-3.75-8.67-8.22-3.06-3.81,6.73-11.18,9.65-17.13,13.7q-10.81-.72-21.66-1.14l-4.18-.17A403.92,403.92,0,0,1,214.38,228q6.38-13,13.73-25.42a249.05,249.05,0,0,1,16.06-24,133.38,133.38,0,0,1,11.24-13,69.41,69.41,0,0,1,8.91-7.58,32.59,32.59,0,0,1,6.34-3.42,16.2,16.2,0,0,1,5.66-1.16,11.1,11.1,0,0,1,1.41.07,11.24,11.24,0,0,1,6.42,3,17.35,17.35,0,0,1,2.44,2.83A21.57,21.57,0,0,1,288,161.7a5.6,5.6,0,0,1,1.29-.36l.39-.69,1.35-2.37,2.69-4.73c1.62-2.83,3.3-5.62,5-8.42.19-.32.38-.65.58-1q5.61-9.34,11.56-18.48,5.39-8.24,11.08-16.27l-3.12-2.51q-5.84,8.19-11.31,16.59c-2.22,3.41-4.39,6.84-6.54,10.29-3.49-.83-5-1.17,1.2-4.26-.45-4.68-12,.44-12.84,5.4-4.75,4.12,1.06,3.64-4.24,7.93,6.42-2.21,1.48,3.93-.92,6.2,6.6,1.15,4.84,1,5.45,3.69L288.28,155l0-.05-.17-.21a5,5,0,0,0-.38-.42l-.84-.79-.87-.78-1-.69c-.33-.22-.65-.46-1-.67l-1.11-.54a11.62,11.62,0,0,0-2.3-.88,7.59,7.59,0,0,0-1.21-.29c2.58-3.34,3.76-6.1-2.08-6.42.39-2.5-10-.35-8,2.91-2.12,2.62-4.7,1-7.39.63-1.63,2.24-6.53,6.47-1.14,7.93-7.13,3.77-9.35,6.7-8.8,8.6l-1.39,1.44A144.64,144.64,0,0,0,241,176.15a253.45,253.45,0,0,0-16.32,24.4c-5,8.38-9.59,17-13.88,25.7a407.63,407.63,0,0,0-18.72,44.45c-2.81-.08-5.61-.16-8.42-.2-15.28-.22-30.6.08-45.89,1.08q-11.14.76-22.26,2.07-11-13.35-20.66-27.66c-4.68-7-9.13-14.09-13.23-21.38h0c.26-.53.55-1,.82-1.57q1.08-2.09,2.18-4.15c.51-.95,1-1.9,1.55-2.85.63-1.16,1.28-2.31,1.93-3.47q1.41-2.49,2.86-5c.61-1,1.22-2.08,1.84-3.12.74-1.24,1.5-2.47,2.26-3.7l1.28-2.05q1.24-2,2.52-4l.43-.65.82-1.25h0q4.52-6.87,9.37-13.53c.81-1.12,1.65-2.22,2.48-3.33-.73,1-1.47,1.94-2.19,2.93.72-1,1.46-1.95,2.19-2.93l2.09-2.79L115,172c1.6-2.07,3.21-4.13,4.85-6.16-1.59,2-3.15,4-4.7,6,1.55-2,3.11-4,4.7-6q2.81-3.47,5.71-6.88l.1-.12c1.82-2.14,3.68-4.25,5.55-6.34l.54-.6c1.71-1.91,3.46-3.8,5.22-5.67.33-.34.64-.69,1-1,1.45-1.54,3-3,4.44-4.56,2.64,3,6.11,6.9,7.75,10.05a3.71,3.71,0,0,0,5.91,1,30.21,30.21,0,0,0,7.81-14.87c1.34-6.83,1.81-14.13,3.93-19.55l1.68-1.39q2.44-2,4.92-4l2-1.55,3.49-2.68,2.37-1.78q2.28-1.69,4.58-3.34l2.83-2c.95-.66,1.9-1.32,2.86-2q2.31-1.59,4.64-3.14l2.51-1.64c1.08-.71,2.17-1.41,3.26-2.09q2.1-1.33,4.23-2.64l.13-.09h0l4.24-2.53,1.94-1.15c1.33-.77,2.66-1.54,4-2.29.78-.45,1.57-.88,2.36-1.32,1.27-.7,2.53-1.41,3.81-2.1q2.85-1.53,5.73-3c.93-.48,1.87-.94,2.8-1.41l4-2,2.71-1.3c1.47-.7,2.94-1.38,4.42-2.06l2.28-1q3.38-1.52,6.78-3h0c-1.18-.49-2.37-1-3.56-1.4-2.87-1.1-5.75-2.11-8.67-3l-1.94-.58-2.27-.67-.46-.13-2-.53-.52-.13-.21,0a352,352,0,0,0-35.53,19.49h0q-3,1.86-5.89,3.77l-.41.27c-1.88,1.23-3.74,2.48-5.6,3.74l-.69.48Q181.7,89.07,179,91l-.39.28q-5.69,4.08-11.19,8.36l-.44.35q-2.7,2.1-5.36,4.26l-.42.34Q157,108,153,111.5t-8,7.13l-.26.24-.21.19h0q-2.52,2.32-5,4.71h0a125,125,0,0,1,8.17-27.93c4.74-11,11.49-21.23,20.69-28.93a60.11,60.11,0,0,1,15.23-9.36,59,59,0,0,1,8.49-2.89A65.78,65.78,0,0,1,200.89,53c11.9-1.44,24,.14,35.51,3.28l1.82.53q4,1.17,8,2.57c2.16.76,4.32,1.57,6.45,2.42,1.61.65,3.21,1.31,4.8,2,1.94.85,3.86,1.74,5.78,2.65l2.25,1.07,1.1.56c1,.51,2,1,3,1.53,7.66,4,15.09,8.36,22.34,13.05q4.2,2.71,8.32,5.57c7.11,4.91,14,10.08,20.81,15.43l3.13,2.5,3.11,2.52q7.63,6.24,15,12.76,4,3.52,7.94,7.12a5.62,5.62,0,0,1,1.28-.8,5.56,5.56,0,0,1,3.25-.46,5.28,5.28,0,0,1,1.06.25,222.58,222.58,0,0,1,9.23-22.6c.3-.61.62-1.23.93-1.84l.74-1.45c.19-.37.4-.73.59-1.1a73.86,73.86,0,0,1,5.33-8.65,36.24,36.24,0,0,1,5-5.65,14.66,14.66,0,0,1,6.53-3.62,9.53,9.53,0,0,1,7.2,1.49,21.26,21.26,0,0,1,5.35,5.27,49.89,49.89,0,0,1,4.45,7.52c.94,1.9,1.79,3.85,2.59,5.81a156.23,156.23,0,0,1,5.06,15c.37,1.29.73,2.59,1.07,3.9s.68,2.61,1,3.92c.5,2,1,4,1.44,6.07a493.17,493.17,0,0,1,9.15,59.7q.82,8.58,1.39,17.2c0,.55.07,1.09.1,1.64s.08,1.23.11,1.85c0,.18,0,.35,0,.52,0,.55.07,1.1.1,1.65.07,1.34.12,2.69.18,4,.05,1.08.11,2.16.16,3.25.15,4.08.23,8.18.24,12.27,0,.94,0,1.89,0,2.83,0,3.16-.12,6.32-.32,9.48a5.79,5.79,0,1,1-4,0c.21-3.11.3-6.29.33-9.46,0-.3,0-.59,0-.89-1,.49-2.07,1-3.12,1.39-8.4,1.58-20.82-6.13-11.35-13,.06-.54.11-1,.16-1.47-2.41.75-4.83,1.45-7.21,2.26l-4.78,1.74a5.79,5.79,0,1,1-9.16-5.53l-.17-1-.18-.92c-.13-.6-.24-1.21-.37-1.81-.51-2.4-1.11-4.79-1.76-7.16a127,127,0,0,0-4.73-14c-3.71-9.08-8.43-17.84-14.56-25.17a55.62,55.62,0,0,0-4.29-4.51q-2.2,2.42-4.35,4.87-7.08,8.15-13.58,16.81c-2.18,2.87-4.29,5.8-6.37,8.75-1,1.47-2.06,3-3.09,4.45l-.94,1.41a5.93,5.93,0,0,1,.43,2.19,5.8,5.8,0,1,1-11.39-1.52l0,0-.13-.14-.18-.19-.15-.14-.25-.22-.5-.45a39.12,39.12,0,0,0-4.19-3.29,37.76,37.76,0,0,0-9.54-4.58,30.24,30.24,0,0,0-20.41.74,34.14,34.14,0,0,0-6,3.23,2.94,2.94,0,0,0,1.56,2.41c1.56,1.31-.58,3.41-.55,5.05-2.51,11-8.68,10.95-15.76,9.08-.58,1-1.15,2-1.66,3-1.15,2.1-2.16,4.3-3.11,6.52a5.79,5.79,0,1,1-5.31-3.47,5.62,5.62,0,0,1,2.25.46c.82-1.83,1.68-3.63,2.63-5.38.4-.76.82-1.52,1.24-2.26a68.54,68.54,0,0,1,5.06-7.7,46.68,46.68,0,0,1,12.88-12,36.14,36.14,0,0,1,5.23-2.65,34.21,34.21,0,0,1,23.1-.86,41.66,41.66,0,0,1,10.59,5.08,43.57,43.57,0,0,1,5.55,4.51,5.72,5.72,0,0,1,3.24-1,5.79,5.79,0,0,1,2.52.58A340.37,340.37,0,0,1,353,166.53c.78-.88,1.56-1.76,2.36-2.63s1.81-2,2.72-3,1.85-1.94,2.79-2.9a216.62,216.62,0,0,1,21.36-19.38l.36-.29a141.2,141.2,0,0,1,18.18-12.17q2.73-1.51,5.57-2.88c-.35-1.31-.7-2.62-1.07-3.92a153.91,153.91,0,0,0-5.08-15.2,62.77,62.77,0,0,0-5.66-11.16,10.53,10.53,0,0,1-2-1.17c-1.05,2.21-1.84,1.37-2.9,1.65a2,2,0,0,1-2-.72c-.85-.93-3.64,2.79-6.05,2.48a1.54,1.54,0,0,0-1.28.36c-1.5,1.41-2.88,1.36-4.53,1.28a9.74,9.74,0,0,0-2,.76,102.22,102.22,0,0,0-4.92,9,222.82,222.82,0,0,0-9.58,23.66A5.79,5.79,0,1,1,348.23,133a6.54,6.54,0,0,1,.07-.89q-4.85-4.43-9.78-8.76c-1.37.64-2.71,1.23-4,1.73-2.24,0-5.47,3-4.83,4.81a1.41,1.41,0,0,1-.43,1.55c-1.44,1.15-1.55,4.1-2,5.74-2.79,3.82,1.73-.34.73,2.91-.5,1.6-2.43,2-.85,3,5.71,7.73,14.37-6.94,17.1-1.5-.78,2.89,1,7,1.66,10.15a20.08,20.08,0,0,0-2.9.05,20.56,20.56,0,0,0-4.05.86c-1.4-3.19,5.91-6.48-4.49-2.49-.84,0-2.5.52-2.29,1.62.58,1,3.74-2.1,2.68-.1-3.91.74-4.46,3.25-4.35,6.21a35.91,35.91,0,0,0-5.31,6.57c-.59.91-1.13,1.85-1.66,2.79-4.74.54-9.6,1.18-12.88,6.33a4.82,4.82,0,0,1-2.16,2.43,3.1,3.1,0,0,1,.54.2c-.62.52-1.08.35-1.19.12-3.07,1.29-7.37.59-9.43,3.67-1.33,3.15-5.5,4-8.33,5.21-.45.05-.89.12-1.33.19-4.56-3.47-4.19-.77-5.31,1.27-.92.29-1.82.62-2.71,1l-1.51.65-.42-.06c-4.6-4.79-10.45.9-5.93,3.69a51.79,51.79,0,0,0-11.94,11.64,72.84,72.84,0,0,0-5.81,9c-3.83-1-7.64-1.58-11-.42-4.7,4.15-3.11,15.68-10,20.57-4.92,3.84,1,9.3-4.12,14,16,.28,5.83,7.09,13.26,8.28,4.47-3.88,10.5-1.39,15.89-1.39,4.49-3.86,8.38-5.95,13.15-9.79-3.89-8.68,10.34-12.8,16.5-15.21,4.64-4.78,2.79-13.9,13.23-7.51,6.9,4.66,18.53-12.77,22,.62,2.3,10.58,14.7,14.49,20.9,21.17,5.28,5.48-1.27,9.28,0,12.08,3.51.26,3.43-5.47,6.93-5.73-2.92-6.17-2.07-12.35,5.28-5.54,7.61-2.09-18.44-12.88-17.8-17.52.5-5-6.72-5.67-5.91-10.39,1.75-2.54-.57-4.64,3.88-5.19,4.42-2,1.72,1.9,3.16,4.56.89-.38,3.72-4,3.12-1.39,1.87,8.25,12,11.56,19.09,18.26,2.94,4.7-.84,11.48,5.49,16.26,3.7,1.53.06,4.74,5.92,5.38-4.11,2.19-1.53,2.82-.66,6.13-.14,3.06,2.66,2.74,5,3.37a1.38,1.38,0,0,0,1.71-1.74c-.63-1.84-1.77-2.49.47-2.64a1,1,0,0,0,.85-1.48c-2.08-3.91,6.74,2.46,3.39-3.56,4.14.87-.59-3-2.79-3.77-2.61-.39-.88,1.41.6,2.38-3.37-.33-3.23-1.37-2.69-4,4.88.86-4.47-5.23-.45-7.46,5.38,6.83,4.5-6.66,14.91-1.37,5.17,1.57.63,2.41,1,7.27,1.88.31,3.92-1.24,3.15,1.41,3.82,7.11-6.93,3.59,1.39,7.11.58.14,3.14,6.28,1.62,5.87,8.29.11.38,1.52,3.69,1.83,8.37-.9,7.39,7.41,14.83-1.22,4.31,2.17,7,3.24,8.84,3.62l3.59-.27c2.06-.9,3.89-2.94,10.66-3.64,1.19-1.17,1.92.2,2.21,2.95l1.87,0,6.64-.15c2.21,0,4.42-.14,6.64,0l13.27.42c2.22,0,4.42.26,6.63.44l6.61.57,6.62.57c2.2.25,4.39.6,6.58.9,4.38.64,8.78,1.19,13.14,1.91l13,2.59c4.36.76,8.62,2,12.91,3.06l6.43,1.65,3.22.83c1.06.3,2.11.65,3.17,1l10.37,3.28v-1.21c0-1.09,0-2.18,0-3.26q-.15-16.65-1.34-33.25a200.46,200.46,0,0,0-38.18-17.85l-1.12-.38c4,2.91-3.24,4-5.71,3-.41,4,1.42,4.81,4.28,5.64,1.49,1.62-.85,1.24-.34,2.82,6.29.51,5,9.46,8.29,13.6-8.84,4.1-23.23,3.47-25.8-7.45,1.71-2.86-1.33-8.88,3.21-9.71-1.13-1.86-4.16-1-5.33-3.27-5.16-3.46-8.3-8.38-11.89-12.85a186.36,186.36,0,0,0-32-2.31q-5.6.07-11.19.47c6.23,3.41,20.07,8,20.78,13-1.3,11.82-24.12,7.34-30,2.38a21.13,21.13,0,0,0-8.17,1.3c0-3.6-.1-7.19-.24-10.77,0-1.26-.12-2.53-.17-3.8s-.12-2.68-.2-4c1.29-.22,2.57-.42,3.86-.6,2.66-.38,5.33-.72,8-1,1.46-.15,2.91-.28,4.37-.39q6.44-.51,12.89-.58a189.07,189.07,0,0,1,27.73,1.65,199.68,199.68,0,0,1,22,4.17q9.15,2.26,18.06,5.36a202.14,202.14,0,0,1,36.49,16.78c-.14-1.63-.28-3.24-.44-4.86-.28-3-.58-6-.92-9a335,335,0,0,0-9.55-50.93,210.86,210.86,0,0,0-8.3-24.35c-1.62-4-3.44-7.82-5.39-11.59l-.5-.94c-1.55,1.44-3.09,2.9-4.6,4.38A239.15,239.15,0,0,0,496.15,185a5.85,5.85,0,1,1-3.27-2.33,243.94,243.94,0,0,1,35.27-43.94q2.67-2.61,5.41-5.13c-.68-1.18-1.37-2.35-2.09-3.5-.6-1-1.22-1.92-1.85-2.86-4.69-6.93-10.26-13.29-16.93-17.7A32.93,32.93,0,0,0,502.05,105a26.87,26.87,0,0,0-5.63-.6,25.35,25.35,0,0,0-5.62.69,31.4,31.4,0,0,0-10.57,4.77,49.86,49.86,0,0,0-9.1,8,81.15,81.15,0,0,0-8.71,11.72c-1.08,1.89-2.14,3.79-3.2,5.69A5.8,5.8,0,1,1,447.88,137a5.77,5.77,0,0,1,1-3.28c-1.4-4.82-4.16-8.85-8.36-10.88a20.58,20.58,0,0,0-8.86-2.05,32.23,32.23,0,0,0-4.88.24,43.09,43.09,0,0,0-4.94.89,62.17,62.17,0,0,0-7.13,2.19c-.32-1.29-.66-2.59-1-3.88,1.13-.42,2.27-.8,3.42-1.15s2.51-.74,3.79-1l.82-.17a44.11,44.11,0,0,1,4.57-.8,35.61,35.61,0,0,1,5.46-.27,24.49,24.49,0,0,1,10.57,2.49,19,19,0,0,1,7.86,7.41,24.54,24.54,0,0,1,2,4.45l-.15.28.12,0,.11,0a5.87,5.87,0,0,1,4.08.54l.17-.31q1.15-2,2.4-4a85,85,0,0,1,9.17-12.35A56.19,56.19,0,0,1,474.7,109c1.07-.86,2.16-1.69,3.29-2.46a35.61,35.61,0,0,1,11.9-5.35,29.63,29.63,0,0,1,6.5-.79,31.64,31.64,0,0,1,6.51.69,37,37,0,0,1,12,5.17c7.32,4.86,13.17,11.6,18,18.82.53.78,1.05,1.58,1.56,2.38.73,1.14,1.43,2.3,2.11,3.46s1.36,2.38,2,3.59c.34.62.68,1.24,1,1.86,2,3.89,3.87,7.85,5.53,11.9a214.68,214.68,0,0,1,8.47,24.82,340.41,340.41,0,0,1,9.67,51.54q.68,6,1.19,11.91c.14,1.64.27,3.28.4,4.92s.24,3.28.35,4.92q1,15.29,1.16,30.63c0,1.39,0,2.78,0,4.18h0a5.79,5.79,0,0,1,4,10,5.5,5.5,0,0,1-1.2.89,5.74,5.74,0,0,1-2.8.72,5.81,5.81,0,0,1-5.2-3.25,5.73,5.73,0,0,1-.59-2.55,5.56,5.56,0,0,1,.27-1.74l-10-3.16c-1-.33-2.08-.68-3.13-1l-3.18-.81-6.35-1.64c-4.24-1.06-8.45-2.27-12.77-3L512.59,273c-4.31-.71-8.66-1.25-13-1.89-2.17-.29-4.33-.64-6.5-.89l-6.54-.56-6.54-.56c-2.18-.18-4.35-.42-6.54-.44l-13.12-.41c-2.19-.12-4.37,0-6.56,0l-6.56.15-1.84,0-4.72.1-6.54.47-6.55.49c-2.17.19-4.36.26-6.53.58l-13,1.64c-2.18.23-4.32.64-6.48,1l-6.46,1.14-6.46,1.14-6.41,1.43-6.4,1.45c-2.13.49-4.27.92-6.37,1.54L356.81,283c-2.12.53-4.19,1.26-6.27,1.92l-6.25,2-5.77,1.86-.47.15-6.16,2.27-6.15,2.27c-2.06.76-4.12,1.49-6.13,2.36l-12.12,5c-2,.8-4,1.77-6,2.67l-6,2.74-6,2.75-5.85,3-5.86,3c-1.95,1-3.92,1.95-5.82,3l-11.51,6.31c-1.93,1-3.8,2.17-5.68,3.28l-5.65,3.35-5.64,3.34L238,337.73l-2.43,1.54L231.31,342C229.88,342.91,228.46,343.82,227.05,344.76ZM502.46,209.53c-4-.73-4.21.19-3,1.63q-7.42-1.54-14.94-2.53c4.16-8.72,18.74-20.42,21.25-7.51C509.13,206.08,495.33,203.17,502.46,209.53ZM444,204.6c1.9,1.26,2.08,2,1.73,2.79-4.38.28-8.74.72-13.09,1.29,1.51-3.16,10.84-7.89,15.61-7.91C450.48,201.79,445.27,204,444,204.6Zm-32.66,34.81c-4.41,2.44-8.27,2.59-13.78,2C401.75,238.58,406.56,235.82,411.31,239.41Zm-30.66,15.44c-1.46,1.69-3.59-.54-5.31-.86C377.85,253.47,377.85,253.47,380.65,254.85Zm-58.52-80.2a5.69,5.69,0,0,1,2.07.39,54.8,54.8,0,0,1,4.33-8.37l.11-.16a33.62,33.62,0,0,1,2.17-3,27.09,27.09,0,0,1,2.5-2.75,18.81,18.81,0,0,1,1.42-1.24c.29-.24.61-.45.93-.68s.82-.56,1.26-.81a17.57,17.57,0,0,1,2.75-1.36,16.16,16.16,0,0,1,3.7-.85,15.58,15.58,0,0,1,2.16,0c.54,0,1.09.07,1.63.14a19.48,19.48,0,0,1,4.37,1.24,23.22,23.22,0,0,1,2.76,1.31l.38.23-1.91,2.07-.45.49-.43.47q-2,2.16-3.88,4.36l-.05,0c-2.69-1-5-2.41-8.42,0a6,6,0,0,1-3.57-2.38,28.06,28.06,0,0,0-4.06,5.06,53,53,0,0,0-4.55,9.1,5.73,5.73,0,0,1,.58,2.52,5.79,5.79,0,1,1-5.8-5.8Zm39.18-34.32c3.32-.57,5.87,2.15,8-1.34-7.26-5.06-4.51-12.44,3.09-16.15,7.12-1.8,6.28-15,16.05-8.63,0,5.57-9.8,7.51-11.47,12.68.69,4.2.15,7.18,1.79,9.39a219.27,219.27,0,0,0-21.27,19.46l-.64-.39c3-2.19,3.95-6.1,4.81-10.89C368.1,142.19,367.16,142.48,361.31,140.33Zm1.32,159.51c-1.49,3.1-17.92-2.91-22.1-7.52l5-1.62,6.18-2c2.07-.65,4.11-1.38,6.21-1.91l12.53-3.43c2.08-.61,4.2-1,6.31-1.52l6.33-1.43,6.33-1.42,6.39-1.13,6.39-1.12c2.13-.37,4.26-.79,6.41-1l12.87-1.62c2.14-.32,4.31-.39,6.46-.57l6.47-.49,6.46-.46,4.32-.1c-.91,10.87-4.7,25.3-11.08,23.2-11.42-.9-9.57-4.28-22.24,2.25-10.71-2.72-19.71-4.78-29.72-7.63-3.82-5.26-11.61-5.71-16.83-.89C361.26,292.24,366.72,297.1,362.63,299.84Zm-96.78,179.1a194.7,194.7,0,0,1-18-35.14,88.6,88.6,0,0,1,12.77-1.41c16.54,4.45,4.35,9.77,28.85,13.63,2.67.42,2.79,2,4.3,4,.82,1.18,1.54.44,2.83,2,5,6.1-2.6,23.09-2.6,23.78-.29,3.83-4.75,4.15-.65,7.2a1.61,1.61,0,0,1,.6.94c1.79,8,15.13,14.94,18,24.53a123.9,123.9,0,0,1,5.51,14A193.24,193.24,0,0,1,265.85,478.94Zm102.42,78.6q-.33-7.34-1-14.65c-.77-7.93-1.84-15.82-3.37-23.59-.07-.32-.12-.64-.18-1-.21-1.05-.43-2.09-.66-3.13Q343,526,322.47,535.72q-2-1.28-3.88-2.6,22.07-10.41,43.54-21.95a133,133,0,0,0-5-16.43A73.64,73.64,0,0,0,352,484a47.58,47.58,0,0,0-3.25-4.77,28.57,28.57,0,0,0-3.79-4,13.88,13.88,0,0,0-8.91-3.61,15.5,15.5,0,0,0-4.84.89c-.46.16-.92.35-1.37.55a5.79,5.79,0,1,1-5.59-7.3A6.05,6.05,0,0,1,326,466a5.85,5.85,0,0,1,3.4,2.9l.47-.19a19.33,19.33,0,0,1,6.17-1.12,18,18,0,0,1,11.49,4.54,33.41,33.41,0,0,1,4.35,4.55,49.81,49.81,0,0,1,3.55,5.21,75.87,75.87,0,0,1,5.41,11.37,132.34,132.34,0,0,1,4.95,15.9c.33,1.35.65,2.69.95,4s.6,2.72.88,4.08c0,.08,0,.16.05.24a246.73,246.73,0,0,1,3.61,25c.51,5.41.85,10.84,1.07,16.28C371,558.39,369.62,558,368.27,557.54Zm120.82,6.88a30.41,30.41,0,0,1,5,1.77q-1.75,1.45-3.53,2.88c-3.34,2.71-6.72,5.39-10.15,8q-15.53,11.79-32.17,22c.15-7.29,17.53-19.27,23.29-23.87a95,95,0,0,0,9.38-8c-1.17-.07-2.35-.1-3.53-.07a71.26,71.26,0,0,0-22,4.51,127.57,127.57,0,0,0-20.83,9.83,201.92,201.92,0,0,0-37,28.25,261.43,261.43,0,0,0-22.72,24.67c-1.85.67-3.69,1.33-5.55,2l-1.54.53c.68-.89,1.38-1.77,2.07-2.64a268.21,268.21,0,0,1,25-27.43A205.82,205.82,0,0,1,432.58,578a131,131,0,0,1,21.5-10.14,75.11,75.11,0,0,1,23.22-4.74,50.27,50.27,0,0,1,6.26.28A35.66,35.66,0,0,1,489.09,564.42Zm15.71-188.6a5.8,5.8,0,0,1,5.8,5.79,6.64,6.64,0,0,1-.09,1,5.79,5.79,0,0,1-4.68,4.7,90.55,90.55,0,0,1-5.8,14.23c-.52,1-1,2-1.6,3q-1.76,3.19-3.69,6.26a165.64,165.64,0,0,1-19.69,24.8c-14.59,15.31-31.17,28.6-48.43,40.77a605.29,605.29,0,0,1-53.82,33.49l-2.44,1.34c-.31-1.35-.63-2.69-1-4l1.46-.81a601.68,601.68,0,0,0,53.47-33.26c17.11-12.06,33.5-25.22,47.83-40.26a162,162,0,0,0,19.21-24.18c1.41-2.23,2.75-4.5,4-6.81-5.36-4.79-11.68-10.51-16.88-10.95-4.64-4.88-3.48-13.54-9.2-17.45-6-2.55-7.48-7.93-7.64-14,.76-9-9.45-11.36-11.35-18.9-.57-6.93-8.33-16.76-12.66-24.57-1.65-3-1.55-8.46,1.76-4.81,9.29,10.23,5.87,1.3,9.35,3.41,7.18,4.35,8.29,7.93,10.78,17.78,4,6.19,12.86,9.46,12,18.9,5.2,12.28,21.86,19.68,24.39,34,.75,2.45,1.24,6.88,2.22,10.9a85,85,0,0,0,3.7-9.61,5.79,5.79,0,0,1,2.94-10.78Zm47.9,44.95q-3.57-5.79-7-11.63c-.09-2.89-.92-5.78-2.84-4.89q-4.2-7.31-8.14-14.71c6.24-3.84,11.59-8.39,14.58-14.59,3.24-4.12,12.3-3.8,13-8.58-.74-3.91,4.69-3.07,5.55-5.74a7.56,7.56,0,0,1,.64-1.59c3-5.19,3.85-6.12,4.38-11.79a4.37,4.37,0,0,1,1.65-3.15c2.2-1.62,3.45-8.26,4.2-11.35a2,2,0,0,0-.6-1.94c-1-.89-2.73-1.37-3.66-2.49a3.64,3.64,0,0,0-1.15-.95c-6-3.08-12.81-3.95-15.39-10.16a2.08,2.08,0,0,0-3.76-.1c-3.26,6.35-7.2,10.88-15.55,12-5.2-1.95-3-5.4-4.48-10.16-.76-2-1.5-2.39-2.11-1.95a4.1,4.1,0,0,1-6.23-1.26,12.48,12.48,0,0,0-6.66-6.47c-2.69-2.19-3.83-5.84-6.06-8.43a3.43,3.43,0,0,1-.23-3.91l.06-.12a4.41,4.41,0,0,1,1.58-2c2-1.41-.53-2.51,1.81-2.65,9.76,2.68,10.09,11.38,20.27,15.27a8.25,8.25,0,0,1,2.3,1.37c9.47,7.89,16.78-8.76,20.9-.37,1.75,3.56,2.59,5.46,6.16,5.11a8.34,8.34,0,0,1,1.32-.06A73.64,73.64,0,0,0,601,306.32a3.24,3.24,0,0,1,3.54.5,38.48,38.48,0,0,1,4.47,4.69,5.07,5.07,0,0,0,2.69,1.72,10.12,10.12,0,0,1,3.88,2.28,7,7,0,0,0,5.52,1.34c2.21-.39,2.9.09,2.4,1-1.8,3.18-1.21,7.19,1.87,9.18,2.2,1.42,4.49,1.8,6.21-.69l.16-.11a3.85,3.85,0,0,1,5.89,1.91c.21.65.43,1.3.64,2q-3.16,15.17-7.69,30.05a422.06,422.06,0,0,1-24.53,62.29,443.69,443.69,0,0,1-23.86,42.85C572,450.72,562.06,435.9,552.7,420.77ZM700.55,567.59a69.76,69.76,0,0,1,1.32,10.92,24,24,0,0,1-.33,5,11.55,11.55,0,0,1-.56,2,4.88,4.88,0,0,1-.78,1.3,2.16,2.16,0,0,1-.84.58,4,4,0,0,1-1.39.2,13,13,0,0,1-4.27-1,48.39,48.39,0,0,1-9.34-5.25c-1.88-1.31-3.72-2.7-5.55-4.14q9.13-13.54,17-28A178.94,178.94,0,0,1,700.55,567.59ZM753,351.67a41.62,41.62,0,0,1-3.84,13,18.47,18.47,0,0,1-4.07,5.41,9.25,9.25,0,0,1-6.13,2.42h-.07l0-1.63a354.15,354.15,0,0,0-15.19-94.65l-.33-.38c-.66-.76-1.33-1.51-2-2.24l-.38-.42-1.34-1.41a166,166,0,0,1-5.86,20.78q-1.46,4.1-3.12,8.12c-1.3,3.15-2.71,6.25-4.2,9.31a.05.05,0,0,0,0,0,2.88,2.88,0,0,0,5.35-.17c.26-.81.94-1.09,1.6-.56,4.41,3.58,6.21,13,8.08,21.33a345,345,0,0,1,3.48,48.88A339,339,0,0,1,668.15,568l-1.29-1.19c-5-4.66-9.77-9.51-14.48-14.47a5.77,5.77,0,0,0-5.48-7.66,5.9,5.9,0,0,0-1.46.19q-5.25-5.77-10.37-11.7c-10.12-11.71-19.87-23.77-29.33-36.06q-9.43-12.27-18.49-24.85c-.84-1.16-1.69-2.32-2.52-3.48a448.09,448.09,0,0,0,25-44.64,426.09,426.09,0,0,0,24.76-62.88q3.54-11.7,6.29-23.6,1.07-4.57,2-9.19c.11-.53.21-1.06.31-1.59.38-1.93.74-3.85,1.08-5.78s.67-3.91,1-5.87c1-6.71,1.86-13.45,2.38-20.23a167.8,167.8,0,0,0-.49-33.76,86,86,0,0,0-3.65-16.49,43.35,43.35,0,0,0-6.5-12.67,5.73,5.73,0,0,1-3.56,1.23c-.22,0-.44,0-.66,0a5.78,5.78,0,0,1-5.13-5.76,5.77,5.77,0,0,1,.61-2.58h0l-.29-.13-.14-.07-.06,0h.08l.51.08A5.79,5.79,0,0,1,639,226.69a204.48,204.48,0,0,1,21.92,5.56,166.11,166.11,0,0,1,25.24,10.19,142,142,0,0,1,13.39,7.67,132,132,0,0,1,14,10.42c1.2,1,2.39,2.07,3.55,3.14.43.39.86.8,1.28,1.2.75.71,1.49,1.43,2.22,2.15l.27.27c2.73,2.74,5.34,5.6,7.79,8.6A110.74,110.74,0,0,1,752,324.57a90.14,90.14,0,0,1,1.64,13.51A71.77,71.77,0,0,1,753,351.67ZM308.47,176.06c-.21.12-.43.22-.65.32C307.72,176.17,307.89,175.92,308.47,176.06ZM650.55,359.24a63.7,63.7,0,0,1-7.38-14.56q1.58-6.29,2.9-12.64l1.8,3.09c1.48,2.42,2.74,5,4.08,7.47s2.7,5,3.93,7.56l3.91,8.23a5.79,5.79,0,0,0,4.45,9.5,5.79,5.79,0,0,0,5.44-7.8l1.21-1.15c.26-.24.55-.52.69-.67l.39-.39.78-.78.91-.92c2.06,12.18,3.56,24.18-1.67,34.62C667.81,406.44,655.41,363.26,650.55,359.24ZM402.66,129.7c1.52-.84,3.07-1.65,4.63-2.42q.65,2.63,1.24,5.25a491.45,491.45,0,0,1,9.07,59.2c.45,4.65.83,9.3,1.17,14a4.54,4.54,0,0,0-2.19.19c-2.62,1.36-5.73,4.2-6.45,7.15,3-.76,6-1.46,9-2.07.08,1.35.17,2.7.24,4-4.34.91-8.65,1.95-12.91,3.15q-6.93,2-13.69,4.4a5.79,5.79,0,0,0-4.43-2.63,131.31,131.31,0,0,0-7.38-25.26c-3.83-9.38-8.69-18.45-15.21-26.25a56.16,56.16,0,0,0-4.51-4.75l-.12-.12c.91-1,1.84-1.93,2.77-2.88a60.77,60.77,0,0,1,4.59,4.79,3.06,3.06,0,0,0,2.31-2.31c1.41-1.26,3.94.94,4.37-1.12-.83-9.46,1.05-15,10-9.47,5.77-4.64-8.38-10.51,3.81-11.77,3.16-1.4,7.35,2.19,9.38-1.06,9.79-2.86.8-3.38-7.4-2.55A129.21,129.21,0,0,1,402.66,129.7ZM156.16,371.59c-.16-14,10.38-26.32,10.52-38.24.92.65,1.85,1.3,2.8,1.91,1.14.76,2.27,1.53,3.45,2.24l2.51,1.56c1,.61,2,1.18,3,1.77a5.52,5.52,0,0,0-.05.71A5.8,5.8,0,1,0,186,336l.06-1.72.06-1.73,0-.87v-.55l.29-3.49.39-3.49c.57-4.66,1.37-9.31,2.32-13.93.63-3.07,1.33-6.12,2.08-9.16l1.28-1.35c5.55-5.14,16.1-4.27,20.63-12.45a17.24,17.24,0,0,1,1.77-7.59c4.65.28,9.3.57,13.94.92l5.66.42,5.65.5.37,0-.09.27-.22.69c-1.14,3.67-2.39,7.31-3.45,11l-2.92,11.17-.73,2.8c-.25.93-.4,1.88-.61,2.82L231.33,316l-1.16,5.67-.29,1.41-.22,1.43-.42,2.86c-.55,3.82-1.18,7.63-1.65,11.46l-.08.89c-.92.59-1.84,1.17-2.74,1.77-14.69,9.73-28.91,20.11-42.82,30.89q-11.08,8.76-21.84,17.9C156.53,382.53,156.25,379.5,156.16,371.59Zm166,178.89c-.41-2.14-.86-4.23-1.35-6.29,1.6,1,3.2,2,4.82,2.93a196.91,196.91,0,0,0,42.9,18.9q.22,13.32-.66,26.61c-1.15,16.54-3.57,33-8.27,48.76l0,0a5.91,5.91,0,0,0-.11,1.12,5.79,5.79,0,0,0,9.24,4.66c11.09,1.25,22.22,2.23,33.38,2.79q6.49.28,13,.39a46,46,0,0,1-19,8.54c-6.41,2.45-13.58.83-20.4,1.71a31.06,31.06,0,0,1-17.51.36,3.36,3.36,0,0,1-2.19-2.24,3.75,3.75,0,0,0-1.11-1.53,2.82,2.82,0,0,1-.61-3.22c.64-1.43,1.19-3-1.83-5.12-9.08-11.72-20.58-21.22-22.14-37-11.25-21.48-27.81-31.63-9.68-55.23A7.72,7.72,0,0,0,322.17,550.48Zm180.34,27.74a25.79,25.79,0,0,1,1.39,2.26,31.67,31.67,0,0,1,2.58,6.19,5.8,5.8,0,1,0,7.76-2,5.68,5.68,0,0,0-4.37-.52,33.47,33.47,0,0,0-2.47-5.58,29.78,29.78,0,0,0-2.58-3.92,27.66,27.66,0,0,0-3.66-3.91l3.08-2.6a31.62,31.62,0,0,1,3.65,3.94c3.77-2.4,8.62-3.66,12.41-5.88,1.86-3.07,5.14-3.77,5.77-7.51a2.79,2.79,0,0,1,1.67-2.15,6.88,6.88,0,0,0,4.18-5,3.19,3.19,0,0,1,2.11-2.42c14.82-5-17,75.87-33.7,68.43-6.41-.23-4.42-6.12-5.05-10.13-3.52-6.27,5-10.11,6.94-15.38C504.39,587.84,499.72,582.32,502.51,578.22ZM297.2,155.55c.75-1.32,1.52-2.62,2.29-3.92,1.72,3.89,3.67,8.58.83,12.46,1.71.84,6.78-.54,5.64,3.63-.69,3.63-11.13,5.25-4.25,7.35-6.67,6.36-17.63-1.86-24.38,2.54-2.13-.15-7.19,1-8.93,0,4.93-4.08,9.9-4.49,15.18-6.41-3.78,1.38-4.79-3.51-8.43-2.52.07-5.47,6.51.47,6.83-8.7l.18.2.4.49a6,6,0,0,1,.53.65l.53.79a16.8,16.8,0,0,1,1,1.75l.39.72a5.79,5.79,0,1,0,8.4-2.36Zm45.87,58.53s.11,0,.05.07Zm-71-55.74a13,13,0,0,1,1.29-.43,4.06,4.06,0,0,0-.32,1.29c-2.87,3.62-7.56,5.66-11.8,6.36a55.2,55.2,0,0,1,5.32-4.24A27.76,27.76,0,0,1,272.09,158.34ZM239.64,79.71c7.54-6.77,14.31-7.42,22-9.6,2.06,1,4.11,2,6.14,3,7,3.62,13.83,7.62,20.5,11.88-3.8,1.26-9.42,1.53-12.3.08a2.23,2.23,0,0,0-1.82-.14c-6.38,2.34-16.4,9.23-19.34,3.64-.46-.89,3.66.19,3.33-1.21-1.3-5.59-11,1.55-16.35,6.17a2.85,2.85,0,0,1-1.21.62c-6.92,1.68-12.57,7.17-19,9.31a16,16,0,0,1-3.14.76,16.72,16.72,0,0,1,.58-3.32C221.41,92.66,230,86.19,239.64,79.71ZM369.31,65.38l.05.18C369.17,65.56,369.25,65.49,369.31,65.38ZM435.14,77c-.4-4-1-7.64,3.41-9.42a2.63,2.63,0,0,0,1.35-1.24c.54-1.07,1.09-2,2.1-1.87a1.6,1.6,0,0,1,1.26,2.06c-1.53,5.1-5.39,6.11-2.1,14.7,1.06,3.82,5.85,4.49,9,6.09-4.54,2.36-7-.63-10.7-1.3-4.83.67-1.81-5.47-3.72-7.45A2.62,2.62,0,0,1,435.14,77Zm-141,24.16c1.25,7.41-15.38,11.48-20.07,6.66a3.8,3.8,0,0,0-1.31-.83c-3.94-1.65,2.08-1.83,1.53-3.67a1.46,1.46,0,0,1,1.12-1.8c1.73-.39,2.79-1.19,1.43-1.86a1.06,1.06,0,0,1,.12-1.94c2.86-1,5.81-1.14,3.77,1.5a.75.75,0,0,0,.75,1.2c2.28-.48,4.11-1.63,5.3.22C289.49,100.86,292.57,99,294.14,101.15ZM687.64,397c-5.61,16.43-9-6.58-7.56-13.35C679.66,376.15,689.16,392.6,687.64,397ZM189.37,278.64l4.18.1c-.3.93-.62,1.85-.92,2.77-2.67,8.37-5,16.85-6.89,25.44-.18.83-.36,1.65-.53,2.48a150,150,0,0,0-3.29,26.78,5.77,5.77,0,0,0-1.64,1.06l-.05,0-1.74-1c-1.16-.68-2.28-1.41-3.42-2.11s-2.26-1.45-3.38-2.19-2.23-1.48-3.32-2.26l-.52-.37q-6.33-4.44-12.29-9.35A281.38,281.38,0,0,1,132,298.14q-7.8-8.06-15.07-16.6l4.82-.53c4.25,4.89,8.61,9.69,13.12,14.34a278,278,0,0,0,23.27,21.51q5.84,4.8,12,9.12c3.23-4.58,6.74-8.92,10.38-13.12.26-1.41.53-2.83.82-4.23a272,272,0,0,1,7.53-28.33C189,279.74,189.19,279.19,189.37,278.64Z"/></g></g></svg>