<?xml version="1.0" encoding="UTF-8"?><svg xmlns="http://www.w3.org/2000/svg" viewBox="0 0 91.62 96.24"><defs><style>.d{fill:#e2231a;}</style></defs><g id="a"/><g id="b"><g id="c"><g><polygon class="d" points="0 11.32 0 28.31 22.9 16.98 34.36 28.3 57.26 16.98 68.71 28.3 91.62 16.98 91.62 0 68.71 11.32 57.26 0 34.36 11.32 22.9 0 0 11.32 0 11.32 0 11.32"/><polygon class="d" points="0 45.29 0 62.27 22.9 50.95 34.36 62.27 57.26 50.95 68.71 62.27 91.62 50.95 91.62 33.97 68.71 45.29 57.26 33.97 34.36 45.29 22.9 33.97 0 45.29 0 45.29 0 45.29"/><polygon class="d" points="0 79.26 0 96.24 22.9 84.92 34.36 96.24 57.26 84.92 68.71 96.24 91.62 84.92 91.62 67.94 68.71 79.26 57.26 67.94 34.36 79.26 22.9 67.94 0 79.26 0 79.26 0 79.26"/></g></g></g></svg>