<?xml version="1.0" encoding="utf-8"?>
<!-- Generator: Adobe Illustrator 19.2.1, SVG Export Plug-In . SVG Version: 6.00 Build 0)  -->
<svg version="1.1" id="layer" xmlns="http://www.w3.org/2000/svg" xmlns:xlink="http://www.w3.org/1999/xlink" x="0px" y="0px"
	 viewBox="0 0 652 652" style="enable-background:new 0 0 652 652;" xml:space="preserve">
<style type="text/css">
	.st0tue{fill:#CA101A;}
</style>
<polygon class="st0tue" points="364.4,290.4 364.4,267.1 380,267.1 380,271.8 369.8,271.8 369.8,276.2 379.5,276.2 379.5,280.7 
	369.8,280.7 369.8,285.6 380.6,285.6 380.6,290.4 "/>
<rect x="385.2" y="267.1" class="st0tue" width="5.7" height="23.3"/>
<polygon class="st0tue" points="411.1,290.4 401.7,275.1 401.6,275.1 401.8,290.4 396.3,290.4 396.3,267.1 402.7,267.1 412.1,282.3 
	412.2,282.3 412,267.1 417.5,267.1 417.5,290.4 "/>
<path class="st0tue" d="M444.7,278.7c0,2-0.4,3.8-1.1,5.3c-0.8,1.5-1.8,2.7-3,3.7c-1.2,1-2.6,1.7-4.2,2.1c-1.6,0.4-3.1,0.7-4.7,0.7
	h-8.7v-23.3h8.4c1.7,0,3.3,0.2,4.9,0.6c1.6,0.4,3,1,4.3,1.9c1.3,0.9,2.3,2.1,3,3.6C444.3,274.6,444.7,276.5,444.7,278.7
	 M438.9,278.7c0-1.3-0.2-2.4-0.6-3.3c-0.4-0.9-1-1.6-1.7-2.1c-0.7-0.5-1.5-0.9-2.4-1.1c-0.9-0.2-1.9-0.3-2.8-0.3h-2.8v13.6h2.7
	c1,0,2-0.1,2.9-0.4c0.9-0.2,1.8-0.6,2.5-1.1c0.7-0.5,1.3-1.2,1.7-2.1C438.6,281,438.9,280,438.9,278.7"/>
<polygon class="st0tue" points="463.7,290.4 463.7,280.6 454.6,280.6 454.6,290.4 448.9,290.4 448.9,267.1 454.6,267.1 454.6,275.9 
	463.7,275.9 463.7,267.1 469.3,267.1 469.3,290.4 "/>
<path class="st0tue" d="M499,278.6c0,1.8-0.3,3.5-1,5.1c-0.6,1.5-1.5,2.8-2.7,3.9c-1.1,1.1-2.5,1.9-4,2.5c-1.6,0.6-3.3,0.9-5.1,0.9
	c-1.8,0-3.5-0.3-5.1-0.9c-1.5-0.6-2.9-1.4-4-2.5c-1.1-1.1-2-2.4-2.7-3.9c-0.6-1.5-1-3.2-1-5.1c0-1.9,0.3-3.5,1-5.1
	c0.6-1.5,1.5-2.8,2.7-3.8c1.1-1.1,2.5-1.9,4-2.4c1.6-0.6,3.2-0.9,5.1-0.9c1.8,0,3.5,0.3,5.1,0.9c1.6,0.6,2.9,1.4,4,2.4
	c1.1,1.1,2,2.3,2.7,3.8C498.7,275.1,499,276.8,499,278.6 M493,278.6c0-1-0.2-2-0.5-2.8c-0.3-0.9-0.8-1.6-1.4-2.3
	c-0.6-0.6-1.3-1.1-2.1-1.5c-0.8-0.4-1.7-0.5-2.7-0.5c-1,0-1.9,0.2-2.7,0.5c-0.8,0.4-1.5,0.9-2.1,1.5c-0.6,0.6-1,1.4-1.4,2.3
	c-0.3,0.9-0.5,1.8-0.5,2.8c0,1.1,0.2,2,0.5,2.9c0.3,0.9,0.8,1.7,1.4,2.3c0.6,0.6,1.3,1.1,2.1,1.5c0.8,0.4,1.7,0.5,2.7,0.5
	c1,0,1.9-0.2,2.7-0.5c0.8-0.4,1.5-0.9,2.1-1.5c0.6-0.6,1.1-1.4,1.4-2.3C492.8,280.7,493,279.7,493,278.6"/>
<polygon class="st0tue" points="514,290.4 508.4,290.4 499.6,267.1 505.9,267.1 511.3,283.6 511.4,283.6 516.8,267.1 523,267.1 "/>
<polygon class="st0tue" points="525.7,290.4 525.7,267.1 541.4,267.1 541.4,271.8 531.2,271.8 531.2,276.2 540.8,276.2 540.8,280.7 
	531.2,280.7 531.2,285.6 542,285.6 542,290.4 "/>
<polygon class="st0tue" points="561.4,290.4 552,275.1 551.9,275.1 552,290.4 546.5,290.4 546.5,267.1 553,267.1 562.3,282.3 
	562.4,282.3 562.3,267.1 567.8,267.1 567.8,290.4 "/>
<polygon class="st0tue" points="376.6,349.7 376.6,368.2 370.9,368.2 370.9,349.7 364.4,349.7 364.4,344.9 383.2,344.9 383.2,349.7 "/>
<polygon class="st0tue" points="386.2,368.2 386.2,344.9 401.9,344.9 401.9,349.7 391.6,349.7 391.6,354.1 401.3,354.1 401.3,358.6 
	391.6,358.6 391.6,363.4 402.5,363.4 402.5,368.2 "/>
<path class="st0tue" d="M423.3,367.8c-1.5,0.7-3.3,1-5.2,1c-1.8,0-3.5-0.3-5-0.9c-1.5-0.6-2.8-1.4-4-2.5c-1.1-1.1-2-2.4-2.6-3.9
	c-0.6-1.5-1-3.2-1-5c0-1.9,0.3-3.6,1-5.1c0.7-1.5,1.5-2.8,2.7-3.9c1.1-1.1,2.5-1.9,4-2.5c1.5-0.6,3.2-0.9,5-0.9
	c1.7,0,3.3,0.3,4.9,0.9c1.6,0.6,2.9,1.4,3.9,2.6l-3.8,3.8c-0.5-0.7-1.2-1.3-2.1-1.6c-0.9-0.4-1.7-0.5-2.6-0.5c-1,0-1.9,0.2-2.7,0.5
	c-0.8,0.4-1.5,0.9-2.1,1.5c-0.6,0.6-1.1,1.4-1.4,2.3c-0.3,0.9-0.5,1.8-0.5,2.8c0,1.1,0.2,2,0.5,2.9c0.3,0.9,0.8,1.6,1.4,2.3
	c0.6,0.6,1.3,1.1,2.1,1.5c0.8,0.4,1.7,0.5,2.7,0.5c1.1,0,2.1-0.2,2.9-0.7c0.8-0.4,1.5-1,2-1.7l3.9,3.7
	C426.1,366.2,424.8,367.1,423.3,367.8"/>
<polygon class="st0tue" points="444.8,368.2 444.8,358.5 435.7,358.5 435.7,368.2 430.1,368.2 430.1,344.9 435.7,344.9 435.7,353.7 
	444.8,353.7 444.8,344.9 450.5,344.9 450.5,368.2 "/>
<polygon class="st0tue" points="470.7,368.2 461.3,353 461.3,353 461.4,368.2 455.9,368.2 455.9,344.9 462.3,344.9 471.7,360.1 
	471.8,360.1 471.7,344.9 477.1,344.9 477.1,368.2 "/>
<path class="st0tue" d="M506.8,356.5c0,1.8-0.3,3.5-1,5.1c-0.6,1.5-1.5,2.8-2.7,3.9c-1.1,1.1-2.5,1.9-4,2.5c-1.6,0.6-3.3,0.9-5.1,0.9
	c-1.8,0-3.5-0.3-5.1-0.9c-1.5-0.6-2.9-1.4-4-2.5c-1.1-1.1-2-2.4-2.7-3.9c-0.6-1.5-1-3.2-1-5.1c0-1.9,0.3-3.5,1-5.1
	c0.6-1.5,1.5-2.8,2.7-3.8c1.1-1.1,2.5-1.9,4-2.4c1.6-0.6,3.2-0.9,5.1-0.9c1.8,0,3.5,0.3,5.1,0.9c1.6,0.6,2.9,1.4,4,2.4
	c1.1,1.1,2,2.3,2.7,3.8C506.5,352.9,506.8,354.6,506.8,356.5 M500.8,356.5c0-1-0.2-2-0.5-2.8c-0.3-0.9-0.8-1.6-1.4-2.3
	c-0.6-0.6-1.3-1.1-2.1-1.5c-0.8-0.4-1.7-0.5-2.7-0.5c-1,0-1.9,0.2-2.7,0.5c-0.8,0.4-1.5,0.9-2.1,1.5c-0.6,0.6-1,1.4-1.4,2.3
	c-0.3,0.9-0.5,1.8-0.5,2.8c0,1.1,0.2,2,0.5,2.9c0.3,0.9,0.8,1.7,1.4,2.3c0.6,0.6,1.3,1.1,2.1,1.5c0.8,0.4,1.7,0.5,2.7,0.5
	c1,0,1.9-0.2,2.7-0.5c0.8-0.4,1.5-0.9,2.1-1.5c0.6-0.6,1.1-1.4,1.4-2.3C500.6,358.5,500.8,357.5,500.8,356.5"/>
<polygon class="st0tue" points="511.1,368.2 511.1,344.9 516.7,344.9 516.7,363.3 525.8,363.3 525.8,368.2 "/>
<path class="st0tue" d="M552.9,356.5c0,1.8-0.3,3.5-1,5.1c-0.6,1.5-1.5,2.8-2.7,3.9c-1.1,1.1-2.5,1.9-4,2.5c-1.6,0.6-3.3,0.9-5.1,0.9
	c-1.8,0-3.5-0.3-5.1-0.9c-1.6-0.6-2.9-1.4-4-2.5c-1.1-1.1-2-2.4-2.7-3.9c-0.6-1.5-0.9-3.2-0.9-5.1c0-1.9,0.3-3.5,0.9-5.1
	c0.6-1.5,1.5-2.8,2.7-3.8c1.1-1.1,2.5-1.9,4-2.4c1.5-0.6,3.2-0.9,5.1-0.9c1.8,0,3.5,0.3,5.1,0.9c1.6,0.6,2.9,1.4,4,2.4
	c1.1,1.1,2,2.3,2.7,3.8C552.5,352.9,552.9,354.6,552.9,356.5 M546.8,356.5c0-1-0.2-2-0.5-2.8c-0.3-0.9-0.8-1.6-1.4-2.3
	c-0.6-0.6-1.3-1.1-2.1-1.5c-0.8-0.4-1.7-0.5-2.7-0.5c-1,0-1.9,0.2-2.7,0.5c-0.8,0.4-1.5,0.9-2.1,1.5c-0.6,0.6-1.1,1.4-1.4,2.3
	c-0.3,0.9-0.5,1.8-0.5,2.8c0,1.1,0.2,2,0.5,2.9c0.3,0.9,0.8,1.7,1.4,2.3c0.6,0.6,1.3,1.1,2.1,1.5c0.8,0.4,1.7,0.5,2.7,0.5
	c1,0,1.9-0.2,2.7-0.5c0.8-0.4,1.5-0.9,2.1-1.5c0.6-0.6,1.1-1.4,1.4-2.3C546.7,358.5,546.8,357.5,546.8,356.5"/>
<path class="st0tue" d="M573.7,368.3c-1.5,0.4-3.2,0.6-5,0.6c-1.9,0-3.6-0.3-5.2-0.9c-1.6-0.6-2.9-1.4-4.1-2.5c-1.1-1.1-2-2.4-2.6-3.9
	c-0.6-1.5-1-3.2-1-5c0-1.9,0.3-3.6,1-5.1c0.7-1.5,1.5-2.8,2.7-3.9c1.1-1.1,2.5-1.9,4-2.5c1.5-0.6,3.2-0.9,5-0.9
	c1.8,0,3.6,0.3,5.1,0.8c1.6,0.6,2.9,1.3,3.9,2.3l-3.6,4c-0.6-0.6-1.3-1.2-2.2-1.6c-0.9-0.4-1.9-0.6-3.1-0.6c-1,0-1.9,0.2-2.7,0.5
	c-0.8,0.4-1.6,0.9-2.2,1.5c-0.6,0.7-1.1,1.4-1.4,2.3c-0.3,0.9-0.5,1.9-0.5,2.9c0,1.1,0.2,2.1,0.5,3c0.3,0.9,0.8,1.7,1.4,2.3
	c0.6,0.6,1.3,1.2,2.2,1.5c0.9,0.4,1.9,0.5,3.1,0.5c0.7,0,1.3,0,1.9-0.2c0.6-0.1,1.1-0.3,1.7-0.5V359h-4.4v-4.5h9.6v12.3
	C576.6,367.4,575.2,367.9,573.7,368.3"/>
<polygon class="st0tue" points="593.9,358.4 593.9,368.2 588.3,368.2 588.3,358.4 579.5,344.9 586.3,344.9 591.3,353.5 596.3,344.9 
	602.9,344.9 "/>
<path class="st0tue" d="M383.7,324.3c-0.5,1.2-1.1,2.1-2,3c-0.9,0.8-1.9,1.5-3.2,1.9c-1.2,0.5-2.6,0.7-4.1,0.7c-1.5,0-2.9-0.2-4.2-0.7
	c-1.2-0.5-2.3-1.1-3.1-1.9c-0.9-0.8-1.5-1.8-2-3c-0.5-1.2-0.7-2.4-0.7-3.8V306h5.6V320c0,0.6,0.1,1.2,0.2,1.8
	c0.2,0.6,0.4,1.1,0.8,1.5c0.3,0.4,0.8,0.8,1.4,1.1c0.6,0.3,1.2,0.4,2,0.4c0.8,0,1.5-0.1,2-0.4c0.6-0.3,1-0.6,1.4-1.1
	c0.4-0.4,0.6-1,0.8-1.5c0.2-0.6,0.2-1.2,0.2-1.8V306h5.6v14.5C384.4,321.9,384.1,323.2,383.7,324.3"/>
<polygon class="st0tue" points="404.4,329.3 395,314.1 394.9,314.1 395.1,329.3 389.6,329.3 389.6,306 396,306 405.4,321.2 
	405.5,321.2 405.4,306 410.8,306 410.8,329.3 "/>
<rect x="416.2" y="306" class="st0tue" width="5.7" height="23.3"/>
<polygon class="st0tue" points="439.1,329.3 433.4,329.3 424.6,306 430.9,306 436.3,322.5 436.5,322.5 441.8,306 448.1,306 "/>
<polygon class="st0tue" points="450.8,329.3 450.8,306 466.4,306 466.4,310.7 456.2,310.7 456.2,315.1 465.9,315.1 465.9,319.7 
	456.2,319.7 456.2,324.5 467,324.5 467,329.3 "/>
<path class="st0tue" d="M484.1,329.3l-5.1-9.2h-1.9v9.2h-5.5V306h8.9c1.1,0,2.2,0.1,3.3,0.3c1.1,0.2,2,0.6,2.9,1.2
	c0.8,0.6,1.5,1.3,2,2.2c0.5,0.9,0.8,2,0.8,3.4c0,1.6-0.4,2.9-1.3,4c-0.9,1.1-2,1.8-3.6,2.3l6.1,10H484.1z M483.8,313.1
	c0-0.5-0.1-1-0.4-1.3c-0.2-0.3-0.5-0.6-0.9-0.8c-0.4-0.2-0.8-0.3-1.2-0.4c-0.4-0.1-0.9-0.1-1.3-0.1h-3v5.4h2.7c0.5,0,0.9,0,1.4-0.1
	c0.5-0.1,0.9-0.2,1.3-0.4c0.4-0.2,0.7-0.5,1-0.9C483.7,314.2,483.8,313.7,483.8,313.1"/>
<path class="st0tue" d="M506.4,312.1c-0.5-0.6-1.1-1.1-1.9-1.5c-0.8-0.4-1.5-0.5-2.3-0.5c-0.4,0-0.8,0-1.1,0.1c-0.4,0.1-0.7,0.2-1,0.4
	c-0.3,0.2-0.6,0.4-0.8,0.7c-0.2,0.3-0.3,0.7-0.3,1.1c0,0.4,0.1,0.7,0.2,1c0.2,0.3,0.4,0.5,0.7,0.7c0.3,0.2,0.7,0.4,1.1,0.5
	c0.4,0.2,0.9,0.3,1.5,0.5c0.8,0.3,1.6,0.6,2.5,0.9c0.9,0.3,1.6,0.7,2.3,1.3c0.7,0.5,1.3,1.2,1.7,2c0.5,0.8,0.7,1.7,0.7,2.9
	c0,1.3-0.2,2.5-0.7,3.5c-0.5,1-1.2,1.8-2,2.4c-0.8,0.6-1.8,1.1-2.9,1.4c-1.1,0.3-2.2,0.5-3.3,0.5c-1.7,0-3.3-0.3-4.8-0.9
	c-1.6-0.6-2.9-1.4-3.9-2.5l3.7-3.8c0.6,0.7,1.3,1.3,2.3,1.8c0.9,0.5,1.9,0.7,2.8,0.7c0.4,0,0.8,0,1.2-0.1c0.4-0.1,0.7-0.2,1-0.4
	c0.3-0.2,0.5-0.5,0.7-0.8c0.2-0.3,0.3-0.7,0.3-1.2c0-0.4-0.1-0.8-0.3-1.1c-0.2-0.3-0.5-0.6-0.9-0.8c-0.4-0.3-0.9-0.5-1.5-0.7
	c-0.6-0.2-1.3-0.4-2.1-0.7c-0.7-0.2-1.5-0.5-2.2-0.9c-0.7-0.3-1.3-0.8-1.9-1.3c-0.6-0.5-1-1.1-1.4-1.9c-0.3-0.7-0.5-1.6-0.5-2.7
	c0-1.3,0.3-2.4,0.8-3.3c0.5-0.9,1.2-1.7,2.1-2.3c0.9-0.6,1.8-1,2.9-1.3c1.1-0.3,2.2-0.4,3.3-0.4c1.3,0,2.7,0.2,4,0.7
	c1.4,0.5,2.6,1.2,3.6,2.1L506.4,312.1z"/>
<rect x="514.1" y="306" class="st0tue" width="5.7" height="23.3"/>
<polygon class="st0tue" points="535,310.8 535,329.3 529.4,329.3 529.4,310.8 522.8,310.8 522.8,306 541.6,306 541.6,310.8 "/>
<polygon class="st0tue" points="557.6,319.4 557.6,329.3 551.9,329.3 551.9,319.4 543.2,306 550,306 555,314.6 560,306 566.5,306 "/>
<path class="st0tue" d="M602.2,317.6c0,1.8-0.3,3.5-1,5.1c-0.6,1.5-1.5,2.8-2.7,3.9c-1.1,1.1-2.5,1.9-4,2.5c-1.6,0.6-3.3,0.9-5.1,0.9
	c-1.8,0-3.5-0.3-5.1-0.9c-1.5-0.6-2.9-1.4-4-2.5c-1.1-1.1-2-2.4-2.7-3.9c-0.6-1.5-0.9-3.2-0.9-5.1c0-1.9,0.3-3.5,0.9-5.1
	c0.6-1.5,1.5-2.8,2.7-3.8c1.1-1.1,2.5-1.9,4-2.4c1.5-0.6,3.2-0.9,5.1-0.9c1.8,0,3.5,0.3,5.1,0.9c1.6,0.6,2.9,1.4,4,2.4
	c1.1,1.1,2,2.3,2.7,3.8C601.8,314,602.2,315.7,602.2,317.6 M596.1,317.6c0-1-0.2-2-0.5-2.8c-0.3-0.9-0.8-1.6-1.4-2.3
	c-0.6-0.6-1.3-1.1-2.1-1.5c-0.8-0.4-1.7-0.5-2.7-0.5c-1,0-1.9,0.2-2.7,0.5c-0.8,0.4-1.5,0.9-2.1,1.5c-0.6,0.6-1.1,1.4-1.4,2.3
	c-0.3,0.9-0.5,1.8-0.5,2.8c0,1.1,0.2,2,0.5,2.9c0.3,0.9,0.8,1.7,1.4,2.3c0.6,0.6,1.3,1.1,2.1,1.5c0.8,0.4,1.7,0.5,2.7,0.5
	c1,0,1.9-0.2,2.7-0.5c0.8-0.4,1.5-0.9,2.1-1.5c0.6-0.6,1.1-1.4,1.4-2.3C596,319.6,596.1,318.6,596.1,317.6"/>
<polygon class="st0tue" points="612,310.8 612,315.6 621,315.6 621,320.2 612,320.2 612,329.3 606.4,329.3 606.4,306 621.8,306 
	621.8,310.8 "/>
<polygon class="st0tue" points="76.2,287.9 76.2,368.2 51.1,368.2 51.1,287.9 21.8,287.9 21.8,267 105.5,267 105.5,287.9 "/>
<path class="st0tue" d="M201.1,346.7c-2.1,5-5.1,9.3-9,12.9c-3.9,3.6-8.6,6.4-14.2,8.4c-5.5,2-11.7,3-18.4,3c-6.8,0-13-1-18.5-3
	c-5.5-2-10.1-4.8-13.9-8.4c-3.8-3.6-6.7-7.9-8.8-12.9c-2.1-5-3.1-10.6-3.1-16.7v-63h24.9v61c0,2.8,0.4,5.4,1.1,7.9
	c0.7,2.5,1.9,4.7,3.4,6.6c1.5,2,3.5,3.5,6,4.6c2.5,1.1,5.5,1.7,9,1.7c3.5,0,6.5-0.6,9-1.7c2.5-1.1,4.5-2.7,6.1-4.6
	c1.6-2,2.7-4.2,3.4-6.6c0.7-2.5,1-5.1,1-7.9v-61h25.1v63C204.2,336.2,203.2,341.7,201.1,346.7"/>
<polygon class="st0tue" points="219.7,383.8 270.6,259.2 252.4,259.2 201.6,383.8 "/>
<path class="st0tue" d="M295.3,295.2c-20.9,0-37.9,17-37.9,37.9c0,20.9,17,37.9,37.9,37.9c13.4,0,27.1-5.9,34.6-16.5l-17.2-7
	c-4.6,5.1-10.8,7.1-17.4,7.1c-9.6,0-17.8-6.3-20.5-15.1h57.8c0.4-2.1,0.6-4.2,0.6-6.4C333.2,312.1,316.2,295.2,295.3,295.2
	 M295.3,311.5c9,0,16.7,5.5,19.9,13.3h-39.8C278.6,317.1,286.3,311.5,295.3,311.5"/>
</svg>
