<?xml version="1.0" standalone="no"?>
<!DOCTYPE svg PUBLIC "-//W3C//DTD SVG 20010904//EN"
 "http://www.w3.org/TR/2001/REC-SVG-20010904/DTD/svg10.dtd">
<svg version="1.0" xmlns="http://www.w3.org/2000/svg"
 width="2049.000000pt" height="1152.000000pt" viewBox="0 0 2049.000000 1152.000000"
 preserveAspectRatio="xMidYMid meet">

<g transform="translate(0.000000,1152.000000) scale(0.100000,-0.100000)"
fill="#000000" stroke="none">
<path d="M11458 6973 c7 -3 16 -2 19 1 4 3 -2 6 -13 5 -11 0 -14 -3 -6 -6z"/>
<path d="M11718 6973 c6 -2 18 -2 25 0 6 3 1 5 -13 5 -14 0 -19 -2 -12 -5z"/>
<path d="M11938 6973 c7 -3 16 -2 19 1 4 3 -2 6 -13 5 -11 0 -14 -3 -6 -6z"/>
<path d="M12058 6963 c7 -3 16 -2 19 1 4 3 -2 6 -13 5 -11 0 -14 -3 -6 -6z"/>
<path d="M8870 6921 c-69 -36 -114 -95 -129 -171 -6 -30 -24 -134 -40 -230
-17 -96 -46 -267 -66 -380 -19 -113 -35 -208 -35 -212 0 -5 17 -8 39 -8 l38 0
11 58 c6 31 36 219 67 417 64 408 75 446 153 500 l44 30 1526 3 c1139 2 1537
0 1567 -9 59 -17 115 -66 141 -124 13 -29 29 -95 37 -160 38 -278 98 -672 107
-692 7 -18 5 -22 -13 -26 -14 -3 -9 -5 13 -5 19 -1 42 3 50 8 12 8 11 10 -7
10 -15 0 -23 6 -24 18 -1 21 -2 32 -39 277 -17 110 -35 223 -40 250 -6 28 -19
112 -30 188 -25 176 -48 220 -138 266 l-41 21 -1568 0 -1568 0 -55 -29z"/>
<path d="M12148 6916 c89 -79 83 -54 187 -711 20 -126 40 -239 46 -250 14 -30
5 34 -62 450 -67 407 -79 450 -145 501 -59 46 -74 52 -26 10z"/>
<path d="M18636 6498 c-3 -7 -7 -31 -10 -52 -14 -99 -118 -236 -241 -316 -36
-23 -65 -45 -65 -49 0 -3 8 -15 17 -26 11 -14 14 -15 10 -4 -4 13 -1 15 14 12
10 -3 17 -9 14 -13 -3 -4 3 -10 13 -12 16 -5 50 -54 41 -62 -3 -3 -112 -9
-361 -21 -31 -2 -92 -5 -135 -9 -100 -7 -230 -14 -418 -21 -82 -3 -184 -8
-225 -10 -41 -3 -196 -10 -345 -15 -148 -5 -313 -12 -365 -15 -52 -2 -167 -7
-255 -10 -347 -12 -705 -25 -810 -30 -60 -3 -306 -12 -545 -20 -239 -9 -741
-27 -1115 -40 -847 -31 -793 -31 -797 -2 -3 21 -7 22 -73 20 -38 -2 -76 -5
-82 -8 -10 -3 -13 -40 -13 -139 0 -74 -4 -137 -8 -140 -5 -3 -51 -7 -103 -8
l-94 -3 -3 119 -3 119 -147 -7 c-81 -3 -417 -15 -747 -26 -800 -27 -881 -32
-877 -48 13 -63 12 -129 -1 -147 -14 -18 -15 -15 -10 40 4 49 2 63 -11 74 -15
13 -23 8 -69 -36 -132 -128 -241 -210 -374 -283 l-63 -34 -37 36 c-96 94 -233
87 -300 -13 -14 -22 -29 -39 -34 -39 -5 0 -28 10 -51 22 -55 29 -109 28 -303
-5 -82 -15 -213 -36 -290 -47 -146 -23 -175 -32 -175 -55 0 -27 39 -35 179
-35 78 0 149 -4 159 -9 21 -11 375 -33 397 -25 23 9 19 -3 -18 -51 -63 -82
-238 -215 -283 -215 -33 0 -36 -24 -8 -66 32 -47 57 -68 119 -101 l50 -27 380
-8 c209 -5 408 -6 441 -2 120 11 250 97 299 199 18 36 32 92 44 173 10 65 21
123 24 129 4 6 42 13 87 17 91 7 128 19 137 42 11 28 -17 39 -116 45 -53 3
-103 9 -109 13 -8 5 -12 50 -12 145 0 93 -5 154 -15 187 -8 27 -15 54 -15 60
0 7 92 13 294 18 396 9 1022 34 1068 42 31 5 38 3 53 -19 9 -14 21 -56 26 -94
5 -37 14 -81 20 -96 19 -45 -1 -73 -63 -92 -115 -34 -340 -75 -475 -87 -125
-10 -143 -14 -143 -29 0 -14 12 -19 65 -24 47 -5 68 -12 75 -25 8 -14 33 -18
172 -25 197 -9 274 -10 483 -7 153 2 161 3 170 23 13 29 28 23 40 -15 l10 -31
145 -1 c80 0 287 -7 460 -14 456 -19 635 -19 635 0 0 9 -11 16 -30 18 -85 9
-326 54 -388 73 -40 11 -103 34 -141 51 -54 23 -92 32 -175 39 -58 5 -126 11
-149 14 l-44 6 7 62 c4 34 8 115 9 179 1 65 4 119 7 122 2 2 171 9 374 15 204
6 534 18 735 26 394 16 755 29 1190 45 288 11 1095 42 1530 60 140 6 446 17
680 25 234 8 526 20 649 26 l224 11 63 39 c159 101 256 272 241 429 -7 82 -19
100 -68 100 -23 0 -41 -5 -43 -12z m-6112 -850 c12 -69 6 -78 -54 -78 l-50 0
0 59 c0 65 5 71 60 68 33 -2 35 -4 44 -49z"/>
<path d="M2054 6463 c-13 -29 -15 -60 -12 -131 5 -83 9 -102 43 -167 44 -86
149 -196 208 -218 13 -5 17 -1 17 20 0 32 78 113 108 113 39 0 32 18 -21 58
-120 91 -189 183 -216 290 l-17 67 -47 3 c-47 3 -48 2 -63 -35z"/>
<path d="M18013 6063 c9 -2 25 -2 35 0 9 3 1 5 -18 5 -19 0 -27 -2 -17 -5z"/>
<path d="M18130 6059 c25 -4 56 -8 70 -8 23 0 23 1 5 9 -11 5 -42 8 -70 8
l-50 -1 45 -8z"/>
<path d="M6490 5970 c30 -5 105 -8 165 -7 l110 0 -100 7 c-55 4 -129 8 -165 7
l-65 0 55 -7z"/>
<path d="M6925 5959 c22 -4 65 -8 95 -7 l55 0 -40 9 c-22 4 -65 8 -95 7 l-55
0 40 -9z"/>
<path d="M7245 5950 c90 -11 542 -21 525 -11 -8 5 -143 11 -300 14 -157 3
-258 2 -225 -3z"/>
<path d="M7920 5930 c19 -5 148 -11 285 -14 153 -3 225 -2 185 3 -96 12 -513
22 -470 11z"/>
<path d="M4033 5873 c9 -2 23 -2 30 0 6 3 -1 5 -18 5 -16 0 -22 -2 -12 -5z"/>
<path d="M4808 5843 c12 -2 32 -2 45 0 12 2 2 4 -23 4 -25 0 -35 -2 -22 -4z"/>
<path d="M5023 5833 c32 -2 81 -2 110 0 29 2 3 3 -58 3 -60 0 -84 -1 -52 -3z"/>
<path d="M5303 5823 c37 -2 96 -2 130 0 34 2 4 3 -68 3 -71 0 -99 -1 -62 -3z"/>
<path d="M5558 5813 c23 -2 59 -2 80 0 20 2 1 4 -43 4 -44 0 -61 -2 -37 -4z"/>
<path d="M5820 5807 c5 -5 248 -17 910 -42 217 -9 470 -19 563 -23 116 -5 167
-4 167 4 0 7 -126 14 -387 23 -214 6 -485 16 -603 21 -353 15 -655 23 -650 17z"/>
<path d="M7900 5728 c-22 -11 -10 -13 92 -18 116 -5 152 -16 126 -37 -7 -6
-22 -13 -33 -16 -11 -2 -2 -5 19 -6 24 -1 48 -9 60 -20 36 -34 69 -36 104 -6
18 15 32 32 32 39 0 7 7 13 15 13 9 0 11 -5 7 -11 -13 -17 -13 -69 0 -77 6 -4
-15 -10 -48 -14 -87 -10 -88 -13 -3 -14 90 -1 99 6 95 69 -1 25 -1 51 2 58 5
15 109 17 146 2 25 -9 26 -12 26 -95 l0 -85 39 0 c22 0 43 4 46 10 3 5 9 41
12 79 3 38 9 75 13 81 6 10 58 10 236 2 308 -15 710 -26 704 -19 -9 9 -318 26
-885 47 -291 11 -586 22 -655 25 -88 4 -132 1 -150 -7z"/>
<path d="M7480 5449 c0 -35 5 -61 13 -68 16 -12 312 -19 324 -7 4 4 8 36 8 71
l0 63 -172 -2 -173 -1 0 -56z"/>
<path d="M8127 5473 c-19 -18 0 -24 75 -21 54 2 83 7 86 16 3 9 -17 12 -75 12
-44 0 -83 -3 -86 -7z"/>
<path d="M8102 5396 c-18 -31 -19 -35 -4 -50 12 -12 13 -19 5 -27 -8 -8 -25
-7 -65 6 -84 26 -86 29 -33 35 l50 6 -50 23 c-63 29 -120 38 -140 21 -19 -16
-19 -40 0 -54 14 -10 11 -16 -19 -45 -35 -34 -56 -34 -56 0 0 10 -3 19 -7 20
-5 1 -70 3 -145 5 l-138 3 0 -29 c0 -42 -16 -46 -60 -15 -36 25 -46 27 -102
22 -35 -3 -115 -16 -179 -31 -143 -31 -370 -62 -598 -80 -172 -14 -223 -27
-165 -42 16 -4 209 -1 429 6 220 8 522 15 670 16 341 1 1328 24 1334 30 17 17
-39 27 -204 34 -201 10 -381 27 -404 40 -27 14 51 28 110 20 50 -7 354 -21
544 -24 44 0 82 3 85 8 3 5 -43 19 -101 32 -58 12 -145 39 -192 59 -79 34 -91
36 -125 27 -20 -6 -65 -19 -99 -29 l-63 -18 -29 33 c-30 32 -30 32 -129 32
l-100 0 -20 -34z"/>
</g>
</svg>
