<?xml version="1.0" standalone="no"?>
<!DOCTYPE svg PUBLIC "-//W3C//DTD SVG 20010904//EN"
 "http://www.w3.org/TR/2001/REC-SVG-20010904/DTD/svg10.dtd">
<svg version="1.0" xmlns="http://www.w3.org/2000/svg"
 width="700.000000pt" height="700.000000pt" viewBox="0 0 700.000000 700.000000"
 preserveAspectRatio="xMidYMid meet">
<metadata>
Created by potrace 1.14, written by Peter Selinger 2001-2017
</metadata>
<g transform="translate(0.000000,700.000000) scale(0.100000,-0.100000)"
fill="#000000" stroke="none">
<path d="M3280 6993 c-19 -1 -87 -8 -150 -14 -507 -48 -1041 -231 -1486 -509
-1421 -891 -2009 -2649 -1412 -4228 61 -161 206 -454 298 -600 157 -251 395
-535 609 -729 558 -504 1225 -804 1986 -893 155 -18 460 -24 620 -11 496 39
907 152 1330 366 217 109 341 186 528 326 1022 766 1543 2030 1361 3299 -84
588 -315 1141 -673 1615 -666 880 -1709 1393 -2811 1383 -91 -1 -181 -3 -200
-5z m1282 -3031 c347 -706 628 -1285 626 -1287 -2 -2 -600 -146 -1328 -320
-729 -174 -1332 -318 -1341 -321 -9 -2 -44 -67 -80 -144 l-64 -140 -502 0
c-277 0 -503 3 -503 8 0 4 306 630 680 1392 374 761 680 1388 680 1392 0 4
-193 8 -430 8 l-430 0 0 350 0 350 1031 -2 1031 -3 630 -1283z m945 -1922
l142 -290 -507 2 -506 3 -132 280 c-73 154 -133 283 -133 288 -1 4 223 7 497
7 l497 0 142 -290z"/>
<path d="M3178 3469 c-179 -382 -324 -695 -323 -697 5 -6 1155 302 1155 309 0
7 -450 972 -487 1043 l-19 38 -326 -693z"/>
</g>
</svg>
