<?xml version="1.0" encoding="UTF-8" standalone="no"?>
<!-- Created with Inkscape (http://www.inkscape.org/) -->

<svg
   xmlns:dc="http://purl.org/dc/elements/1.1/"
   xmlns:cc="http://creativecommons.org/ns#"
   xmlns:rdf="http://www.w3.org/1999/02/22-rdf-syntax-ns#"
   xmlns:svg="http://www.w3.org/2000/svg"
   xmlns="http://www.w3.org/2000/svg"
   xmlns:xlink="http://www.w3.org/1999/xlink"
   xmlns:sodipodi="http://sodipodi.sourceforge.net/DTD/sodipodi-0.dtd"
   xmlns:inkscape="http://www.inkscape.org/namespaces/inkscape"
   viewBox="0 0 504.90001 356.99999"
   version="1.1"
   id="svg8"
   sodipodi:docname="Logo2.svg"
   inkscape:version="0.92.2 (5c3e80d, 2017-08-06)">
  <defs
     id="defs2">
    <linearGradient
       id="linearGradient1216"
       inkscape:collect="always">
      <stop
         id="stop1212"
         offset="0"
         style="stop-color:#5dcd25;stop-opacity:1" />
      <stop
         id="stop1214"
         offset="1"
         style="stop-color:#26cec2;stop-opacity:1" />
    </linearGradient>
    <marker
       style="overflow:visible"
       refY="0"
       refX="0"
       orient="auto"
       id="DistanceX">
      <path
         id="path23"
         style="stroke:#000000;stroke-width:0.5"
         d="M 3,-3 -3,3 M 0,-5 V 5"
         inkscape:connector-curvature="0" />
    </marker>
    <pattern
       y="0"
       x="0"
       width="8"
       patternUnits="userSpaceOnUse"
       id="Hatch"
       height="8">
      <path
         id="path26"
         stroke-width="0.25"
         stroke="#000000"
         linecap="square"
         d="M8 4 l-4,4" />
      <path
         id="path28"
         stroke-width="0.25"
         stroke="#000000"
         linecap="square"
         d="M6 2 l-4,4" />
      <path
         id="path30"
         stroke-width="0.25"
         stroke="#000000"
         linecap="square"
         d="M4 0 l-4,4" />
    </pattern>
    <symbol
       id="*MODEL_SPACE" />
    <symbol
       id="*PAPER_SPACE" />
    <marker
       style="overflow:visible"
       refY="0"
       refX="0"
       orient="auto"
       id="DistanceX-7">
      <path
         id="path80"
         style="stroke:#000000;stroke-width:0.5"
         d="M 3,-3 -3,3 M 0,-5 V 5"
         inkscape:connector-curvature="0" />
    </marker>
    <pattern
       y="0"
       x="0"
       width="8"
       patternUnits="userSpaceOnUse"
       id="Hatch-7"
       height="8">
      <path
         id="path83"
         stroke-width="0.25"
         stroke="#000000"
         linecap="square"
         d="M8 4 l-4,4" />
      <path
         id="path85"
         stroke-width="0.25"
         stroke="#000000"
         linecap="square"
         d="M6 2 l-4,4" />
      <path
         id="path87"
         stroke-width="0.25"
         stroke="#000000"
         linecap="square"
         d="M4 0 l-4,4" />
    </pattern>
    <symbol
       id="*MODEL_SPACE-6" />
    <symbol
       id="*PAPER_SPACE-1" />
    <linearGradient
       inkscape:collect="always"
       xlink:href="#linearGradient1216"
       id="linearGradient1210"
       x1="229.55566"
       y1="1034.4208"
       x2="78.79039"
       y2="1164.2253"
       gradientUnits="userSpaceOnUse"
       gradientTransform="translate(358.4794,-253.20636)" />
    <linearGradient
       inkscape:collect="always"
       xlink:href="#linearGradient1216"
       id="linearGradient1218"
       x1="233.15298"
       y1="1031.754"
       x2="51.137459"
       y2="1165.1093"
       gradientUnits="userSpaceOnUse" />
  </defs>
  <sodipodi:namedview
     id="base"
     pagecolor="#ffffff"
     bordercolor="#666666"
     borderopacity="1.0"
     inkscape:pageopacity="0.0"
     inkscape:pageshadow="2"
     inkscape:zoom="1.979899"
     inkscape:cx="602.06812"
     inkscape:cy="394.17048"
     inkscape:document-units="mm"
     inkscape:current-layer="layer1"
     showgrid="false"
     inkscape:window-width="3840"
     inkscape:window-height="2019"
     inkscape:window-x="3827"
     inkscape:window-y="-13"
     inkscape:window-maximized="1"
     showguides="false"
     scale-x="1.7" />
  <metadata
     id="metadata5">
    <rdf:RDF>
      <cc:Work
         rdf:about="">
        <dc:format>image/svg+xml</dc:format>
        <dc:type
           rdf:resource="http://purl.org/dc/dcmitype/StillImage" />
        <dc:title></dc:title>
      </cc:Work>
    </rdf:RDF>
  </metadata>
  <g
     inkscape:label="Layer 1"
     inkscape:groupmode="layer"
     id="layer1"
     transform="translate(0,-147.9)">
    <g
       id="g1170"
       transform="matrix(1.0090424,0,0,1.0090424,245.65018,-775.33425)"
       style="stroke:none">
      <path
         id="path104"
         style="fill:url(#linearGradient1218);fill-opacity:1;stroke:none"
         d="m 48.429536,1031.754 h 77.585794 a 9.869034,9.869034 0 0 1 9.56537,7.4398 v 128.0697 H 95.459279 V 1056.4646 H 61.714774 a 14.139289,14.139289 0 0 1 -13.285238,-9.2997 z"
         inkscape:connector-curvature="0" />
      <path
         inkscape:connector-curvature="0"
         id="path106"
         transform="translate(-358.4794,253.20636)"
         d="m 591.63281,778.54688 -82.11133,0.2539 a 8.3685349,8.3685349 0 0 0 -6.92773,8.24414 v 126.85547 h 75.41016 a 15.126907,15.126907 0 0 0 13.75586,-15.06445 V 845.10156 A 13.768537,13.768537 0 0 0 578.00391,831.92383 H 539.2168 v -28.73828 h 43.31836 a 9.2270669,9.2270669 0 0 0 9.09765,-9.22657 z m -52.41601,71.92578 h 19.29687 v 42.53515 H 539.2168 Z"
         style="fill:url(#linearGradient1210);fill-opacity:1;stroke:none" />
    </g>
    <path
       style="opacity:1;fill:#232323;fill-opacity:1;stroke:none;stroke-width:0.12761149;stroke-miterlimit:4;stroke-dasharray:none"
       d="m 35.910053,401.94336 c -1.347627,-0.36336 -2.548599,-1.432 -3.076459,-2.73749 l -0.290928,-0.7195 v -65.99882 -65.99882 l 19.525718,-0.0323 19.525708,-0.0323 v 57.84492 57.84493 h 32.362358 32.36235 v 10.00176 10.00175 l -49.913197,-0.009 c -39.127799,-0.007 -50.039029,-0.0425 -50.49555,-0.16562 z"
       id="path1299"
       inkscape:connector-curvature="0" />
    <path
       style="opacity:1;fill:#232323;fill-opacity:1;stroke:none;stroke-width:0.12761149;stroke-miterlimit:4;stroke-dasharray:none"
       d="m 154.92078,376.44466 v -25.92848 h -9.74693 -9.74692 v 9.49248 9.49246 l -22.01023,-0.0322 -22.010222,-0.0322 -0.03693,-44.78492 c -0.02492,-30.16713 0.0061,-45.24245 0.09495,-46.18671 0.162991,-1.73225 0.497448,-2.97156 1.203414,-4.4591 1.743683,-3.67414 5.128233,-6.27073 9.250018,-7.0965 0.67148,-0.13453 9.91647,-0.16592 48.86206,-0.16592 h 48.03389 v 67.78258 67.78257 l -21.94652,0.0322 -21.94652,0.0322 z m 0,-62.36798 v -17.83752 h -9.74693 -9.74692 v 17.83752 17.83752 h 9.74692 9.74693 z"
       id="path1301"
       inkscape:connector-curvature="0" />
    <path
       style="opacity:1;fill:#232323;fill-opacity:1;stroke:none;stroke-width:0.12761149;stroke-miterlimit:4;stroke-dasharray:none"
       d="m 214.04259,391.95657 c 0.002,-7.4402 0.47387,-125.03163 0.50223,-125.24487 0.002,-0.0176 9.83717,-0.0319 21.8552,-0.0319 h 21.85096 v 17.96259 17.9626 l 26.59702,0.0403 c 24.24719,0.0367 26.67018,0.0589 27.42518,0.25113 3.06081,0.77932 5.40126,2.12203 7.32993,4.20517 1.50051,1.62068 2.49379,3.3699 3.20832,5.64996 l 0.35538,1.13401 0.0334,37.71361 c 0.0365,41.33562 0.084,38.55184 -0.69579,40.83518 -1.76841,5.17831 -6.46627,8.93776 -11.93014,9.54702 -0.84515,0.0942 -15.90326,0.1362 -48.87813,0.1362 h -47.65668 z m 64.59413,-40.61222 v -30.6423 h -10.19288 -10.19286 v 30.6423 30.64231 h 10.19286 10.19288 z"
       id="path1303"
       inkscape:connector-curvature="0" />
  </g>
</svg>
