<?xml version="1.0" encoding="UTF-8" standalone="no"?>
<svg
   xmlns:dc="http://purl.org/dc/elements/1.1/"
   xmlns:cc="http://creativecommons.org/ns#"
   xmlns:rdf="http://www.w3.org/1999/02/22-rdf-syntax-ns#"
   xmlns:svg="http://www.w3.org/2000/svg"
   xmlns="http://www.w3.org/2000/svg"
   viewBox="0 0 198.42667 79.373337"
   height="79.373337"
   width="198.42667"
   xml:space="preserve"
   id="svg2"
   version="1.1"><metadata
     id="metadata8"><rdf:RDF><cc:Work
         rdf:about=""><dc:format>image/svg+xml</dc:format><dc:type
           rdf:resource="http://purl.org/dc/dcmitype/StillImage" /></cc:Work></rdf:RDF></metadata><defs
     id="defs6" /><g
     transform="matrix(1.3333333,0,0,-1.3333333,0,79.373333)"
     id="g10"><g
       transform="scale(0.1)"
       id="g12"><path
         id="path14"
         style="fill:#ffffff;fill-opacity:1;fill-rule:nonzero;stroke:none"
         d="M -0.00390625,0.00390625 H 595.281 V 595.281 H -0.00390625 V 0.00390625" /><path
         id="path16"
         style="fill:#ed1c24;fill-opacity:1;fill-rule:nonzero;stroke:none"
         d="m 506.887,354.605 h -95.27 l -16.039,-26.359 h 95.578 l -32.961,-56.34 h -96 l -19.039,-32.34 h 96.039 L 406.477,184.254 H 245.934 L 378.109,411.023 H 540.094 Z M 170.801,184.254 165.227,223.207 139.484,184.254 H 79.2539 v 226.769 h 57.5941 l -0.141,-117.652 25.039,34.875 h 59.133 l 6.258,-36.172 70.961,118.949 H 362.09 L 229.227,184.254 Z M 21.2578,574.023 V 21.2656 H 574.02 V 574.023 H 21.2578" /><path
         id="path18"
         style="fill:#231f20;fill-opacity:1;fill-rule:nonzero;stroke:none"
         d="m 1466.78,361.273 20.84,48.047 h -22.11 l -15.79,-40.718 -12.95,-1.411 v 42.129 h -19.45 V 313.5 h 19.45 v 36.781 l 12.95,1.41 16.06,-38.191 h 22.41 z M 1379.66,313.5 h 19.43 v 95.82 h -19.43 z m 12.43,-31.426 h -16.81 v -96.433 h 8.54 v 88.66 h 3.02 l 40.36,-88.66 h 16.52 v 96.433 h -8.4 v -88.797 h -3.16 z m -64.87,31.426 h 32 v 95.82 h -19.46 v -78.906 h -1.39 l -23.12,78.906 h -32.83 V 313.5 h 19.44 v 78.91 h 1.41 z m -60.6,47.355 c 0,32.407 -9.58,50.157 -39.73,50.157 -30.15,0 -39.73,-17.75 -39.73,-50.157 0,-32.414 9.58,-49.042 39.73,-49.042 30.15,0 39.73,16.628 39.73,49.042 m -20.01,0 c 0,-22.136 -3.94,-32.136 -19.72,-32.136 -15.78,0 -19.72,10 -19.72,32.136 0,22.118 3.94,33.247 19.72,33.247 15.78,0 19.72,-11.129 19.72,-33.247 m -75.41,81.907 h 19.44 v 95.82 h -19.44 v -39.168 h -35.65 v 39.168 h -19.44 v -95.82 h 19.44 v 39.742 h 35.65 z m -31.03,-33.442 h -37.19 V 313.5 h 19.43 v 32.133 h 18.74 l 11.13,-32.133 h 21.28 l -13.67,36.641 c 8.74,5.492 14.09,14.371 14.09,27.621 0,21.843 -11.97,31.558 -33.81,31.558 m -17.76,-16.629 h 17.76 c 9.3,0 13.95,-6.062 13.95,-15.211 0,-8.457 -3.95,-15.218 -13.66,-15.218 h -18.05 z m -45.54,128.7 h 25.36 v 17.191 h -70.44 v -17.191 h 25.64 v -78.629 h 19.44 z m -55.42,-14.371 c 0,21.843 -11.98,31.562 -33.813,31.562 h -37.192 v -95.82 h 19.438 v 32.129 h 18.738 l 11.133,-32.129 h 21.276 l -13.67,36.64 c 8.74,5.489 14.09,14.371 14.09,27.618 m -19.87,-0.278 c 0,-8.461 -3.935,-15.219 -13.654,-15.219 h -18.043 v 30.43 h 17.754 c 9.293,0 13.943,-6.058 13.943,-15.211 M 958.633,409.32 H 939.195 V 313.5 h 19.438 v 36.781 l 12.957,1.41 16.074,-38.191 h 22.406 l -21.429,47.773 20.849,48.047 h -22.119 l -15.781,-40.718 -12.957,-1.411 z m -27.016,65.852 v 34.91 H 912.176 V 474.75 c 0,-11.277 -5.633,-16.766 -17.051,-16.766 -11.414,0 -17.039,5.352 -17.039,16.766 v 35.332 h -19.453 v -34.91 c 0,-23.961 12.539,-34.098 36.492,-34.098 23.953,0 36.492,10.137 36.492,34.098 m -19.441,43.82 h 19.433 v 19.582 h -19.433 z m -53.543,0 h 19.441 v 19.582 H 858.633 Z M 795.074,313.5 h 54.531 v 17.191 h -35.093 v 78.629 h -19.438 z m 31.574,129.262 18.321,95.82 h -20.43 l -11.836,-79.187 h -2.109 l -17.188,79.187 h -22.539 l -17.195,-79.187 h -2.113 l -11.836,79.187 h -20.426 l 18.316,-95.82 h 29.446 l 15.078,72.851 15.078,-72.851 z M 781.285,409.32 H 719.297 V 313.5 h 61.988 v 16.914 h -42.543 v 22.969 h 34.086 v 16.633 h -34.086 v 22.394 h 42.543 z M 735.27,282.074 h -15.973 v -96.433 h 8.539 v 87.547 h 1.926 l 30.019,-84.356 h 10.051 l 30.02,84.356 h 1.933 v -87.547 h 8.524 v 96.433 h -15.965 l -29.473,-84.363 z m -6.477,-127.558 h -9.496 l 30.707,-55.6449 v -40.793 h 8.539 v 40.793 l 30.703,55.6449 h -9.641 l -25.332,-46.77 z m 68.441,-48.7 c 0,-32.0504 7.704,-49.1246 37.317,-49.1246 29.597,0 37.449,15.9609 37.449,49.1246 0,31.903 -7.98,50.086 -37.449,50.086 -29.465,0 -37.317,-18.32 -37.317,-50.086 m 8.809,0 c 0,27.188 5.098,42.313 28.508,42.313 23.269,0 28.64,-15.266 28.64,-42.313 0,-28.3121 -4.812,-41.359 -28.64,-41.359 -23.832,0 -28.508,14.0235 -28.508,41.359 m 62.488,177.645 c -29.472,0 -37.312,-18.32 -37.312,-50.09 0,-32.051 7.707,-49.117 37.312,-49.117 29.61,0 37.461,15.957 37.461,49.117 0,31.906 -7.984,50.09 -37.461,50.09 m 0,-7.773 c 23.282,0 28.645,-15.262 28.645,-42.317 0,-28.308 -4.817,-41.344 -28.645,-41.344 -23.816,0 -28.496,14 -28.496,41.344 0,27.192 5.09,42.317 28.496,42.317 M 882,330.414 v 22.969 h 34.102 v 16.633 H 882 v 22.394 h 42.551 v 16.91 H 862.566 V 313.5 h 61.985 v 16.914 z m 18.68,-175.898 h -8.399 V 86.3828 c 0,-21.4961 11.985,-29.6914 32.231,-29.6914 21.343,0 33.316,8.1953 33.316,29.6914 v 68.1332 h -8.531 V 86.3828 c 0,-16.0976 -8.957,-21.9258 -24.785,-21.9258 -14.867,0 -23.832,5.9766 -23.832,21.9258 z m 34.613,69.14 h 29.187 l 18.875,-38.015 h 9.493 l -19.688,39.683 c 12.805,3.469 18.449,13.598 18.449,28.164 0,19.973 -10.05,28.586 -29.734,28.586 h -35.117 v -96.433 h 8.535 z m 0,7.637 v 43.145 h 26.582 c 14.305,0 20.926,-6.661 20.926,-21.083 0,-12.914 -5.371,-22.062 -20.926,-22.062 z m 131.647,-76.777 h -57.43 V 58.0781 h 57.43 v 7.6289 h -48.89 v 37.609 h 40.62 v 7.625 h -40.62 v 35.801 h 48.89 z m -55.49,31.125 h 57.42 v 7.636 H 1020 v 37.594 h 40.61 V 238.5 H 1020 v 35.801 h 48.87 v 7.773 h -57.42 z m 52.72,127.859 v 78.633 h 25.35 v 17.187 h -70.45 v -17.187 h 25.64 V 313.5 Z m 16.78,-158.984 30.02,-48.985 -30.02,-47.4529 h 9.36 l 26.04,41.6211 25.6,-41.6211 h 9.64 l -29.74,47.5899 29.74,48.848 h -9.36 l -25.75,-42.61 -25.89,42.61 z m 70.31,31.125 v 88.66 h 30.02 v 7.773 h -68.86 v -7.773 h 30.3 v -88.66 z m 52,-31.125 h -34.98 V 58.0781 h 8.54 v 33.586 h 26.44 c 20.53,0 29.75,11.6519 29.75,32.3239 0,20.539 -9.22,30.528 -29.75,30.528 m -26.44,-7.637 h 26.44 c 14.87,0 20.94,-7.352 20.94,-22.891 0,-15.672 -6.07,-24.695 -20.94,-24.695 h -26.44 z m 81.04,135.195 v -44.258 h -51.91 v 44.258 h -8.54 v -96.433 h 8.54 v 44.539 h 51.91 v -44.539 h 8.41 v 96.433 z m 50.27,-127.558 h -57.42 V 58.0781 h 57.42 v 7.6289 h -48.87 v 37.609 h 40.61 v 7.625 h -40.61 v 35.801 h 48.87 z m 41.73,31.125 h 8.4 l -27.39,96.433 h -19.97 l -27.54,-96.433 h 8.53 l 7.57,26.636 h 42.7 z m -9.77,34.277 h -38.57 l 15.57,54.668 h 7.43 z m -19.1,-113.969 c 0,-31.3552 6.21,-49.2576 34.7,-49.2576 9.09,0 19.14,1.5352 25.89,2.9141 l -0.41,7.5 c -6.75,-1.25 -16.67,-2.6485 -24.65,-2.6485 -23.13,0 -26.72,14.2969 -26.72,41.492 0,27.473 3.44,42.18 26.58,42.18 7.71,0 18.74,-1.524 24.79,-2.637 l 0.41,7.492 c -6.2,1.25 -16.25,2.918 -25.89,2.918 -29.05,0 -34.7,-18.32 -34.7,-49.953 m 142.51,48.567 h -68.85 v -7.774 h 30.29 V 58.0781 h 8.54 v 88.6639 h 30.02 v 7.774" /></g></g></svg>