<svg xmlns="http://www.w3.org/2000/svg" xmlns:xlink="http://www.w3.org/1999/xlink"
  viewBox="0 0 950.77 171.2">
  <defs>
    <style>
      .__zoomworks-cls-1{fill:none;}.__zoomworks-cls-2{isolation:isolate;}.__zoomworks-cls-3{mix-blend-mode:multiply;}.__zoomworks-cls-4{clip-path:url(#clip-path);}.__zoomworks-cls-5{fill:#1273b9;}.__zoomworks-cls-6{clip-path:url(#clip-path-2);}.__zoomworks-cls-7{clip-path:url(#clip-path-3);}.__zoomworks-cls-8{fill:#009ee2;}.__zoomworks-cls-9{fill:#009de2;}.__zoomworks-cls-10{clip-path:url(#clip-path-4);}.__zoomworks-cls-11{fill:#009ce1;}.__zoomworks-cls-12{fill:#009ce0;}.__zoomworks-cls-13{fill:#009be0;}.__zoomworks-cls-14{fill:#009bdf;}.__zoomworks-cls-15{fill:#009adf;}.__zoomworks-cls-16{fill:#009ade;}.__zoomworks-cls-17{fill:#0099de;}.__zoomworks-cls-18{fill:#09d;}.__zoomworks-cls-19{fill:#0098dd;}.__zoomworks-cls-20{fill:#0098dc;}.__zoomworks-cls-21{fill:#0097dc;}.__zoomworks-cls-22{fill:#0097db;}.__zoomworks-cls-23{fill:#0096db;}.__zoomworks-cls-24{fill:#0096da;}.__zoomworks-cls-25{fill:#0095da;}.__zoomworks-cls-26{fill:#0095d9;}.__zoomworks-cls-27{fill:#0094d9;}.__zoomworks-cls-28{fill:#0094d8;}.__zoomworks-cls-29{fill:#0093d8;}.__zoomworks-cls-30{fill:#0093d7;}.__zoomworks-cls-31{fill:#0092d7;}.__zoomworks-cls-32{fill:#0092d6;}.__zoomworks-cls-33{fill:#0091d6;}.__zoomworks-cls-34{fill:#0091d5;}.__zoomworks-cls-35{fill:#0090d5;}.__zoomworks-cls-36{fill:#0090d4;}.__zoomworks-cls-37{fill:#008fd4;}.__zoomworks-cls-38{fill:#008fd3;}.__zoomworks-cls-39{fill:#008ed3;}.__zoomworks-cls-40{fill:#008ed2;}.__zoomworks-cls-41{fill:#008dd2;}.__zoomworks-cls-42{fill:#008dd1;}.__zoomworks-cls-43{fill:#008cd1;}.__zoomworks-cls-44{fill:#008cd0;}.__zoomworks-cls-45{fill:#008bd0;}.__zoomworks-cls-46{fill:#008bcf;}.__zoomworks-cls-47{fill:#008acf;}.__zoomworks-cls-48{fill:#008ace;}.__zoomworks-cls-49{fill:#0089ce;}.__zoomworks-cls-50{fill:#0088cd;}.__zoomworks-cls-51{fill:#0087cc;}.__zoomworks-cls-52{fill:#0086cb;}.__zoomworks-cls-53{fill:#0085cb;}.__zoomworks-cls-54{fill:#0085ca;}.__zoomworks-cls-55{fill:#0084c9;}.__zoomworks-cls-56{fill:#0083c9;}.__zoomworks-cls-57{fill:#0083c8;}.__zoomworks-cls-58{fill:#0082c8;}.__zoomworks-cls-59{fill:#0082c7;}.__zoomworks-cls-60{fill:#0081c7;}.__zoomworks-cls-61{fill:#0081c6;}.__zoomworks-cls-62{fill:#0080c6;}.__zoomworks-cls-63{fill:#0080c5;}.__zoomworks-cls-64{fill:#0080c4;}.__zoomworks-cls-65{fill:#007fc4;}.__zoomworks-cls-66{fill:#007ec3;}.__zoomworks-cls-67{fill:#007ec2;}.__zoomworks-cls-68{fill:#007dc2;}.__zoomworks-cls-69{fill:#007cc1;}.__zoomworks-cls-70{fill:#007cc0;}.__zoomworks-cls-71{fill:#007bc0;}.__zoomworks-cls-72{fill:#007ac0;}.__zoomworks-cls-73{fill:#007abf;}.__zoomworks-cls-74{fill:#0079be;}.__zoomworks-cls-75{fill:#0078be;}.__zoomworks-cls-76{fill:#0078bd;}.__zoomworks-cls-77{fill:#0077bd;}.__zoomworks-cls-78{fill:#0077bc;}.__zoomworks-cls-79{fill:#0076bc;}.__zoomworks-cls-80{fill:#0076bb;}.__zoomworks-cls-81{fill:#0075bb;}.__zoomworks-cls-82{fill:#0075ba;}.__zoomworks-cls-83{fill:#0574ba;}.__zoomworks-cls-84{fill:#0874ba;}.__zoomworks-cls-85{fill:#0b73b9;}.__zoomworks-cls-86{clip-path:url(#clip-path-5);}.__zoomworks-cls-87{opacity:0.6;}.__zoomworks-cls-88{fill:#174e80;}.__zoomworks-cls-89{clip-path:url(#clip-path-6);}.__zoomworks-cls-90{clip-path:url(#clip-path-7);}.__zoomworks-cls-91{clip-path:url(#clip-path-8);}</style>
    <clipPath id="clip-path">
      <path class="__zoomworks-cls-1"
        d="M122.22,75.3a30.56,30.56,0,0,1,12.6-2.25,23.14,23.14,0,0,1,11.82,2.82,22.65,22.65,0,0,1,7.88,7.66A36.52,36.52,0,0,1,159,94.68a52.93,52.93,0,0,1,.94,5.4l20.89,11.22c0-1.09,0-2.18,0-3.29q0-24.21-11-38.21t-35.1-14q-13.86,0-22.68,3.69A33.31,33.31,0,0,0,100,67.89l18.32,9.84A18.2,18.2,0,0,1,122.22,75.3Z" />
    </clipPath>
    <clipPath id="clip-path-2">
      <path class="__zoomworks-cls-1"
        d="M218.16,127.7A125.92,125.92,0,0,1,217,110.23a104.83,104.83,0,0,1,1.13-16.45,31.85,31.85,0,0,1,3.94-11.6,17.28,17.28,0,0,1,7.76-6.88,30.58,30.58,0,0,1,12.61-2.25,23.07,23.07,0,0,1,11.81,2.82,22.65,22.65,0,0,1,7.88,7.66,36.52,36.52,0,0,1,4.5,11.15,59.06,59.06,0,0,1,1.46,13.3q0,11.94-.78,20.62a42.13,42.13,0,0,1-3.49,14.3,17.84,17.84,0,0,1-7.77,8.34c-.14.08-.31.15-.46.22L274,161.31a32.65,32.65,0,0,0,5.29-6.25,52,52,0,0,0,7.26-19.83,163.07,163.07,0,0,0,2-27.22q0-24.21-11-38.21t-35.09-14q-13.86,0-22.69,3.69a32.57,32.57,0,0,0-14,10.65,42.08,42.08,0,0,0-7.16,17,118.89,118.89,0,0,0-2,23.08c0,3.37.12,6.6.33,9.71l21.89,11.76C218.59,130.42,218.35,129.09,218.16,127.7Z" />
    </clipPath>
    <clipPath id="clip-path-3">
      <path class="__zoomworks-cls-1"
        d="M619,141.55A46.89,46.89,0,0,1,615,127.7a126,126,0,0,1-1.12-17.47A104.94,104.94,0,0,1,615,93.78,31.85,31.85,0,0,1,619,82.18a17.36,17.36,0,0,1,7.77-6.88,30.53,30.53,0,0,1,12.6-2.25,23.14,23.14,0,0,1,11.82,2.82,22.15,22.15,0,0,1,2.51,1.71l9.18-17.08q-9.55-4.7-23.51-4.7t-22.69,3.69a32.63,32.63,0,0,0-14,10.65,41.93,41.93,0,0,0-7.15,17,118.89,118.89,0,0,0-2,23.08q0,29.35,10.84,45.15a34,34,0,0,0,4.6,5.43l10.19-19C619.08,141.76,619,141.66,619,141.55Z" />
    </clipPath>
    <clipPath id="clip-path-4">
      <path class="__zoomworks-cls-1"
        d="M568.21,169.64V129.23h0v-8.46l0-1.2V87A12.66,12.66,0,0,1,580.9,74.39H582c.16-1.19.31-2.37.41-3.53.14-1.76.22-3.41.22-4.94,0-1.69,0-3.14-.11-4.36s-.19-2.3-.34-3.22c-.06-.43-.12-.82-.18-1.22h-7.1a27.23,27.23,0,0,0-27.08,25.76v69.49H508.6V57.83q-1.35-.22-2.91-.45c-.9-.14-1.94-.26-3.14-.33s-2.61-.12-4.26-.12c-1.49,0-3.1.08-4.82.23s-3.47.37-5.26.67v94.53h-28.1a12.66,12.66,0,0,1-12.66-12.65v-19h0V84.39a27.28,27.28,0,0,0-27.29-27.28H306v40h0v72.38q1.34.23,2.91.45c.9.15,2,.26,3.25.34s2.72.11,4.37.11c1.49,0,3.1-.08,4.81-.22s3.4-.38,5.05-.68V74.39h39.21v95.06q1.35.23,2.91.45c.9.15,1.94.26,3.14.34s2.61.11,4.26.11c1.49,0,3.1-.08,4.82-.22s3.47-.38,5.26-.68V74.39h28.11A12.65,12.65,0,0,1,426.78,87v33.73h0v21.58a27.29,27.29,0,0,0,27.29,27.29H568.21Z" />
    </clipPath>
    <clipPath id="clip-path-5">
      <path class="__zoomworks-cls-1"
        d="M661.91,167.17a32.52,32.52,0,0,0,14.19-12.11q5.25-8.06,7.27-19.83a163.15,163.15,0,0,0,2-27.22q0-24.21-11-38.21a32.71,32.71,0,0,0-11.58-9.3l-9.18,17.08a22.84,22.84,0,0,1,5.36,6,36.28,36.28,0,0,1,4.51,11.15A59.06,59.06,0,0,1,665,108q0,11.94-.79,20.62a42.25,42.25,0,0,1-3.49,14.31,17.89,17.89,0,0,1-7.76,8.33q-5.07,2.7-13.62,2.7c-5.1,0-9.31-1.08-12.6-3.26a22,22,0,0,1-7.59-8.81l-10.19,19q10.83,10.36,30.38,10.37Q653,171.2,661.91,167.17Z" />
    </clipPath>
    <clipPath id="clip-path-6">
      <path class="__zoomworks-cls-1"
        d="M758.41,57.36a101.21,101.21,0,0,0-10.2-1.23q-5-.33-10-.33-6.94,0-13,.56t-10.53,1.23q-5.37.9-9.86,1.57V169.41l2.92.44a32.48,32.48,0,0,0,3.24.34c1.27.07,2.73.11,4.38.11,1.49,0,3.09-.08,4.81-.22s3.4-.38,5-.67V75.07c1.35-.15,2.84-.3,4.49-.45,1.49-.15,3.21-.26,5.15-.34s4.11-.11,6.5-.11,5.26.08,8.18.22,5.86.45,8.85.9l.45-2.72a23.83,23.83,0,0,0,.33-2.84c.08-1.13.12-2.38.12-3.74a40.58,40.58,0,0,0-.23-4.2C758.93,60.36,758.71,58.88,758.41,57.36Z" />
    </clipPath>
    <clipPath id="clip-path-7">
      <path class="__zoomworks-cls-1"
        d="M860.05,61.17a25.85,25.85,0,0,0-5.83-2.46,56,56,0,0,0-6.72-1.57,67.81,67.81,0,0,0-8.52-.9l-42.8,46.84h-1.34L795.29.9c-.9-.15-1.95-.3-3.14-.45s-2.21-.26-3.47-.34S786,0,784.53,0s-3.06.08-4.71.22-3.28.38-4.93.68V169.41l2.92.44a32.39,32.39,0,0,0,3.25.34c1.26.07,2.72.11,4.37.11,1.49,0,3.09-.08,4.81-.22s3.4-.38,5-.67l-.45-54.9h1.34L841.45,171a57.71,57.71,0,0,0,15.46-2.68,22.5,22.5,0,0,0,5.38-2.25l-47.51-57.59Z" />
    </clipPath>
    <clipPath id="clip-path-8">
      <path class="__zoomworks-cls-1"
        d="M948.2,122.68a28.47,28.47,0,0,0-7-9.63,33.34,33.34,0,0,0-10-6.16A44.65,44.65,0,0,0,919.63,104c-4-.44-7.59-.85-10.65-1.23a23,23,0,0,1-7.84-2.24,11.31,11.31,0,0,1-4.93-4.82q-1.68-3.14-1.68-8.74a12.87,12.87,0,0,1,4.26-10.08c2.83-2.54,7.32-3.81,13.44-3.81a34.05,34.05,0,0,1,9.41,1.12,50.77,50.77,0,0,1,6.28,2.24,22.46,22.46,0,0,1,4.48,3.36,29.73,29.73,0,0,0,6.05-4.37c1.64-1.57,3.06-3,4.26-4.37a26.13,26.13,0,0,0,3.14-4.7A42.7,42.7,0,0,0,938,61.17a55.32,55.32,0,0,0-10.42-3.69,61,61,0,0,0-15.35-1.68,69.08,69.08,0,0,0-16.13,1.68A29.11,29.11,0,0,0,884.45,63a23,23,0,0,0-7.06,10.19q-2.35,6.39-2.35,16a30.48,30.48,0,0,0,2.12,11.66,29.17,29.17,0,0,0,5.72,9,28.78,28.78,0,0,0,8.4,6.16,32.38,32.38,0,0,0,10.42,3q6.27.67,11.77,1.45a35,35,0,0,1,9.41,2.58,14.17,14.17,0,0,1,6.16,5.27q2.24,3.47,2.24,9.74,0,7.4-5,11.54t-18.49,4.15a29.22,29.22,0,0,1-9-1.23,33.43,33.43,0,0,1-6.5-2.8,25.23,25.23,0,0,1-5.38-4,26.32,26.32,0,0,0-5.82,4.15c-1.65,1.57-3.07,3-4.26,4.37a31.25,31.25,0,0,0-3.36,4.93,23.88,23.88,0,0,0,7.62,6.05,48.23,48.23,0,0,0,10.53,4A61.46,61.46,0,0,0,907.75,171q21.74,0,32.38-7.84t10.64-27.34A31.56,31.56,0,0,0,948.2,122.68Z" />
    </clipPath>
  </defs>
  <g class="__zoomworks-cls-2">
    <g id="Layer_2" data-name="Layer 2">
      <g id="ZoomWorks_Blauw">
        <g class="__zoomworks-cls-3">
          <g class="__zoomworks-cls-4">
            <rect class="__zoomworks-cls-5" x="100.03" y="55.8" width="80.85" height="55.5" />
          </g>
        </g>
        <g class="__zoomworks-cls-3">
          <g class="__zoomworks-cls-6">
            <rect class="__zoomworks-cls-5" x="196.64" y="55.8" width="91.87" height="105.51" />
          </g>
        </g>
        <g class="__zoomworks-cls-7">
          <rect class="__zoomworks-cls-8" x="598.39" y="55.8" width="64.45" height="105.04" />
          <rect class="__zoomworks-cls-8" x="596.25" y="55.8" width="2.14" height="105.04" />
          <rect class="__zoomworks-cls-9" x="594.11" y="55.8" width="2.14" height="105.04" />
          <rect class="__zoomworks-cls-9" x="593.51" y="55.8" width="0.61" height="105.04" />
        </g>
        <g class="__zoomworks-cls-10">
          <rect class="__zoomworks-cls-11" x="581.28" y="56.93" width="1.34" height="113.42" />
          <rect class="__zoomworks-cls-12" x="579.14" y="56.93" width="2.14" height="113.42" />
          <rect class="__zoomworks-cls-13" x="577" y="56.93" width="2.14" height="113.42" />
          <rect class="__zoomworks-cls-13" x="574.86" y="56.93" width="2.14" height="113.42" />
          <rect class="__zoomworks-cls-14" x="572.72" y="56.93" width="2.14" height="113.42" />
          <rect class="__zoomworks-cls-15" x="570.58" y="56.93" width="2.14" height="113.42" />
          <rect class="__zoomworks-cls-15" x="568.45" y="56.93" width="2.14" height="113.42" />
          <rect class="__zoomworks-cls-15" x="566.31" y="56.93" width="2.14" height="113.42" />
          <rect class="__zoomworks-cls-16" x="564.17" y="56.93" width="2.14" height="113.42" />
          <rect class="__zoomworks-cls-17" x="562.03" y="56.93" width="2.14" height="113.42" />
          <rect class="__zoomworks-cls-17" x="559.89" y="56.93" width="2.14" height="113.42" />
          <rect class="__zoomworks-cls-18" x="557.75" y="56.93" width="2.14" height="113.42" />
          <rect class="__zoomworks-cls-19" x="555.61" y="56.93" width="2.14" height="113.42" />
          <rect class="__zoomworks-cls-19" x="553.47" y="56.93" width="2.14" height="113.42" />
          <rect class="__zoomworks-cls-19" x="551.33" y="56.93" width="2.14" height="113.42" />
          <rect class="__zoomworks-cls-20" x="549.19" y="56.93" width="2.14" height="113.42" />
          <rect class="__zoomworks-cls-21" x="547.05" y="56.93" width="2.14" height="113.42" />
          <rect class="__zoomworks-cls-21" x="544.91" y="56.93" width="2.14" height="113.42" />
          <rect class="__zoomworks-cls-22" x="542.78" y="56.93" width="2.14" height="113.42" />
          <rect class="__zoomworks-cls-23" x="540.64" y="56.93" width="2.14" height="113.42" />
          <rect class="__zoomworks-cls-23" x="538.5" y="56.93" width="2.14" height="113.42" />
          <rect class="__zoomworks-cls-24" x="536.36" y="56.93" width="2.14" height="113.42" />
          <rect class="__zoomworks-cls-25" x="534.22" y="56.93" width="2.14" height="113.42" />
          <rect class="__zoomworks-cls-25" x="532.08" y="56.93" width="2.14" height="113.42" />
          <rect class="__zoomworks-cls-25" x="529.94" y="56.93" width="2.14" height="113.42" />
          <rect class="__zoomworks-cls-26" x="527.8" y="56.93" width="2.14" height="113.42" />
          <rect class="__zoomworks-cls-26" x="525.66" y="56.93" width="2.14" height="113.42" />
          <rect class="__zoomworks-cls-27" x="523.52" y="56.93" width="2.14" height="113.42" />
          <rect class="__zoomworks-cls-28" x="521.38" y="56.93" width="2.14" height="113.42" />
          <rect class="__zoomworks-cls-29" x="519.25" y="56.93" width="2.14" height="113.42" />
          <rect class="__zoomworks-cls-29" x="517.11" y="56.93" width="2.14" height="113.42" />
          <rect class="__zoomworks-cls-30" x="514.97" y="56.93" width="2.14" height="113.42" />
          <rect class="__zoomworks-cls-31" x="512.83" y="56.93" width="2.14" height="113.42" />
          <rect class="__zoomworks-cls-31" x="510.69" y="56.93" width="2.14" height="113.42" />
          <rect class="__zoomworks-cls-32" x="508.55" y="56.93" width="2.14" height="113.42" />
          <rect class="__zoomworks-cls-32" x="506.41" y="56.93" width="2.14" height="113.42" />
          <rect class="__zoomworks-cls-33" x="504.27" y="56.93" width="2.14" height="113.42" />
          <rect class="__zoomworks-cls-33" x="502.13" y="56.93" width="2.14" height="113.42" />
          <rect class="__zoomworks-cls-34" x="499.99" y="56.93" width="2.14" height="113.42" />
          <rect class="__zoomworks-cls-35" x="497.85" y="56.93" width="2.14" height="113.42" />
          <rect class="__zoomworks-cls-35" x="495.71" y="56.93" width="2.14" height="113.42" />
          <rect class="__zoomworks-cls-36" x="493.58" y="56.93" width="2.14" height="113.42" />
          <rect class="__zoomworks-cls-37" x="491.44" y="56.93" width="2.14" height="113.42" />
          <rect class="__zoomworks-cls-37" x="489.3" y="56.93" width="2.14" height="113.42" />
          <rect class="__zoomworks-cls-38" x="487.16" y="56.93" width="2.14" height="113.42" />
          <rect class="__zoomworks-cls-39" x="485.02" y="56.93" width="2.14" height="113.42" />
          <rect class="__zoomworks-cls-39" x="482.88" y="56.93" width="2.14" height="113.42" />
          <rect class="__zoomworks-cls-40" x="480.74" y="56.93" width="2.14" height="113.42" />
          <rect class="__zoomworks-cls-41" x="478.6" y="56.93" width="2.14" height="113.42" />
          <rect class="__zoomworks-cls-41" x="476.46" y="56.93" width="2.14" height="113.42" />
          <rect class="__zoomworks-cls-42" x="474.32" y="56.93" width="2.14" height="113.42" />
          <rect class="__zoomworks-cls-43" x="472.18" y="56.93" width="2.14" height="113.42" />
          <rect class="__zoomworks-cls-43" x="470.05" y="56.93" width="2.14" height="113.42" />
          <rect class="__zoomworks-cls-44" x="467.91" y="56.93" width="2.14" height="113.42" />
          <rect class="__zoomworks-cls-45" x="465.77" y="56.93" width="2.14" height="113.42" />
          <rect class="__zoomworks-cls-45" x="463.63" y="56.93" width="2.14" height="113.42" />
          <rect class="__zoomworks-cls-46" x="461.49" y="56.93" width="2.14" height="113.42" />
          <rect class="__zoomworks-cls-47" x="459.35" y="56.93" width="2.14" height="113.42" />
          <rect class="__zoomworks-cls-47" x="457.21" y="56.93" width="2.14" height="113.42" />
          <rect class="__zoomworks-cls-48" x="455.07" y="56.93" width="2.14" height="113.42" />
          <rect class="__zoomworks-cls-49" x="452.93" y="56.93" width="2.14" height="113.42" />
          <rect class="__zoomworks-cls-49" x="450.79" y="56.93" width="2.14" height="113.42" />
          <rect class="__zoomworks-cls-50" x="448.65" y="56.93" width="2.14" height="113.42" />
          <rect class="__zoomworks-cls-50" x="446.51" y="56.93" width="2.14" height="113.42" />
          <rect class="__zoomworks-cls-50" x="444.38" y="56.93" width="2.14" height="113.42" />
          <rect class="__zoomworks-cls-51" x="442.24" y="56.93" width="2.14" height="113.42" />
          <rect class="__zoomworks-cls-51" x="440.1" y="56.93" width="2.14" height="113.42" />
          <rect class="__zoomworks-cls-51" x="437.96" y="56.93" width="2.14" height="113.42" />
          <rect class="__zoomworks-cls-52" x="435.82" y="56.93" width="2.14" height="113.42" />
          <rect class="__zoomworks-cls-52" x="433.68" y="56.93" width="2.14" height="113.42" />
          <rect class="__zoomworks-cls-53" x="431.54" y="56.93" width="2.14" height="113.42" />
          <rect class="__zoomworks-cls-54" x="429.4" y="56.93" width="2.14" height="113.42" />
          <rect class="__zoomworks-cls-54" x="427.26" y="56.93" width="2.14" height="113.42" />
          <rect class="__zoomworks-cls-55" x="425.12" y="56.93" width="2.14" height="113.42" />
          <rect class="__zoomworks-cls-55" x="422.98" y="56.93" width="2.14" height="113.42" />
          <rect class="__zoomworks-cls-56" x="420.85" y="56.93" width="2.14" height="113.42" />
          <rect class="__zoomworks-cls-57" x="418.71" y="56.93" width="2.14" height="113.42" />
          <rect class="__zoomworks-cls-57" x="416.57" y="56.93" width="2.14" height="113.42" />
          <rect class="__zoomworks-cls-58" x="414.43" y="56.93" width="2.14" height="113.42" />
          <rect class="__zoomworks-cls-59" x="412.29" y="56.93" width="2.14" height="113.42" />
          <rect class="__zoomworks-cls-60" x="410.15" y="56.93" width="2.14" height="113.42" />
          <rect class="__zoomworks-cls-61" x="408.01" y="56.93" width="2.14" height="113.42" />
          <rect class="__zoomworks-cls-62" x="405.87" y="56.93" width="2.14" height="113.42" />
          <rect class="__zoomworks-cls-63" x="403.73" y="56.93" width="2.14" height="113.42" />
          <rect class="__zoomworks-cls-63" x="401.59" y="56.93" width="2.14" height="113.42" />
          <rect class="__zoomworks-cls-63" x="399.45" y="56.93" width="2.14" height="113.42" />
          <rect class="__zoomworks-cls-64" x="397.31" y="56.93" width="2.14" height="113.42" />
          <rect class="__zoomworks-cls-65" x="395.18" y="56.93" width="2.14" height="113.42" />
          <rect class="__zoomworks-cls-65" x="393.04" y="56.93" width="2.14" height="113.42" />
          <rect class="__zoomworks-cls-66" x="390.9" y="56.93" width="2.14" height="113.42" />
          <rect class="__zoomworks-cls-66" x="388.76" y="56.93" width="2.14" height="113.42" />
          <rect class="__zoomworks-cls-67" x="386.62" y="56.93" width="2.14" height="113.42" />
          <rect class="__zoomworks-cls-68" x="384.48" y="56.93" width="2.14" height="113.42" />
          <rect class="__zoomworks-cls-68" x="382.34" y="56.93" width="2.14" height="113.42" />
          <rect class="__zoomworks-cls-69" x="380.2" y="56.93" width="2.14" height="113.42" />
          <rect class="__zoomworks-cls-69" x="378.06" y="56.93" width="2.14" height="113.42" />
          <rect class="__zoomworks-cls-70" x="375.92" y="56.93" width="2.14" height="113.42" />
          <rect class="__zoomworks-cls-71" x="373.78" y="56.93" width="2.14" height="113.42" />
          <rect class="__zoomworks-cls-72" x="371.65" y="56.93" width="2.14" height="113.42" />
          <rect class="__zoomworks-cls-73" x="369.51" y="56.93" width="2.14" height="113.42" />
          <rect class="__zoomworks-cls-73" x="367.37" y="56.93" width="2.14" height="113.42" />
          <rect class="__zoomworks-cls-74" x="365.23" y="56.93" width="2.14" height="113.42" />
          <rect class="__zoomworks-cls-74" x="363.09" y="56.93" width="2.14" height="113.42" />
          <rect class="__zoomworks-cls-75" x="360.95" y="56.93" width="2.14" height="113.42" />
          <rect class="__zoomworks-cls-76" x="358.81" y="56.93" width="2.14" height="113.42" />
          <rect class="__zoomworks-cls-77" x="356.67" y="56.93" width="2.14" height="113.42" />
          <rect class="__zoomworks-cls-78" x="354.53" y="56.93" width="2.14" height="113.42" />
          <rect class="__zoomworks-cls-78" x="352.39" y="56.93" width="2.14" height="113.42" />
          <rect class="__zoomworks-cls-79" x="350.25" y="56.93" width="2.14" height="113.42" />
          <rect class="__zoomworks-cls-80" x="348.12" y="56.93" width="2.14" height="113.42" />
          <rect class="__zoomworks-cls-81" x="345.98" y="56.93" width="2.14" height="113.42" />
          <rect class="__zoomworks-cls-82" x="343.84" y="56.93" width="2.14" height="113.42" />
          <rect class="__zoomworks-cls-83" x="341.7" y="56.93" width="2.14" height="113.42" />
          <rect class="__zoomworks-cls-84" x="339.56" y="56.93" width="2.14" height="113.42" />
          <rect class="__zoomworks-cls-85" x="337.42" y="56.93" width="2.14" height="113.42" />
          <rect class="__zoomworks-cls-5" x="335.28" y="56.93" width="2.14" height="113.42" />
          <rect class="__zoomworks-cls-5" x="306.03" y="56.93" width="29.26" height="113.42" />
        </g>
        <g class="__zoomworks-cls-86">
          <rect class="__zoomworks-cls-8" x="608.95" y="60.5" width="76.43" height="110.7" />
        </g>
        <g class="__zoomworks-cls-87">
          <path class="__zoomworks-cls-88"
            d="M661.91,167.17a32.52,32.52,0,0,0,14.19-12.11q5.25-8.06,7.27-19.83a163.15,163.15,0,0,0,2-27.22q0-24.21-11-38.21a32.71,32.71,0,0,0-11.58-9.3l-9.18,17.08a22.84,22.84,0,0,1,5.36,6,36.28,36.28,0,0,1,4.51,11.15A59.06,59.06,0,0,1,665,108q0,11.94-.79,20.62a42.25,42.25,0,0,1-3.49,14.31,17.89,17.89,0,0,1-7.76,8.33q-5.07,2.7-13.62,2.7c-5.1,0-9.31-1.08-12.6-3.26a22,22,0,0,1-7.59-8.81l-10.19,19q10.83,10.36,30.38,10.37Q653,171.2,661.91,167.17Z" />
        </g>
        <g class="__zoomworks-cls-89">
          <rect class="__zoomworks-cls-8" x="704.85" y="55.8" width="54.45" height="114.51" />
        </g>
        <g class="__zoomworks-cls-87">
          <path class="__zoomworks-cls-88"
            d="M758.41,57.36a101.21,101.21,0,0,0-10.2-1.23q-5-.33-10-.33-6.94,0-13,.56t-10.53,1.23q-5.37.9-9.86,1.57V169.41l2.92.44a32.48,32.48,0,0,0,3.24.34c1.27.07,2.73.11,4.38.11,1.49,0,3.09-.08,4.81-.22s3.4-.38,5-.67V75.07c1.35-.15,2.84-.3,4.49-.45,1.49-.15,3.21-.26,5.15-.34s4.11-.11,6.5-.11,5.26.08,8.18.22,5.86.45,8.85.9l.45-2.72a23.83,23.83,0,0,0,.33-2.84c.08-1.13.12-2.38.12-3.74a40.58,40.58,0,0,0-.23-4.2C758.93,60.36,758.71,58.88,758.41,57.36Z" />
        </g>
        <g class="__zoomworks-cls-90">
          <rect class="__zoomworks-cls-8" x="774.89" width="87.39" height="170.97" />
        </g>
        <g class="__zoomworks-cls-87">
          <path class="__zoomworks-cls-88"
            d="M860.05,61.17a25.85,25.85,0,0,0-5.83-2.46,56,56,0,0,0-6.72-1.57,67.81,67.81,0,0,0-8.52-.9l-42.8,46.84h-1.34L795.29.9c-.9-.15-1.95-.3-3.14-.45s-2.21-.26-3.47-.34S786,0,784.53,0s-3.06.08-4.71.22-3.28.38-4.93.68V169.41l2.92.44a32.39,32.39,0,0,0,3.25.34c1.26.07,2.72.11,4.37.11,1.49,0,3.09-.08,4.81-.22s3.4-.38,5-.67l-.45-54.9h1.34L841.45,171a57.71,57.71,0,0,0,15.46-2.68,22.5,22.5,0,0,0,5.38-2.25l-47.51-57.59Z" />
        </g>
        <g class="__zoomworks-cls-91">
          <rect class="__zoomworks-cls-8" x="873.47" y="55.8" width="77.31" height="115.18" />
        </g>
        <g class="__zoomworks-cls-87">
          <path class="__zoomworks-cls-88"
            d="M948.2,122.68a28.47,28.47,0,0,0-7-9.63,33.34,33.34,0,0,0-10-6.16A44.65,44.65,0,0,0,919.63,104c-4-.44-7.59-.85-10.65-1.23a23,23,0,0,1-7.84-2.24,11.31,11.31,0,0,1-4.93-4.82q-1.68-3.14-1.68-8.74a12.87,12.87,0,0,1,4.26-10.08c2.83-2.54,7.32-3.81,13.44-3.81a34.05,34.05,0,0,1,9.41,1.12,50.77,50.77,0,0,1,6.28,2.24,22.46,22.46,0,0,1,4.48,3.36,29.73,29.73,0,0,0,6.05-4.37c1.64-1.57,3.06-3,4.26-4.37a26.13,26.13,0,0,0,3.14-4.7A42.7,42.7,0,0,0,938,61.17a55.32,55.32,0,0,0-10.42-3.69,61,61,0,0,0-15.35-1.68,69.08,69.08,0,0,0-16.13,1.68A29.11,29.11,0,0,0,884.45,63a23,23,0,0,0-7.06,10.19q-2.35,6.39-2.35,16a30.48,30.48,0,0,0,2.12,11.66,29.17,29.17,0,0,0,5.72,9,28.78,28.78,0,0,0,8.4,6.16,32.38,32.38,0,0,0,10.42,3q6.27.67,11.77,1.45a35,35,0,0,1,9.41,2.58,14.17,14.17,0,0,1,6.16,5.27q2.24,3.47,2.24,9.74,0,7.4-5,11.54t-18.49,4.15a29.22,29.22,0,0,1-9-1.23,33.43,33.43,0,0,1-6.5-2.8,25.23,25.23,0,0,1-5.38-4,26.32,26.32,0,0,0-5.82,4.15c-1.65,1.57-3.07,3-4.26,4.37a31.25,31.25,0,0,0-3.36,4.93,23.88,23.88,0,0,0,7.62,6.05,48.23,48.23,0,0,0,10.53,4A61.46,61.46,0,0,0,907.75,171q21.74,0,32.38-7.84t10.64-27.34A31.56,31.56,0,0,0,948.2,122.68Z" />
        </g>
        <path class="__zoomworks-cls-8"
          d="M76.41,151.93q-14.79,0-24.65.11t-16.13.34c-4.93.15-8.82.22-11.65.22v-1.34L74.17,74.62q.22-1.11.45-2.46A22.61,22.61,0,0,0,75,69.37c.07-1.12.11-2.35.11-3.69s-.08-2.61-.23-4.25A35.28,35.28,0,0,0,74.17,57h-71a44.29,44.29,0,0,0-.67,4.54c-.15,1.54-.23,2.91-.23,4.09s0,2.51.11,3.54a22.26,22.26,0,0,0,.34,2.65q.23,1.34.45,2.43h23.3q9.19,0,14.79-.22,6.27-.22,9.86-.45v1.35L.9,151.7c-.3,1.5-.52,3-.68,4.37S0,158.8,0,160c0,1.35,0,2.58.11,3.7s.19,2.13.34,3,.3,1.94.45,2.69H76.41c.15-.75.3-1.57.45-2.47a23.05,23.05,0,0,0,.34-2.8c.07-1.12.11-2.35.11-3.7,0-1.19-.08-2.58-.23-4.14A35.57,35.57,0,0,0,76.41,151.93Z" />
        <path class="__zoomworks-cls-8"
          d="M91,87.17a118.89,118.89,0,0,0-2,23.08q0,29.35,10.84,45.15t35,15.8q13.63,0,22.58-4a32.52,32.52,0,0,0,14.19-12.11q5.26-8.06,7.27-19.83a156,156,0,0,0,2-23.93L160,100.08a59.79,59.79,0,0,1,.52,7.9q0,11.94-.79,20.62a41.9,41.9,0,0,1-3.49,14.3,17.82,17.82,0,0,1-7.76,8.34c-3.37,1.8-7.92,2.7-13.62,2.7q-7.65,0-12.6-3.26a22.15,22.15,0,0,1-7.77-9.13,46.9,46.9,0,0,1-3.93-13.85,125.92,125.92,0,0,1-1.13-17.47,104.83,104.83,0,0,1,1.13-16.45,31.85,31.85,0,0,1,3.93-11.6,17.43,17.43,0,0,1,3.9-4.45L100,67.89a26.87,26.87,0,0,0-1.87,2.25A42.07,42.07,0,0,0,91,87.17Z" />
        <path class="__zoomworks-cls-8"
          d="M242.47,171.2q13.64,0,22.57-4a33.34,33.34,0,0,0,8.91-5.86l-18.33-9.85q-5,2.47-13.15,2.48-7.66,0-12.61-3.26a22.06,22.06,0,0,1-7.76-9.13,43.45,43.45,0,0,1-3.24-9.83L197,120q1.56,22.37,10.51,35.44Q218.33,171.2,242.47,171.2Z" />
      </g>
    </g>
  </g>
</svg>