<svg xmlns="http://www.w3.org/2000/svg" viewBox="0 0 209.89 91.09"><defs><style>.cls-1{fill:#fff;}.cls-2{fill:#ff6464;}</style></defs><g id="Layer_2" data-name="Layer 2"><g id="Layer_4" data-name="Layer 4"><path class="cls-1" d="M5.72,90.76v-17H0V71.42H14.34V73.8H8.65v17Z"/><path class="cls-1" d="M20.94,91.09a7.05,7.05,0,0,1-3.58-.9,6.38,6.38,0,0,1-2.44-2.5A7.59,7.59,0,0,1,14,84a7.9,7.9,0,0,1,.87-3.78,6.26,6.26,0,0,1,2.43-2.54A7,7,0,0,1,21,76.72a6.69,6.69,0,0,1,3.51.9A6.48,6.48,0,0,1,26.8,80a6.69,6.69,0,0,1,.82,3.29c0,.18,0,.38,0,.59s0,.45,0,.71H16.91a4.24,4.24,0,0,0,1.31,3,4,4,0,0,0,2.72,1A3.67,3.67,0,0,0,23,88.09a3.42,3.42,0,0,0,1.25-1.53h2.93A6.22,6.22,0,0,1,25,89.79,6.38,6.38,0,0,1,20.94,91.09Zm0-12a4.16,4.16,0,0,0-2.6.87A3.84,3.84,0,0,0,17,82.61H24.7a3.5,3.5,0,0,0-1.14-2.54A3.76,3.76,0,0,0,20.94,79.13Z"/><path class="cls-1" d="M35.08,91.09a6.34,6.34,0,0,1-2.87-.58A4,4,0,0,1,30.52,89,4,4,0,0,1,30,86.89a3.7,3.7,0,0,1,1.55-3.15,7.27,7.27,0,0,1,4.42-1.16h3.59v-.25a3.09,3.09,0,0,0-.87-2.4,3.17,3.17,0,0,0-2.26-.8,3.78,3.78,0,0,0-2.11.59,2.49,2.49,0,0,0-1.09,1.76H30.27a4.67,4.67,0,0,1,1-2.56,5.67,5.67,0,0,1,2.21-1.63,7.41,7.41,0,0,1,2.94-.57,6.2,6.2,0,0,1,4.45,1.51,5.39,5.39,0,0,1,1.57,4.1v8.43H39.91l-.25-2.35A5.08,5.08,0,0,1,38,90.31,4.92,4.92,0,0,1,35.08,91.09Zm.58-2.38a3.46,3.46,0,0,0,2-.56,3.83,3.83,0,0,0,1.27-1.51,6.1,6.1,0,0,0,.57-2.07H36.24a3.85,3.85,0,0,0-2.47.61A1.88,1.88,0,0,0,33,86.69a1.76,1.76,0,0,0,.71,1.48A3.08,3.08,0,0,0,35.66,88.71Z"/><path class="cls-1" d="M46,90.76V77.06h2.6L48.86,79a4.81,4.81,0,0,1,1.75-1.66,5.18,5.18,0,0,1,2.53-.61,4.62,4.62,0,0,1,4.53,2.57,5.4,5.4,0,0,1,2-1.88,5.55,5.55,0,0,1,2.72-.69,5.28,5.28,0,0,1,4,1.55,6.46,6.46,0,0,1,1.47,4.61v7.88H65V83.19q0-4-3-4a3.18,3.18,0,0,0-2.53,1.16,5,5,0,0,0-1,3.32v7.07H55.48V83.19q0-4-3.06-4a3.14,3.14,0,0,0-2.5,1.16,5,5,0,0,0-1,3.32v7.07Z"/><path class="cls-1" d="M78.38,90.76V71.42H90.67V73.8H81.31v6h8.53v2.32H81.31v6.24h9.36v2.38Z"/><path class="cls-1" d="M95.3,74.46A1.9,1.9,0,0,1,93.94,74a1.8,1.8,0,0,1,0-2.57,2.08,2.08,0,0,1,2.73,0,1.8,1.8,0,0,1,0,2.57A1.9,1.9,0,0,1,95.3,74.46Zm-1.46,16.3V77.06h2.93v13.7Z"/><path class="cls-1" d="M100.57,90.76V77.06h2.59l.22,2.4a4.75,4.75,0,0,1,1.87-2,5.4,5.4,0,0,1,2.83-.74A5.05,5.05,0,0,1,112,78.27a6.64,6.64,0,0,1,1.42,4.61v7.88h-2.9V83.19q0-4-3.26-4a3.48,3.48,0,0,0-2.69,1.16,4.73,4.73,0,0,0-1.07,3.32v7.07Z"/><path class="cls-1" d="M123.09,91.09a6.4,6.4,0,0,1-5.88-3.51,8.37,8.37,0,0,1,0-7.39,6.36,6.36,0,0,1,2.39-2.54,6.63,6.63,0,0,1,3.52-.93,6.21,6.21,0,0,1,2.86.64,4.8,4.8,0,0,1,1.92,1.79V70.87h2.92V90.76H128.2l-.3-2.13a6.43,6.43,0,0,1-1.83,1.71A5.4,5.4,0,0,1,123.09,91.09Zm.52-2.54a4,4,0,0,0,3.08-1.3,5.24,5.24,0,0,0,0-6.7,4,4,0,0,0-3.08-1.28,4.05,4.05,0,0,0-3.09,1.28,4.7,4.7,0,0,0-1.21,3.36,5.06,5.06,0,0,0,.55,2.4A4.11,4.11,0,0,0,121.39,88,4.17,4.17,0,0,0,123.61,88.55Z"/><path class="cls-1" d="M134.53,90.76V70.87h2.93v8.4a4.86,4.86,0,0,1,1.92-1.87,5.57,5.57,0,0,1,2.72-.68A5,5,0,0,1,146,78.27a6.64,6.64,0,0,1,1.41,4.61v7.88h-2.9V83.19q0-4-3.18-4a3.64,3.64,0,0,0-2.75,1.16,4.69,4.69,0,0,0-1.09,3.32v7.07Z"/><path class="cls-1" d="M157.22,91.09a6.93,6.93,0,0,1-3.52-.9,6.62,6.62,0,0,1-2.47-2.51,7.54,7.54,0,0,1-.91-3.77,7.4,7.4,0,0,1,.93-3.77,6.62,6.62,0,0,1,2.49-2.52,7.31,7.31,0,0,1,7,0,6.7,6.7,0,0,1,2.49,2.52,8.11,8.11,0,0,1,0,7.54,6.69,6.69,0,0,1-2.5,2.51A7,7,0,0,1,157.22,91.09Zm0-2.52a3.8,3.8,0,0,0,1.95-.52,3.85,3.85,0,0,0,1.45-1.56,5.41,5.41,0,0,0,.55-2.58,5.68,5.68,0,0,0-.53-2.59,3.79,3.79,0,0,0-6.78,0,6.25,6.25,0,0,0,0,5.17,3.81,3.81,0,0,0,1.43,1.56A3.73,3.73,0,0,0,157.22,88.57Z"/><path class="cls-1" d="M170.56,90.76l-5.14-13.7h3.07L172.3,88l3.81-10.91h3L174,90.76Z"/><path class="cls-1" d="M187.33,91.09a7,7,0,0,1-3.58-.9,6.38,6.38,0,0,1-2.44-2.5,7.59,7.59,0,0,1-.89-3.73,7.9,7.9,0,0,1,.87-3.78,6.26,6.26,0,0,1,2.43-2.54,7.06,7.06,0,0,1,3.64-.92,6.63,6.63,0,0,1,3.5.9A6.33,6.33,0,0,1,193.18,80,6.59,6.59,0,0,1,194,83.3c0,.18,0,.38,0,.59s0,.45,0,.71H183.3a4.2,4.2,0,0,0,1.31,3,4,4,0,0,0,2.72,1,3.61,3.61,0,0,0,2.08-.57,3.5,3.5,0,0,0,1.26-1.53h2.93a6.22,6.22,0,0,1-2.2,3.23A6.38,6.38,0,0,1,187.33,91.09Zm0-12a4.16,4.16,0,0,0-2.6.87,3.84,3.84,0,0,0-1.38,2.61h7.73A3.46,3.46,0,0,0,190,80.07,3.76,3.76,0,0,0,187.33,79.13Z"/><path class="cls-1" d="M197,90.76V77.06h2.6l.22,2.4a4.67,4.67,0,0,1,1.86-2,5.4,5.4,0,0,1,2.83-.74,5.05,5.05,0,0,1,3.91,1.55,6.59,6.59,0,0,1,1.42,4.61v7.88H207V83.19c0-2.65-1.08-4-3.26-4A3.51,3.51,0,0,0,201,80.37,4.73,4.73,0,0,0,200,83.69v7.07Z"/><path class="cls-1" d="M70.25,38.47,118.51,27a28.72,28.72,0,0,0-3.62-13.38A26.52,26.52,0,0,0,105,3.6a29.28,29.28,0,0,0-28.13,0,26.82,26.82,0,0,0-10,10,28.92,28.92,0,0,0-3.71,14.78,30.76,30.76,0,0,0,2,11.34ZM81.42,16.19a13,13,0,0,1,18.91,0,12,12,0,0,1,1.84,2.43L77.61,25.15A14.86,14.86,0,0,1,81.42,16.19Z"/><path class="cls-1" d="M100.33,40.5a12.88,12.88,0,0,1-9.48,4.09,12.69,12.69,0,0,1-9.43-4.09,11.14,11.14,0,0,1-1.61-2.1L66.05,41.69c.24.48.49,1,.76,1.43a26.41,26.41,0,0,0,9.92,10,29.45,29.45,0,0,0,28.18,0,26.35,26.35,0,0,0,10-10,27.24,27.24,0,0,0,3-8.1H103.48A13.08,13.08,0,0,1,100.33,40.5Z"/><polygon class="cls-1" points="152.84 18.75 152.84 5.14 136.19 9.57 135.13 1.31 122.7 1.31 122.7 25.95 152.84 18.75"/><polygon class="cls-1" points="122.7 28.16 122.7 55.39 136.65 55.39 136.65 24.83 122.7 28.16"/><path class="cls-1" d="M178.94,12.51l.18,0L201.2,7.2a26.08,26.08,0,0,0-4.88-3.6,29.28,29.28,0,0,0-28.13,0,26.82,26.82,0,0,0-10,10,27.2,27.2,0,0,0-2,4.38Z"/><path class="cls-1" d="M203,9l-16.25,3.89a13.75,13.75,0,0,1,5,3.31q4,4.1,4,12.16t-4,12.15a12.88,12.88,0,0,1-9.48,4.09,12.69,12.69,0,0,1-9.43-4.09q-4-4.08-4-12.15t4-12.14l-17.29,4.13a32.57,32.57,0,0,0-1,8,29.15,29.15,0,0,0,3.65,14.77,26.41,26.41,0,0,0,9.92,10,29.45,29.45,0,0,0,28.18,0,26.35,26.35,0,0,0,10-10,29.25,29.25,0,0,0,3.65-14.77,29.29,29.29,0,0,0-3.65-14.78A28.32,28.32,0,0,0,203,9Z"/><path class="cls-2" d="M59.2,41.11,59,40.77,39.66,1.31H7.8V12.1H21.25L0,55.39H15.61l2-4.36Zm-26.1-23L41,34.89,23,39.68Z"/><polygon class="cls-2" points="61.79 46.39 46.38 46.39 50.6 55.39 66.21 55.39 61.79 46.39"/></g></g></svg>